<?xml version="1.0" encoding="UTF-8"?>
<svg id="Card" xmlns="http://www.w3.org/2000/svg" version="1.1" viewBox="0 0 480.9 718">
  <defs>
    <style>
      .white {
        fill: #fff;
      }

      .white,
      .color {
        stroke-width: 0px;
      }

      .color {
        fill: #ff002c;
      }
    </style>
  </defs>
  <path id="l0" class="white"
    d="M354.3,645.5h-5.3l-7.6-.9-5.2-3.5-4.2-3.6-4.5-5-3-4-5-6.3-1.1-6.6v-5.9l-.2-18.6v-12.2l.4-9.7,2.2-7.2.9-4.8,2.1-6.7,4.6-5.7,4.2-2.8,3.9-2.8,5-.9,2.6-.3h14.2l9.5,1.1,7.2,3.6,3.9,3.7,3.2,4.2,2.2,4.2,1.9,3.9,1.7,5.3,1,5.1.9,5.6v5.1l.3,2.9.9,4.7.5,6.1-.3,5.6-.7,4.2-.3,4.2-1.1,4.1-2,6.9-2,5.1-3.1,5-3.3,5.1-6.5,5.2-4.9,3.5-7.7,2.5-5.4.7h0ZM350.2,625.2h2.8l2.2-.3,2.9-1,2.1-1.5,3.3-2.7,1.5-2.3,1.9-3.1,1-2.6,1.7-5.8.5-2.1.3-3.6.5-3.4v-3.2c.1,0-.2-3.8-.2-3.8l-.9-4.7-.5-4.5v-4.6l-.6-3.8-.7-3.4-.9-2.9-1.2-2.5-1.2-2.2-1.1-1.5-.5-.4-1.4-.7-4.9-.6h-12.5l-.6.5-1.8,1.2-.3.3-.6,1.8-.8,4.8-1.8,5.8-.3,6.8v11.4l.2,18.6v4.1l1.9,2.4,2.8,3.7,2.8,3,2.5,2.2,1.6.2h0l.3.4h0Z" />
  <path id="u0" class="white"
    d="M136.4,176.1h-2.9l-4.6-.7-5-3-3.8-3.1-4.1-3.9-3.2-4.2-2.8-5.7-2.6-6.2-1.9-5.5-1.7-4.7-3.4-7.9-1.1-7-1.6-5.4-.8-4.8-.4-3.5v-12.9l2.1-5.1,3.2-4.9,3.8-4.9,4.7-3.2,9.8-4.6,17.8-1.5h4.1l5.3.9,5,1.5,5.1,5,3.4,5.8,1.7,4.8,1.4,25.8.2,19.4v14.9l-2.1,5.2-2.9,5.5-3.6,3.6-3.3,3.7-5.6,3.7-4.6,2.3-5.6.7h0ZM135.5,155.7h.6l.4-.2,2.3-1.5,2.1-2.4,1.7-1.7,1-1.8.2-.5v-10.9l-.2-19-1.2-22.3v-.3c-.1,0-.8-1.2-.8-1.2l-1.4-.2h-1.8l-13,1.1-4.9,2.3-.8.6-1.6,2.1-1.2,1.9v7.6l.2,2.1.5,2.9,1.6,5.4.9,5.8,2.8,6.4,1.9,5.2,1.8,5.3,2.1,5,1.5,3.1,1,1.3,2.7,2.5,1.8,1.4h-.2Z" />
  <g id="_0" data-name=" 0">
    <path id="number" class="color"
      d="M228.4,455.5h-8.9l-7.6-3.5-5.1-4.6-5.2-4.2-4.2-4-4.5-6.1-3.7-5.5-3.6-6.9-2.6-5.6-2.2-7.6-.2-11-.7-6.7-2.9-13.3-.5-11.3-.6-10.3-.3-27.9v-8.8l2.2-7.6,5.1-9,6.2-10.6,6.2-8.6,5-7.4,5.5-4.5,6.4-4.8,7.8-3,7.7-1.4,4.5-.6,4.5-.7,5.7-.4h23.1l9,.5,8.1,6.9,3.3,5.3,1.8,3.3,1.9,4.8,1.3,4.4.8,3.7,1.2,6,.7,7.9v2.7l1.5,4.7,1.4,9.4,1.3,6.1v33.6l-.7,12.2-.7,8.3-1.1,6.1-1.7,6.1-2.7,4.8-2.1,3.3-1.4,3.5-2.3,2.8-1,2.4-2.2,3.3-2.5,4.3-2.6,2.9-1.3,2-1.1,2.1-.8,3.3-2.4,5-3.1,3.9-6.2,5.8-3.2,3.4-3.7,3.6-5.3,3.4-6.1,2.2-6.1,1.3-9.3.9h0l.2-.3h0ZM223.9,435.2h3.5l7.1-.7,3.6-.8,2.7-1,1.7-1.1,2.1-2,3.4-3.6,5.3-4.9.6-.8.6-1.2.9-3.8,2.8-5.3,2.4-3.7,2.3-2.6,2-3.3,1.4-2,1.5-3.4,2-2.5.9-2.3,3-4.7,1.1-2,.8-2.8.8-4.6.5-6.8.6-11.6v-30.7l-1-4.9-1.2-8.3-1.8-5.9-.2-5-.5-5.8-1.7-7.7-.9-2.8-1-2.5-1.1-2-1.2-2-.5-.4h-2c0-.1-21.7-.1-21.7-.1l-4,.3-3.8.7-4.5.6-4.9.9-3.4,1.3-4,3-2.7,2.2-3.6,5.3-6,8.3-5.4,9.2-3.8,6.8-.7,2.6v5.9l.3,27.5.6,9.9.4,9.7,2.7,12.7.9,9.1.2,8.8,1,3.5,1.8,3.9,2.7,5.2,3,4.4,3.1,4.2,2.6,2.5,4.7,3.8,3,2.7.8.4h0l.2.2h0Z" />
  </g>
</svg>