<?xml version="1.0" encoding="UTF-8"?>
<svg id="Card" xmlns="http://www.w3.org/2000/svg" version="1.1" viewBox="0 0 480.9 718">
  <defs>
    <style>
      .white {
        fill: #fff;
      }

      .white,
      .color {
        stroke-width: 0px;
      }

      .color {
        fill: #ff002c;
      }
    </style>
  </defs>
  <path id="l1" class="white"
    d="M360.5,643c-1.2,0-2.5-.2-3.7-.7-2.9-1.2-5.1-3.6-6-6.6l-5.3-19.3c-.1-.5-.2-1-.3-1.5l-2-16.8v-.8l-.7-17v-1.3l1.6-17v-.7l2.3-13.7.5-9c.3-5.5,5-9.7,10.5-9.5,5.5.3,9.8,5,9.5,10.5l-.5,9.6c0,.4,0,.7-.1,1.1l-2.3,13.9-1.5,16,.6,16,1.9,15.7,1.2,4.5,2.1-3.8,3.3-8.8,1.7-7.4c1.2-5.4,6.6-8.8,12-7.5,5.4,1.2,8.8,6.6,7.5,12l-1.8,8.1c-.1.5-.2.9-.4,1.4l-3.9,10.1-.6,1.2-5,9c-.8,1.5-2.1,2.8-3.5,3.7l-12,7.3c-1.6,1-3.4,1.5-5.2,1.5h0v-.2h0Z" />
  <path id="u1" class="white"
    d="M128.8,181.5h-.7c-5.5-.4-9.7-5.1-9.3-10.6l.6-8.9.8-15.8v-.5l1.4-13.9v-.6l2.5-15.7c0-.4.2-.9.3-1.3l3.4-11.1-8.9,9.5c-3.8,4-10.1,4.3-14.1.5s-4.3-10.1-.5-14.1l9.5-10.2c.2-.3.5-.5.8-.8l7.1-6.1c.3-.3.7-.5,1-.8l15.1-9.9c3.4-2.2,7.8-2.2,11.1,0s5,6.3,4.2,10.3l-4,19.9c0,.3-.1.6-.2.9l-5.2,17.1-2.4,14.7-1.3,13.3-.8,15.6v.2l-.6,9c-.4,5.3-4.7,9.4-10,9.4h.2,0Z" />
  <g id="_1" data-name=" 1">
    <path id="number" class="color"
      d="M246.9,455.7h-.2c-5.5-.1-9.9-4.7-9.8-10.2l.5-27.3v-17.6c0-.8.1-1.7.3-2.5l4.8-18.5,4.7-22.8v-40.3c.1-.7.2-1.3.3-2l2-9.8,1.2-12.4-5.3,5.3-9,9.9c-.6.6-1.2,1.2-1.9,1.6l-8.5,5.6c-.7.5-1.4.8-2.2,1.1l-11.1,3.9-8.2,4.4c-4.9,2.6-10.9.7-13.5-4.2s-.7-10.9,4.2-13.5l8.9-4.7c.4-.2.9-.4,1.3-.6l10.6-3.8,6.4-4.2,8.3-9.1c.1-.1.2-.2.4-.4l11.6-11.5,11-11.2c2.8-2.9,7.2-3.8,10.9-2.2,3.8,1.5,6.2,5.2,6.2,9.3v24.1l-1.4,15.1c0,.4,0,.7-.1,1l-1.9,9.3v40.4c-.1.7-.2,1.3-.3,2l-5,24c0,.2,0,.3-.1.5l-4.5,17.6v16.7l-.5,27.4c-.1,5.5-4.6,9.8-10,9.8h0v-.2h-.1Z" />
  </g>
</svg>