<?xml version="1.0" encoding="UTF-8"?>
<svg id="Card" xmlns="http://www.w3.org/2000/svg" version="1.1" viewBox="0 0 480.9 718">
  <defs>
    <style>
      .white {
        fill: #fff;
      }

      .white,
      .color {
        stroke-width: 0px;
      }

      .color {
        fill: #ff002c;
      }
    </style>
  </defs>
  <path id="l2" class="white"
    d="M360.9,641.9h-8.5c-2.1,0-4.2-.5-6.1-1.6l-6.1-3.4c-1.2-.7-2.3-1.5-3.2-2.6l-6.3-7.1c-1.2-1.3-2.1-2.9-2.6-4.6l-2.5-8.2c-.4-1.3-.6-2.6-.5-3.9l.2-10c0-1.7.4-3.4,1.1-5l2.8-6.1c.6-1.4,1.5-2.6,2.6-3.7l2.6-2.6-16.3,2c-5.7.7-11-3.4-11.7-9.1s3.4-11,9.1-11.7l22.4-2.8h.5l21-1.6h1.6l11.3.5c5,.2,9.2,4,9.9,9,.7,5-2.3,9.8-7,11.4l-8.9,3-7.3,4.6-11.4,11.2-1.4,3v6.8c-.1,0,1.5,5.1,1.5,5.1l4.1,4.7,2.9,1.6h4.2l8.6-4.6c.1,0,.3,0,.4-.2l7.6-3.7c5.2-2.5,11.5-.3,14,4.9s.3,11.5-4.9,14l-7.4,3.6-10.3,5.5c-1.8,1-3.8,1.5-5.9,1.5h-.1ZM359.6,587.9h0ZM367.1,583.4h0Z" />
  <path id="u2" class="white"
    d="M144.6,155.9c-.6,0-1.2,0-1.8-.2l-17-3.1h0l-19.6-3.9c-4.8-.9-8.2-5.2-8.1-10s3.7-8.9,8.5-9.7l4.2-.6,9-1.6c.2,0,.4,0,.6-.2l6.9-4.2c.2,0,.4-.3.6-.5l4.3-6.2c.1,0,.2-.3.2-.4l2.2-6.4c0-.2.1-.4.1-.6v-10.5l-.7-4.8c0-.3-.1-.5-.3-.7l-.5-.7c-.2-.3-.5-.6-.9-.7h-.7l-5.9.3h-.3l-6.4,1.4c-.2,0-.4,0-.6.3l-4.4,3c-.2,0-.4.3-.5.5l-2.1,3.2c-3,4.6-9.2,5.9-13.9,2.8-4.6-3-5.9-9.2-2.8-13.9l2.1-3.2c1.6-2.4,3.6-4.4,6-6l4.4-3c2.3-1.6,4.8-2.6,7.5-3.2l6.4-1.4c1.2-.3,2.4-.4,3.6-.5l5.9-.3c2.9-.2,5.8.3,8.6,1.3,4.4,1.6,8.1,4.5,10.7,8.4l.5.7c1.8,2.6,2.9,5.7,3.4,8.8l.7,4.8c.2,1.1.2,2.2.2,3.3v10.2c0,2.4-.4,4.8-1.2,7l-2.2,6.4c-.6,1.9-1.6,3.8-2.7,5.4l-4.3,6.2c-.5.7-1.1,1.4-1.6,2.1l3.8.7c5.4,1,9,6.2,8,11.6-.9,4.8-5.1,8.2-9.8,8.2h0Z" />
  <g id="_2" data-name=" 2">
    <path id="number" class="color"
      d="M289.5,445.1h-.7l-22-1.5c-1.2,0-2.3-.3-3.5-.6l-14.7-4.3-18.1-3.9-21.1-.5-29.1.8c-4.7.1-8.9-2.9-10.3-7.4-1.4-4.5.4-9.4,4.4-11.9l17.8-11.2h.1l17.8-10.9,20.5-12.5,11.3-9.7,7-10.3c.3-.5.7-.9,1.1-1.4l6-7.1,5.4-12.8,4.1-10,1.4-12.9v-9.8l-3.2-6.5-6.4-5.1-5-3.4-7.2-.6h-8.4l-10.1,2.1-7.9,3.8-7.1,3.7-5.4,3.6c-4.8,3.2-11.3,1.9-14.6-2.9s-1.9-11.3,2.9-14.6l5.6-3.7c.5-.3,1-.6,1.6-.9l7.4-3.9c.1,0,.2-.1.3-.1l8.6-4.1c1.2-.6,2.5-1,3.8-1.3l11.2-2.3c1.1-.2,2.2-.3,3.3-.3h10.5l8.6.7c2.8.2,5.5,1.2,7.8,2.8l6.2,4.2c.3.2.7.5,1,.7l7.4,5.9c1.9,1.5,3.5,3.4,4.5,5.6l4.1,8.5c1.1,2.2,1.6,4.7,1.6,7.1v11.2c0,.6,0,1.2-.1,1.8l-1.5,13.9c-.2,1.5-.5,3-1.1,4.4l-4.4,10.7h0c0,.1-5.7,13.6-5.7,13.6-.6,1.5-1.5,2.9-2.5,4.1l-6.3,7.5-7.2,10.6c-.8,1.2-1.8,2.3-2.9,3.3l-12.1,10.3c-.7.6-1.4,1.1-2.1,1.5l-24.1,14.7,13.7.3c1,0,2.1.1,3.1.4l18.7,4c.4,0,.8.2,1.1.3l14.4,4.2,21.5,1.5c5.8.4,10.1,5.4,9.8,11.2-.4,5.5-5,9.8-10.5,9.8h0l-.3-.4h0ZM248.8,438.6h0ZM265.4,330.3h0ZM211.4,300.8h0Z" />
  </g>
</svg>