<?xml version="1.0" encoding="UTF-8"?>
<svg id="Card" xmlns="http://www.w3.org/2000/svg" version="1.1" viewBox="0 0 480.9 718">
  <defs>
    <style>
      .white {
        fill: #fff;
      }

      .white,
      .color {
        stroke-width: 0px;
      }

      .color {
        fill: #ff002c;
      }
    </style>
  </defs>
  <path id="l4" class="white"
    d="M396,578.6l-1.1-1.3c-1.8-2-4.4-3.3-7.1-3.5l-7-.5h-1l-6.7.2v-5.5c.1-.2.1-.4.1-.6l-.6-17.3c-.2-5.8-5-10.3-10.9-10.1-5.8.2-10.3,5.1-10.1,10.8l.6,17-.2,8.3-8,.2c-5.8.2-10.4,5-10.2,10.8s5,10.3,10.8,10.2l7-.2c.5,5.2,4.9,9.3,10.2,9.4h.2c5.7,0,10.4-4.5,10.5-10.3v-1.8h5v.9l-1.9,9.9-3.2,6.6-3.8,6c-3.1,4.9-1.7,11.4,3.2,14.5,1.8,1.1,3.7,1.6,5.6,1.6,3.5,0,6.9-1.7,8.9-4.9l4.1-6.5c.2-.3.4-.7.6-1l4.1-8.4c.4-.8.7-1.7.9-2.6l2.4-12.1c.1-.6.2-1.2.2-1.8l.2-10.9c0-2.6-.9-5.2-2.7-7.2h-.1Z" />
  <path id="u4" class="white"
    d="M152.8,124.6v-19.6c0-5.8-4.7-10.5-10.5-10.5s-10.5,4.7-10.5,10.5v16.9l-1.8-.2h-11.4l.2-1.3,3.9-13.9c0-.3.2-.7.2-1l2.7-15.5c1-5.7-2.8-11.2-8.5-12.2s-11.2,2.8-12.2,8.5l-2.7,14.9-4,14c0,.4-.2.8-.3,1.2l-2,12.7c-.9,5.7,3,11.1,8.7,12l8.8,1.4c.6,0,1.1.1,1.7.1h13l2.3.2-1.5,7.6c-.1.5-.2,1-.2,1.6l-.6,12.9c-.3,5.8,4.2,10.7,10,11h.5c5.6,0,10.2-4.4,10.5-10l.6-12.1,1.8-9.1v-.4c4-1.2,7-4.6,7.5-9,.5-4.7-2.2-9.1-6.4-10.8h.2Z" />
  <g id="_4" data-name=" 4">
    <path id="number" class="color"
      d="M287.4,366.7h-15.1l-8-2.7.2-1.1,3.3-9.5c.2-.5.3-1.1.4-1.7l1.4-8c1-5.7-2.9-11.1-8.6-12.1-5.7-1-11.1,2.9-12.1,8.6l-1.2,7.2-3.2,9.3c-.1.4-.3.9-.4,1.3l-.5,2.4h-.4c-.5-.1-1.1-.2-1.6-.2h-12.3l-10-2c-.4,0-.7-.1-1.1-.1h-1.1c0-.1,2.7-12.8,2.7-12.8,0-.2,0-.4.1-.6l2.1-14,3.8-13.1,7.8-15.6c.2-.4.4-.8.5-1.3l4.3-12.5c1.9-5.5-1-11.5-6.5-13.3-5.5-1.9-11.5,1-13.3,6.5l-4.1,11.9-7.9,15.8c-.3.6-.5,1.1-.7,1.7l-4.3,14.7c-.1.5-.2,1-.3,1.4l-2.1,14.4-5,23.9c-.6,2.9,0,6,1.8,8.4s4.5,4,7.5,4.2l12.3,1.1,10.5,2c.7.1,1.3.2,2,.2h11.2v9.6l-1.8,11.4-2.1,14.1h0c0,.1-2.4,17.1-2.4,17.1,0,.5-.1,1-.1,1.4v9c0,5.8,4.7,10.5,10.5,10.5s10.5-4.7,10.5-10.5v-8.3l2.2-16.2,2.1-13.9,2-12.1c0-.5.1-1.1.1-1.7v-6.7l6.7,2.2c1.1.4,2.2.5,3.3.5h16.8c5.8,0,10.5-4.7,10.5-10.5s-4.7-10.5-10.5-10.5h0v.2h.1Z" />
  </g>
</svg>