<?xml version="1.0" encoding="UTF-8"?>
<svg id="Card" xmlns="http://www.w3.org/2000/svg" version="1.1" viewBox="0 0 480.9 718">
  <defs>
    <style>
      .white {
        fill: #fff;
      }

      .white,
      .color {
        stroke-width: 0px;
      }

      .color {
        fill: #ff002c;
      }
    </style>
  </defs>
  <path id="l5" class="white"
    d="M361,641.2h-1.1l-13-1.4c-5.8-.6-9.9-5.8-9.3-11.6s5.8-9.9,11.6-9.3l12.1,1.3,6.2-.4,1.1-7.9h-3c-3.8,0-7.5-1.1-10.7-3.3l-1.8-1.2c-4.7-3.2-7.8-8.3-8.3-14-.2-2.4.2-4.8,1.1-7,0-.2.2-.4.3-.6l1.8-3.4c.2-.4.4-.8.7-1.2l2.8-4c1.1-1.5,2.3-3,3.6-4.4l2.6-2.8c2.1-2.2,4.4-4.3,7-6l1.5-1c1.5-1,3.2-2,4.8-2.8l4.7-2.3c1.4-.7,3-1.1,4.6-1.1h4.6c5.8,0,10.5,4.7,10.5,10.5s-4.7,10.5-10.5,10.5h-2.1l-2.5,1.2c-.8.4-1.6.8-2.3,1.4l-1.5,1c-1.2.8-2.4,1.8-3.4,2.9l-2.6,2.8c-.6.7-1.2,1.4-1.7,2.2l-1.2,1.7h13.5c3.1,0,6,1.4,8,3.8s2.8,5.5,2.3,8.6l-1.8,10.4-2.6,17.7c-.7,4.9-4.8,8.6-9.8,8.9l-15.6.9h-.6Z" />
  <path id="u5" class="white"
    d="M133.2,161.3h-5.4c-5.8,0-10.5-4.7-10.5-10.5s4.7-10.5,10.5-10.5h5l4.2-.3,2.2-.5.4-1-.2-2.4-.3-1.3-2.5-.9-4.2-.8h-9.9c-5.7,0-10.4-4.6-10.5-10.2l-.3-12v-.6l.6-18.5c.2-5.5,4.6-9.9,10.1-10.1l19.9-.8,5.7-1.7c.8-.2,1.7-.4,2.5-.4l8.9-.4c5.8-.3,10.7,4.2,11,10s-4.2,10.7-10,11l-7.6.4-5.8,1.7c-.8.2-1.7.4-2.6.4l-11.5.5-.3,8.4v1.5h.8c.7,0,1.4,0,2,.2l5.2,1c1,.2,2,.5,3,.8l2.9,1.1c2.7,1,5.1,2.5,7.1,4.5l.3.3c2.7,2.7,4.6,6,5.5,9.7l.4,1.8c.2,1,.4,2,.5,2.9l.2,2.8c.2,2.9-.2,5.8-1.2,8.5l-.6,1.7c-1.4,3.8-3.9,7-7.1,9.4-2.2,1.6-4.7,2.7-7.4,3.3l-3.5.8c-.5.1-1,.2-1.5.2l-5.3.4h-.8v-.4h.1Z" />
  <g id="_5" data-name=" 5">
    <path id="number" class="color"
      d="M196.7,434.4c-5.5,0-10.1-4.2-10.5-9.8-.4-5.8,3.9-10.8,9.7-11.2l18-1.3,21.1-2.6c1.5-.2,2.9-.6,4.2-1.4l6.4-3.6,9.3-5.8,1.5-1c1.6-1.1,2.8-2.7,3.5-4.5.5-1.1.7-2.4.7-3.6v-5.7c0-1,0-2-.3-2.9l-.9-3.6c-.2-1.1-.8-2.1-1.5-2.9l-.2-.2c-1-1.1-2.3-2-3.6-2.6l-3.4-1.4c-2.1-.9-4.3-1.6-6.4-2.2l-7.2-2-11.1-2.3h-13.6c-3.4,0-6.5-1.6-8.5-4.3-2-2.7-2.6-6.2-1.5-9.4l2.5-7.8,1.8-11.9,2.5-15.7.9-7.6c.9-7.4,6.8-13.4,14.2-14.5l4.6-.7c1.3-.2,2.5-.2,3.8-.1l16.2,1.3,17.6-1.6h11.6l14.2.4c5.8.2,10.4,5,10.2,10.8-.2,5.7-4.8,10.2-10.5,10.2h-.3l-14.1-.4h-9.3l-17.8,1.7c-1,0-2,.1-2.9,0l-16.1-1.3h-.9c0,.1-.6,4.7-.6,4.7v.4l-2.5,15.9-1.4,9.2h.4c1.1,0,2.2.1,3.3.3l11.7,2.4c.4,0,.7.2,1.1.3l7.4,2c3.1.8,6.1,1.9,9.1,3.1l3.4,1.4c4.2,1.8,8.1,4.5,11.1,7.9l.2.2c3.1,3.4,5.3,7.6,6.3,12.1l.9,3.6c.6,2.6.9,5.3.9,8v5.7c-.1,3.8-.8,7.5-2.2,11.1-2.2,5.6-6,10.4-10.9,13.9l-1.7,1.2c-.1.1-.3.2-.5.3l-9.7,6.1c-.1,0-.3.2-.5.3l-6.7,3.8c-3.7,2.1-7.7,3.4-11.9,3.9l-21.3,2.6h-.5l-18.3,1.3h-.8l-.2-.2h0ZM268.4,312.3h0Z" />
  </g>
</svg>