<?xml version="1.0" encoding="UTF-8"?>
<svg id="Card" xmlns="http://www.w3.org/2000/svg" version="1.1" viewBox="0 0 480.9 718">
  <defs>
    <style>
      .white {
        fill: #fff;
      }

      .white,
      .color {
        stroke-width: 0px;
      }

      .color {
        fill: #ff002c;
      }
    </style>
  </defs>
  <path id="l6" class="white"
    d="M375.5,641.8c-.7,0-1.5,0-2.2-.2-5.7-1.2-9.3-6.8-8-12.5l1.3-6c.2-.8.4-1.5.7-2.2l3.5-7.6,2.3-6.6-7.6-1.4h-.3l-5.9-1.3c-.3,0-.5,0-.8-.2l-4.4-1.3c-.4,0-.8-.3-1.2-.5l-2.8-1.2-4-1.5c-1.8-.7-3.4-1.8-4.5-3.3l-1.7-2.1c-1.7-2.2-2.5-5-2.2-7.8l.7-6c.1-1.2.5-2.4,1-3.4l3.7-7.3c.2-.5.5-.9.8-1.3l5.6-7.9c1-1.4,2.2-2.5,3.7-3.3l5.5-2.8c2.1-1.1,4.5-1.4,6.8-1l6.3,1.2c.9.2,1.7.4,2.5.8l5.7,2.6c.2,0,.5.2.7.4l5,2.8c1.1.6,2,1.4,2.8,2.3l3.6,4.2c1.2,1.4,2,3.1,2.4,5l1.4,7.9c.1.7.2,1.5.2,2.2l-.3,10.7h0l-.5,12.7c0,1-.2,2-.6,3l-4.1,11.9c-.1.3-.2.7-.4,1l-3.2,7-1.1,4.8c-1.1,4.9-5.4,8.3-10.2,8.3h-.2,0ZM369.5,584.8l5.4,1v-2.8l-.6-4-.5-.6-3-1.7-4.1-1.9-1.4-.3h0l-3.6,5.2-1.4,2.8.7.3,3.4,1,5.3,1.2h0l-.2-.2h0Z" />
  <path id="u6" class="white"
    d="M133,158.5h-.7l-5.6-.4h-.9l-4.5-.7-6.1-.3c-.8,0-1.5-.1-2.3-.4l-3.4-.9c-2.6-.7-4.8-2.4-6.2-4.7l-1.4-2.3-1.7-2.7c-.9-1.4-1.5-3.1-1.7-4.8l-.5-5.6v-2.1l1.2-10.6v-.4l1.4-9.2,1.5-9.7c0-.9.4-1.8.8-2.7l4.6-10.2s0-.2.2-.3l2.3-4.8c2.6-5.2,8.9-7.3,14.1-4.8,5.2,2.6,7.3,8.9,4.8,14.1l-2.3,4.6-3.9,8.7-.3,2.2h3.6c1.4,0,2.9.2,4.2.8l3.5,1.5c.8.3,1.5.7,2.2,1.2l2.4,1.8c1.8,1.3,3.1,3.1,3.8,5.2l1,3.2c0,.2.1.4.2.6l1.7,6.3c.2.6.3,1.3.3,2l.8,11.5c.2,2.5-.6,5-2.1,7.1l-1.4,1.8c-.8,1.1-1.8,2-3,2.7l-1.2.8c-1.6,1-3.5,1.5-5.4,1.5h0ZM119.2,136.2l3.6.2c.4,0,.7,0,1.1.1h.5v-.9l-1-3.9h-3.9l-.3,3.2v1.4h0Z" />
  <g id="_6" data-name=" 6">
    <path id="line" class="color"
      d="M239.4,467h-.3l-25-.6c-5.8-.1-10.4-5-10.2-10.8.1-5.8,5-10.4,10.8-10.2l24.8.6,30.1-.4h.1c5.7,0,10.4,4.6,10.5,10.4,0,5.8-4.6,10.6-10.4,10.6l-30.3.4h-.1Z" />
    <path id="number" class="color"
      d="M264.1,435.5h-.7l-10.8-.7h-.8l-10.1-1.4h-.2l-8-1.3h-.4l-6.5-1.3c-.8-.2-1.6-.4-2.4-.8l-2.4-1.1-5-1.9c-1.3-.5-2.5-1.3-3.6-2.3l-6.4-6.2c-.1-.1-.2-.2-.3-.3l-5.8-6.1c-.7-.7-1.2-1.5-1.7-2.4l-4.1-7.8c-.8-1.5-1.2-3.2-1.2-4.9v-9.8c0-1.7.4-3.5,1.2-5l.4-.8.9-7.1.9-13c0-.3,0-.6.1-1l1.9-11.5c.1-.7.3-1.4.6-2.1l5.5-14.3c0-.1.1-.3.2-.4l5.7-13.1s0-.1.1-.2l5.8-12.5c.5-1.1,1.2-2.1,2-2.9l9.4-9.7c.9-.9,2-1.7,3.2-2.2l7.1-3.2,8.2-5c.2-.1.4-.2.6-.3l6.2-3.3c5.1-2.7,11.5-.8,14.2,4.3s.8,11.5-4.3,14.2l-6,3.2-8.4,5.2c-.4.2-.8.4-1.2.6l-5.9,2.7-6.8,7-5,10.8-5.5,12.8-4.6,11.9h6.8c0-.1.1-.1.2-.1h7.7l8.2.6h.5l8.2,1c.6,0,1.2.2,1.7.4l10.3,3c.9.3,1.8.6,2.5,1.1l8.7,5.4c.9.5,1.7,1.2,2.4,2l5.7,6.5c.6.7,1.1,1.5,1.5,2.3l3.5,7.1c.7,1.5,1.1,3,1.1,4.6v16.8c0,.6,0,1.2-.2,1.8l-1.3,7.2c0,.3-.1.6-.2.9l-1.4,5.2c-.1.4-.2.7-.4,1.1l-2,5.1c-.7,1.8-1.8,3.3-3.3,4.5l-4.3,3.4c-1.3,1-2.7,1.7-4.3,2l-5.9,1.3c-.7.2-1.5.2-2.2.2h0l.4-.2h0ZM254.4,413.8l8.9.6,2-.4h.1c0-.1.7-2,.7-2l1.1-4.2,1-5.9v-13.5l-1.8-3.7-3.7-4.2-6.2-3.8-8.1-2.4-7.1-.8-7.6-.5h-6.5l-9.8.2-.2,3v.6l-1.2,9.4c-.2,1.3-.6,2.5-1.2,3.7v.2c-.1,0-.1,4.5-.1,4.5l2.2,4.2,4.6,4.9,4.7,4.5,3.4,1.3c.2,0,.5.2.7.3l1.6.7,5,1,7.7,1.2,9.6,1.3h0l.2-.2h0Z" />
  </g>
</svg>