<?xml version="1.0" encoding="UTF-8"?>
<svg id="Card" xmlns="http://www.w3.org/2000/svg" version="1.1" viewBox="0 0 480.9 718">
  <defs>
    <style>
      .white {
        fill: #fff;
      }

      .white,
      .color {
        stroke-width: 0px;
      }

      .color {
        fill: #ff002c;
      }
    </style>
  </defs>
  <path id="l7" class="white"
    d="M393.1,635.5c-.5-5.8-5.6-10-11.4-9.5l-9.9.9-13.6.3.5-1.7,3.5-9.6,1.9-4.3,19.3-3.3c5.7-1,9.6-6.4,8.6-12.1s-6.4-9.6-12.1-8.6l-8.3,1.4,3-10.8c1.5-5.6-1.7-11.4-7.3-12.9s-11.4,1.7-12.9,7.3l-4,14.3v.2l-1.1,4.5-12.7.7c-5.8.3-10.2,5.3-9.9,11,.3,5.6,4.9,9.9,10.5,9.9s.4,0,.6,0l3.2-.2-1.9,5.2c-.1.4-.3.7-.4,1.1l-2.5,8.8c-.8,2.8-.8,5.7,0,8.5,1.9,6.7,8,11.4,15,11.4h5.8l15.8-.4h1l10.1-.9c5.8-.5,10-5.6,9.5-11.4h0l-.3.2h0Z" />
  <path id="u7" class="white"
    d="M151.3,106.4v-.2l.9-7.5c.1-1.1,0-2.2-.1-3.2l-1.5-7.5c0-.4-.2-.7-.3-1.1l-1.2-3.8c-1.2-3.9-4.6-6.8-8.6-7.3l-7.7-1.1h-.4l-27.4-2.8c-5.8-.6-10.9,3.6-11.5,9.3-.6,5.8,3.6,10.9,9.3,11.5l27.2,2.8h.6l.4,2.4-.5,4.5-1,2.5h-.7l-6.1-1c-.8,0-1.6-.2-2.3,0l-9.7.6c-5.8.3-10.2,5.3-9.8,11.1.2,3.3,1.9,6.2,4.5,8-3.5,2.9-4.8,7.8-3,12.2,1.7,4,5.6,6.4,9.7,6.4s2.8-.3,4.1-.9l4.5-1.9c.2,0,.4-.2.6-.3l9.8-4.9c.9-.5,1.8-1.1,2.5-1.8l3.5-3.3.3-.3,3.1-3.2,4.9-.2c5.8-.2,10.3-5.1,10.1-10.8-.1-3.4-1.8-6.3-4.3-8.1h.1Z" />
  <g id="_7" data-name=" 7">
    <path id="number" class="color"
      d="M277.4,349.5l5.8-8.6,6.7-9.2.3-.4,8.7-13.1c.2-.3.4-.6.5-.9l7.1-12.2c.3-.5.6-1.1.9-1.6l6.1-13.3c1.2-2.7,1.3-5.9,0-8.6-1.2-2.8-3.6-4.9-6.5-5.7l-8.6-2.7c-1.2-.4-2.5-.6-3.8-.8l-13.9-1.3h-32.9l-9.6.9h-.3l-13.4,1.7h-9.3c-5.8,0-10.5,4.7-10.5,10.5s4.7,10.5,10.5,10.5h9.5c.8,0,1.5,0,2.3-.1l13.5-1.7,9.3-.9h29.1l10.1.9-.8,1.7-7,12-8.5,12.9-6.7,9.2c0,.1-.2.2-.2.4l-5.8,8.7-7.2,10.2c-.3.4-.5.7-.7,1.1l-4.1,6.8-17.8-.6-8.8-1.2c-5.7-.8-11.1,3.2-11.9,9-.8,5.7,3.2,11,8.9,11.9l9,1.2c.6,0,1.3.1,1.9.2l7.1.2-3.8,7.2c-.1.3-.3.6-.4.8l-7.2,15.7-5.5,12.2-3.1,5.9c-.8,1.4-1.3,3-1.7,4.6l-.3,1.5-4.4,6.8c-3.1,4.9-1.8,11.4,3.1,14.5,1.8,1.1,3.7,1.7,5.7,1.7,3.4,0,6.8-1.7,8.8-4.8l4.6-7.2c1.2-1.8,2-3.8,2.5-5.9l.4-1.6,3-5.6c.2-.3.4-.7.5-1.1l12.7-27.9,8.6-16.4h9.6c.7,0,1.4,0,2.2-.1l15.4-1.8c1-.1,2-.3,3-.6l12.8-3.7c5.6-1.6,8.8-7.5,7.1-13-1.6-5.6-7.5-8.8-13-7.1l-12.6,3.7-11.2,1.3,4-5.7s.1-.1.1-.2h0v-.3h0Z" />
  </g>
</svg>