<?xml version="1.0" encoding="UTF-8"?>
<svg id="Card" xmlns="http://www.w3.org/2000/svg" version="1.1" viewBox="0 0 480.9 718">
  <defs>
    <style>
      .white {
        fill: #fff;
      }

      .white,
      .color {
        stroke-width: 0px;
      }

      .color {
        fill: #ff002c;
      }
    </style>
  </defs>
  <path id="l8" class="white"
    d="M376.2,650h-10.7c-1.2,0-2.4-.2-3.6-.6l-11.4-4.1c-2.1-.8-3.8-2.1-5.1-3.9l-6.2-9.1c-1.2-1.8-1.9-4-1.8-6.2l.2-7.3c0-1.9.6-3.7,1.6-5.3-1.3-1-2.4-2.3-3.1-3.9l-4.1-8.8c-.2-.4-.3-.8-.5-1.2l-2.4-7.2c-.3-1-.5-2.1-.5-3.2v-8c0-3.7,2-7.1,5.1-9l7.2-4.3c1.1-.6,2.2-1.1,3.5-1.3l10.6-2c.6,0,1.3-.2,1.9-.2h11.9c.7,0,1.4,0,2,.2l10,2c2.6.5,5,2,6.5,4.2l4.5,6.3c1.7,2.4,2.4,5.4,1.8,8.2l-1.2,5.7c-.2.8-.4,1.6-.8,2.3l-2.7,5.9c-.7,1.6-1.9,3-3.3,4l-3,2.2c.4.2.7.4,1,.7l7.4,5.5c1.6,1.2,2.8,2.8,3.5,4.6l2.5,6.5c.8,2,.9,4.1.5,6.1l-1.6,7c-.6,2.7-2.2,5-4.5,6.5l-9.6,6.3c-1.7,1.1-3.7,1.7-5.7,1.7h0v-.3h.1ZM367.3,629h5.8l3.3-2.1-.2-.5-4-2.9-5.3-2.2-6.1-1-2.3,2.7v.2l2.4,3.5,6.4,2.3h0ZM353.1,596.6l2.2.7,3-2c.4-.3.9-.5,1.3-.7l5.3-2.5,6-4.5.8-1.6-4-.8h-10l-7.8,1.4-.5.3v.4l1.6,5,1.9,4.1h0l.2.2h0Z" />
  <path id="u8" class="white"
    d="M131.6,172c-.6,0-1.3,0-1.9-.2l-11-2.1c-2.7-.5-5.2-2.1-6.7-4.4l-5.2-7.6c-.7-1.1-1.2-2.2-1.5-3.4l-1.7-7c-.4-1.6-.4-3.3,0-4.9l1.5-6.3c.5-2,1.5-3.8,3-5.2l4.3-4c.6-.6,1.3-1.1,2-1.5l.8-.5c-1.1-1.1-1.9-2.5-2.4-4l-2.1-6.4c-.3-.9-.5-1.9-.5-2.8l-.5-11.2v-1.5l.5-4.8c.3-2.9,1.8-5.6,4.1-7.3l4.6-3.5c1.1-.8,2.3-1.4,3.6-1.8l5.3-1.5,1.9-1c.8-.4,1.5-.7,2.4-.9l6.2-1.6c.8-.2,1.7-.3,2.6-.3h4.4c1.6,0,3.2.4,4.6,1.1l4.6,2.3c1.6.8,3,2,4.1,3.5l2.6,3.8c.1,0,.2.3.3.4l2,3.3c.5.8.9,1.7,1.1,2.6l.9,3.2c.3.9.4,1.9.4,2.9v6c0,.7,0,1.4-.2,2l-1.2,6.3c-.4,2.3-1.7,4.4-3.4,5.9l-7.8,6.7c-.6.5-1.2.9-1.9,1.3l-1.2.6,4.8,5.7c1.6,1.9,2.5,4.3,2.5,6.8v4.6c0,.6,0,1.2-.2,1.9l-1.9,10.6c-.4,2.1-1.4,4-2.9,5.5l-4.5,4.6c-1.7,1.7-3.9,2.8-6.3,3.1l-9.1,1h-1.2.2,0ZM126.8,149.9l5.2,1,3.5-.4,1.1-5.9-3.4-4-1.2-1.1-6.1,3.5-1.1,1-.2.8.7,2.7,1.6,2.4h-.1ZM131.8,111.6l2,1.7,6.6-3.6,4.2-3.6.3-1.7v-3.9c-.1,0-1.3-1.9-1.3-1.9l-.9-1.3h-.6l-3.7.9-1.8,1c-.7.4-1.4.7-2.2.9l-3.8,1,.3,8.2.8,2.3h0Z" />
  <g id="_8" data-name=" 8">
    <path id="number" class="color"
      d="M242,442.4h-.7l-11.4-.8c-.8,0-1.5-.2-2.2-.4l-16.5-4.8c-.2,0-.5-.1-.7-.2l-9-3.4c-.9-.3-1.8-.8-2.5-1.4l-6.5-4.8c-.5-.3-.9-.7-1.3-1.1l-4-4.2c-.3-.4-.6-.7-.9-1.1l-4.6-6.3c-1.2-1.6-1.9-3.6-2-5.7l-.5-10.3c0-1,0-2.1.3-3.1l2.6-10.1.8-8.1c0-.8.3-1.6.5-2.4l1.3-3.8c.6-1.8,1.7-3.3,3.1-4.5l4.7-4,7.4-6.9s.2-.2.3-.2l6-5.2c.1-.1.3-.3.5-.4-.5-.4-.9-.9-1.3-1.3l-8.2-10.3c-.9-1.1-1.6-2.5-2-3.9l-3-11.6c0-.1,0-.3-.1-.4l-2.5-11.6c-.2-1-.3-2.1-.2-3.2l1.2-12.6c.1-1.3.5-2.6,1.1-3.7l3.4-6.8c.2-.5.5-1,.9-1.4l6-8.4c.5-.8,1.2-1.4,1.9-2l6.9-5.6c.5-.4,1-.8,1.6-1.1l8.6-4.7c1-.5,2.1-.9,3.1-1.1l4.3-.8c.6-.1,1.2-.2,1.9-.2h5.2c3,0,5.9,1.3,7.9,3.6.2,0,.4,0,.6-.1l5.7-.8c.8-.1,1.7-.1,2.5,0l5.1.5c1.5.1,2.9.6,4.1,1.3l4.6,2.6c.4.2.9.5,1.3.9l5.7,4.5h0l7.1,5.7c.1,0,.2.2.3.3l3.1,2.7c.9.8,1.7,1.8,2.3,2.9l1.6,2.9c.4.8.7,1.6,1,2.4l.9,3.5c.1.4.2.8.2,1.1l.8,5.5c0,.5.1,1,.1,1.5v11c0,.6,0,1.2-.2,1.9l-.9,5.1c-.2,1-.5,1.9-.9,2.8l-2.5,5-1.7,4.1c-.4,1-1,2-1.7,2.8l-3.9,4.6c-.2.2-.4.4-.5.6l-2.9,2.9c-.6.6-1.2,1.1-2,1.5l-4.7,2.9c-.1,0-.2.1-.4.2l-4.4,2.5c-.4.2-.8.4-1.2.6l-11.1,4.4h-.2l-5.6,2.1,6.4,5.2c.2.1.3.3.5.4l5.9,5.5c.3.2.5.5.7.8l4.6,5.2c.1.1.2.3.4.5l4.6,5.9c.5.6.9,1.3,1.3,2.1l3.5,7.5c.5,1.1.8,2.3.9,3.5l.6,7.4v1.7l-.5,7.3c0,.5-.1,1.1-.2,1.6l-2.1,9.1c-.1.6-.3,1.2-.6,1.7l-2.5,5.9c0,.1-.1.2-.2.4l-2.9,6.1c-.9,2-2.4,3.6-4.3,4.7l-6.4,3.6c-1.4.8-2.9,1.3-4.5,1.4l-8.1.5h-.7,0ZM232.5,420.7l9.5.7,5-.3,1.4-.8,1.4-2.9,2-4.8,1.7-7.5.4-5.7-.4-4.8-2.2-4.8-3.7-4.7-4-4.6-5.2-4.9-14.3-11.9-5.3,2.5-4.8,4.2-7.4,6.9s-.2.2-.3.3l-2.7,2.3-.8,7.6c0,.5-.1,1-.3,1.5l-2.4,9.3.3,5.6,2.3,3.1,2.9,3,4.6,3.4,7.3,2.7,14.9,4.4h0v.2h.1ZM221,333.8l6.4,5.3,6.9-3c.2,0,.3-.1.5-.2l8.9-3.4,10.4-4.1,3.7-2,3.5-2.1,1.7-1.7,2.5-3,1.2-2.9c0-.2.2-.4.3-.6l2-4,.5-2.7v-9.3l-.6-4.2-.5-1.8-1.6-1.4-6.8-5.5-5.1-4-2-1.1-1.6-.2-2.3.3-2.8,1.7c-4.4,2.7-10.2,1.8-13.5-2.2l-2-2.4-1.1.2-6.3,3.4-5.1,4.1-4.7,6.5-2.1,4.3-.8,9.1,2.1,9.8,2.4,9.2,6.2,7.7h0l-.3.2h0Z" />
  </g>
</svg>