<?xml version="1.0" encoding="UTF-8"?>
<svg id="Card" xmlns="http://www.w3.org/2000/svg" version="1.1" viewBox="0 0 480.9 718">
  <defs>
    <style>
      .white {
        fill: #fff;
      }

      .white,
      .color {
        stroke-width: 0px;
      }

      .color {
        fill: #ff002c;
      }
    </style>
  </defs>
  <path id="lsk" class="white"
    d="M409.4,596.1c0-3.1-.6-6.3-1.5-9.3l-1.1-3.5c-1.2-4-3.2-7.7-5.8-11l-2.4-3c-3.2-4.1-7.5-7.5-12.2-9.8l-5.8-2.7c-2.8-1.3-5.7-2.2-8.7-2.8l-7.1-1.2c-5.7-1-11.7-.5-17.2,1.4l-7.4,2.6h-.3l-11.4,4.5c-3,1.2-5.9,2.8-8.5,4.8l-3.7,2.9c-4,3.1-7.2,7.1-9.5,11.6l-.3.6c-2.5,5.1-3.8,10.8-3.6,16.5l.3,8.3c.2,5.2,1.6,10.3,4.1,14.9l2,3.7c2,3.7,4.7,7,7.9,9.7l4.9,4.2c2,1.7,4.2,3.2,6.6,4.4l5.4,2.8c4.8,2.4,10.1,3.7,15.5,3.7h3.5c3.7,0,7.3-.8,10.8-2l6.5-2.3c.1,0,.3,0,.5-.2l11.3-4.7c2.4-1,4.6-2.2,6.6-3.7l4.2-3c3.3-2.4,6.2-5.3,8.5-8.7l1.3-1.9c2.1-3.2,3.7-6.7,4.7-10.4l.7-2.7c.8-3.1,1.2-6.2,1.1-9.4v-4.5h-.1.2v.2h0ZM324.6,590.4l.3-.6c.9-1.8,2.3-3.5,3.9-4.8l3.7-2.9c1.1-.8,2.2-1.5,3.5-2l11.2-4.4,7.2-2.5c2.2-.8,4.5-1,6.8-.6h0c-1.7,3.1-3.5,6.1-5.5,8.9l-3,4.2c-1.6,2.3-3.4,4.5-5.2,6.7l-4,4.5c-1.3,1.5-2.6,3-3.8,4.7l-7.5,9.6s-.1.2-.2.3l-3.9,5.3c-.3-.5-.7-.9-1-1.4l-2-3.7c-1-1.9-1.6-4-1.7-6.1l-.3-8.3c0-2.3.4-4.7,1.5-6.8h0ZM389,604.9l-.7,2.7c-.4,1.5-1.1,3-2,4.3l-1.3,1.9c-1,1.4-2.1,2.6-3.5,3.6l-4.2,3c-.8.6-1.8,1.1-2.7,1.5l-11.1,4.6-6.2,2.2c-1.4.5-2.9.8-4.5.8h-2.8c-2,0-3.9-.3-5.7-1.1l3.7-5.2,7.3-9.4c1-1.3,2.1-2.6,3.1-3.8l4-4.5c2.3-2.6,4.5-5.4,6.5-8.2l3-4.2c2.5-3.4,4.7-7.1,6.8-10.8l1.7-3c.9.7,1.8,1.5,2.5,2.5l2.4,3c1.1,1.4,1.9,2.9,2.4,4.5l1.1,3.5c.4,1.2.6,2.5.6,3.8v4.5c.1,1.3,0,2.6-.4,3.9h0Z" />
  <path id="usk" class="white"
    d="M173.5,105.4c-.7-6.1-3.1-11.9-6.9-16.8-2.8-3.5-6.1-6.4-10-8.7l-1.1-.6c-4.2-2.4-9-3.9-13.8-4.3l-3-.3c-3.2-.3-6.5,0-9.7.6l-3.8.8c-4.3.9-8.3,2.5-12,4.9l-3.8,2.5c-2.8,1.8-5.3,4.1-7.4,6.6l-3.8,4.5c-2.2,2.7-4.1,5.7-5.4,9l-2,5c-1.1,2.8-1.9,5.8-2.2,8.8l-.6,5.2c-.5,4.6,0,9.2,1.2,13.7l1.7,5.5c1.1,3.8,2.9,7.2,5.2,10.4l3.1,4.1c3.4,4.6,8,8.3,13.2,10.7l.7.3c4.4,2,9.2,3.1,14.1,3.1s.6,0,1,0l5.8-.2c5.9-.2,11.7-1.9,16.8-5l2.7-1.6c3.5-2.2,6.6-4.9,9.1-8.1l2.4-3.1c1.8-2.3,3.3-4.9,4.4-7.6l1.9-4.4c1.4-3.4,2.3-7.1,2.6-10.8l.8-11c.1-2.2.1-4.3-.2-6.5l-.8-6.8h-.2,0ZM104.4,124.7l.6-5.2c.2-1.6.6-3.1,1.2-4.5l2-5c.7-1.7,1.6-3.2,2.8-4.6l3.8-4.5c1.1-1.3,2.4-2.5,3.8-3.4l3.8-2.5c1.9-1.2,4-2.1,6.2-2.6l3.8-.8c1.1-.2,2.3-.3,3.5-.3h1.5l3,.3c.5,0,.9,0,1.4.2l-5.7,10.1c-.2.4-.4.7-.7,1.1l-6.4,9.6c-.5.7-1,1.4-1.6,2l-8.4,8.9c-.6.6-1.3,1.2-2,1.8l-7.3,5.5c-1,.8-2.2,1.5-3.4,2l-.8.4-.4-1.3c-.7-2.3-.9-4.7-.6-7h0v-.2h-.1ZM158.1,117.5l-.8,11c-.1,1.9-.6,3.8-1.3,5.6l-1.9,4.4c-.6,1.4-1.4,2.7-2.3,3.9l-2.4,3.1c-1.3,1.7-2.9,3.1-4.7,4.2l-2.7,1.6c-2.6,1.6-5.6,2.5-8.6,2.6l-5.8.2c-2.7,0-5.3-.5-7.8-1.6l-.7-.3c-2.3-1.1-4.4-2.7-6.1-4.6,2.3-1,4.5-2.3,6.5-3.8l7.3-5.6c1.4-1.1,2.8-2.3,4-3.6l8.4-8.9c1.2-1.3,2.3-2.7,3.3-4.1l6.4-9.6c.5-.7.9-1.4,1.3-2.2l4.9-8.7c1,1.9,1.7,4,2,6.2l.8,6.8c.1,1.1.2,2.2,0,3.3h.2Z" />
  <g id="sk">
    <path id="sk_icon" class="color"
      d="M302,319.7l-1-14.5c-.1-1.6-.5-3.1-1.2-4.5l-4.2-8.6c-.6-1.2-1.4-2.3-2.3-3.2l-6.7-6.7-.5-.5-6.8-6c-.6-.5-1.2-1-1.9-1.4l-9.7-5.8c-.6-.4-1.2-.7-1.9-.9l-12.5-4.8c-1.4-.5-2.9-.8-4.4-.8h-16.3c-1.1,0-2.1.1-3.1.4l-14.4,3.8c-1.3.3-2.5.9-3.6,1.6l-11.4,7.6c-1.1.8-2.1,1.7-3,2.8l-8.7,11.7-9.9,12.9-10.8,13.7c-.8,1-1.4,2.2-1.9,3.4l-4.8,13.3c-.5,1.3-.7,2.7-.7,4.1v16.9l2,16.8v1c.1,0,3.1,14.8,3.1,14.8,0,.4.2.8.3,1.2l3.9,12.5c.4,1.3,1.1,2.6,1.9,3.7l8.5,11.4c.9,1.2,2.1,2.3,3.4,3.1l12.4,7.6c1,.6,2.1,1.1,3.2,1.4l14.4,3.9c1,.3,2.1.4,3.1.4h25.4c1.3,0,2.6-.2,3.8-.6l14.2-4.8c1.6-.5,3-1.4,4.3-2.5l9.7-8.7c.5-.4.9-.9,1.2-1.3l9.9-12.9c.4-.5.7-1,1-1.6l5.8-10.6c.5-.9.9-1.9,1.1-2.9l2.9-11.7.2-.7,3-15.8v-.9c.1,0,2.1-17.8,2.1-17.8v-1l.6-17.3v-1.2h.3ZM180.7,338.4l3.6-10.2c0-.2.2-.4.3-.6l9.8-12.5h0l10-13h0c0-.1,7.8-10.4,7.8-10.4.1-.2.3-.4.5-.5l8.6-5.7c.2-.1.4-.2.6-.3l11.5-3.1h13.7c.3,0,.5,0,.8.1l7.5,2.9c1.2.4,1.7,1.8,1.2,2.9l-6.3,13.9-8.7,18.4s0,.1-.1.2l-13.8,22.9c-.1.2-.2.4-.4.5l-8.4,7.6c-.9.8-1.7,1.7-2.3,2.8l-8.8,14.7-.4.8-5.5,11c0,.1-.1.2-.2.3l-7.1,9.8h-.1c0,.1-2.5,3-2.5,3-.9,1-2.5,1-3.4-.1h0c-.1-.2-.3-.4-.3-.6l-3.2-10.4v-.2l-2.8-13.9v-.2l-1.9-15.8v-13.4c0-.2,0-.5.1-.7h0l.2-.2h0ZM281.5,337.4l-1.9,17v.2l-2.9,15.2h0c0,.1-2.5,10.2-2.5,10.2,0,.2-.1.4-.2.5l-4.8,8.8c0,.1-.1.2-.2.3l-8.7,11.4c0,.1-.2.2-.3.3l-7.3,6.6c-.2.2-.5.4-.8.4l-10.7,3.6c-.2,0-.4.1-.7.1h-23l-8.6-2.3c-1.5-.4-2.1-2.2-1.1-3.5l2.2-2.7.6-.7,7.8-10.8c.4-.5.7-1.1,1-1.7l5.7-11.4h0c0-.1,7.8-13.1,7.8-13.1.1-.2.2-.4.4-.5l8.6-7.8c.7-.7,1.4-1.4,1.9-2.3l14.9-24.9c.2-.3.4-.7.6-1l9-18.9h0c0-.1,4.2-9.4,4.2-9.4.6-1.4,2.4-1.7,3.5-.6l1.7,1.7c.2.2.3.4.4.6l2.6,5.3c.1.2.2.5.2.8l.8,12v.2l-.5,16.4v.2h0l.3-.2h0Z" />
  </g>
</svg>