<?xml version="1.0" encoding="UTF-8"?>
<svg id="Card" xmlns="http://www.w3.org/2000/svg" version="1.1" viewBox="0 0 480.9 718">
  <defs>
    <style>
      .white {
        fill: #fff;
      }

      .white,
      .color {
        stroke-width: 0px;
      }

      .color {
        fill: #ff002c;
      }
    </style>
  </defs>
  <g id="lsw">
    <path id="arrow_2" data-name="arrow 2" class="white"
      d="M308.4,605.6c1.5,5.3,7,8.4,12.3,6.9s8.4-7,6.9-12.3l-1-3.7v-3.5l1.5-2.2,5.5-4.3,9.6-5.8,10.7-5,14.2-4.6c.7-.2,1.3-.5,2-.9l4.5-2.6,6.3,9.4c2,3,5.6,4.5,9.2,3.9,3.6-.7,6.4-3.4,7.1-7l2.6-12c.1-.6.2-1.1.2-1.7l.2-7.9v-.6l-.2-6.5c-.1-3.9-2.8-7.3-6.6-8.3l-5.8-1.6-6.8-2.1-7.5-2.6c-1-.3-2-.5-3-.5-2.3,0-4.6.9-6.3,2.5-2.5,2.4-3.3,5.9-2.3,9.2l2.7,8.6-3.3,2-13.7,4.5c-.4,0-.8.3-1.1.4l-11.7,5.5c-.3.2-.6.3-1,.5l-10.6,6.4c-.4.2-.7.4-1,.7l-7.3,5.7c-.9.7-1.6,1.5-2.2,2.4l-3.9,6c-1,1.6-1.6,3.4-1.6,5.3v7.8c-.1,1,0,1.9.2,2.9l1.4,5.1h-.2Z" />
    <path id="arrow_1" data-name="arrow 1" class="white"
      d="M303.6,647.7c1.7,1.9,4.2,2.9,6.8,2.9l19.2-.3c1.1,0,2.2-.2,3.2-.6l11.8-4.7c4.6-1.8,6.9-7.1,5-11.7-.6-1.6-1.7-2.9-3-3.9h0c.3-.4.6-.7.9-1.1v-.2c.1,0,1.6-1,1.6-1l6.2-3.6c.1,0,.2-.2.4-.2l5.1-3.3c.1,0,.2,0,.3-.2l5.1-3.5s.1,0,.2-.2l6.8-5c1.1-.8,2-1.8,2.7-2.9l2.4-3.9c.2-.3.4-.6.5-1l1.4-3.1c.4-.8.6-1.6.8-2.4l1-5.9c.3-1.9.1-3.9-.6-5.7l-1.2-2.7c-1.6-3.8-5.3-6.1-9.2-6.1s-2.6.3-3.9.8c-5.1,2.2-7.4,8-5.3,13.1l-.3,1.7-.7,1.5-1,1.7-5,3.7-4.8,3.3-4.8,3-6.3,3.7c-.2,0-.4.2-.5.3l-3.1,2.1c-.9.6-1.8,1.4-2.5,2.3l-.8,1-3.5,3.5-3.8-1.9c-.7-.3-1.5-.6-2.2-.8l-6.1-1.2c-.6,0-1.2-.2-1.7-.2-3.5,0-6.7,2-8.2,5.2l-3.4,7.4c-.4.9-.7,1.9-.8,2.9l-1,9.9c-.2,2.5.6,5.1,2.3,7h0v.3h0Z" />
  </g>
  <g id="usw">
    <path id="arrow_2-2" data-name="arrow 2" class="white"
      d="M178.5,103.5c-1.5-5.3-7-8.4-12.3-6.9s-8.4,7-6.9,12.3l1,3.7v3.5l-1.5,2.2-5.5,4.3-9.6,5.8-10.7,5-14.2,4.6c-.7.2-1.3.5-2,.9l-4.5,2.6-6.3-9.4c-2-3-5.6-4.6-9.2-3.9-3.6.7-6.4,3.4-7.1,7l-2.6,12c0,.6-.2,1.1-.2,1.7l-.2,7.9v.6l.2,6.5c.2,3.9,2.8,7.3,6.6,8.4l5.8,1.6,6.8,2.1,7.5,2.6c1,.3,2,.5,3,.5,2.3,0,4.6-.9,6.3-2.5,2.4-2.4,3.3-5.9,2.3-9.2l-2.7-8.6,3.3-2,13.7-4.5c.4-.1.8-.3,1.1-.4l11.7-5.5c.3-.1.6-.3.9-.5l10.6-6.4c.4-.2.7-.4,1-.7l7.3-5.7c.9-.7,1.6-1.5,2.2-2.4l3.9-6c1-1.6,1.6-3.4,1.6-5.3v-7.8c.2-1,0-1.9-.2-2.9l-1.4-5.1h.3,0Z" />
    <path id="arrow_1-2" data-name="arrow 1" class="white"
      d="M183.2,61.4c-1.7-1.9-4.2-2.9-6.8-2.9l-19.2.3c-1.1,0-2.2.2-3.2.6l-11.8,4.7c-4.6,1.8-6.9,7.1-5.1,11.7.6,1.6,1.7,2.9,2.9,3.9h0c-.3.3-.6.7-.9,1.1v.2c-.1,0-1.6,1-1.6,1l-6.2,3.6c-.1,0-.2.2-.4.2l-5.1,3.3s-.2,0-.3.2l-5.1,3.5-.2.2-6.8,5c-1.1.8-2,1.8-2.7,2.9l-2.3,3.9c-.2.3-.4.6-.5,1l-1.4,3.1c-.3.8-.6,1.6-.8,2.4l-1,5.9c-.3,1.9,0,3.9.7,5.7l1.2,2.7c1.6,3.8,5.3,6.1,9.2,6.1s2.7-.3,3.9-.8c5.1-2.2,7.4-8.1,5.3-13.1l.3-1.7.7-1.5,1-1.7,5.1-3.7,4.8-3.3,4.8-3,6.3-3.7c.2,0,.4-.2.5-.3l3.1-2.1c.9-.6,1.8-1.4,2.4-2.3l.8-1,3.6-3.6,3.8,1.9c.7.3,1.5.6,2.2.8l6.1,1.2c.6,0,1.2.2,1.7.2,3.4,0,6.7-2,8.2-5.2l3.4-7.4c.4-.9.7-1.9.8-2.9l1-9.9c.2-2.6-.6-5.1-2.3-7h0v-.2h-.1Z" />
  </g>
  <g id="sw">
    <path id="arrow_2-3" data-name="arrow 2" class="color"
      d="M275.8,353.1v-.5l-1.4-12.9c-.6-5.8-5.8-10-11.5-9.3-5.8.6-9.9,5.8-9.3,11.5l1.3,12.7.8,12.9-.2,9.5-5,5.1-6.6,5.2-8.6,5.9-7.9,3.4c-.5.2-.9.4-1.3.6l-9.2,4.8-15.9,7.1-9.4,3.1v-3.1c0-3-1.1-5.8-3.1-8l-.9-1c-1.5-1.7-3.5-3-5.7-3.6h-.3c-2.9-.9-6-.6-8.8.7-3,1.5-5.2,4.2-6.2,7.3l-.7,2.4-2.5,5-6.9,9.1-5.8,7.7c-.2.3-.4.6-.6.8l-1.2,1.9c-.3.5-.6,1-.9,1.5l-.6,1.3c-1.4,2.9-1.8,6.2-1.1,9.3.4,2,1.3,3.9,2.6,5.6l1,1.3c.4.5.8,1,1.3,1.5l.6.6c1.6,1.6,3.5,2.8,5.6,3.5l2,.6c3.2,1.1,6.5,1.5,9.9,1.5h5.9c0-.1,17.2.2,17.2.2h3.8l9.6-.5c4.8-.2,8.8-3.6,9.8-8.3,1-4.7-1.3-9.4-5.6-11.6l-8.5-4.2-2.4-1.8,8.5-2.8c.6-.2,1.2-.4,1.8-.7l16-7.1c.4-.2.7-.3,1.1-.5l9.2-4.8,8-3.4c1.1-.5,2.2-1.1,3.3-1.8l8.8-6c.4-.3.7-.5,1.1-.8l6.8-5.3c.6-.5,1.3-1.1,1.8-1.7l5.6-5.7c2.7-2.8,4.5-6.3,5.2-10.1.2-1,.3-2,.3-3l.2-10.3v-1.5l-.8-13.2h-.2Z" />
    <path id="arrow_1-3" data-name="arrow 1" class="color"
      d="M321.3,277.2c-1.3-3.6-4.5-6.2-8.3-6.8l-23.3-3.5-12.7-4.3-4-2.2c-3-1.7-6.5-2.1-9.8-1.3l-2.5.6c-4.9,1.2-8.3,5.7-8,10.8l.2,4.5c.1,2.6,1,5,2.5,7.1l4.2,5.9-3.9,2.2c-.5.3-.9.5-1.4.8l-8,5.2s-.1,0-.2.1l-8.2,5.7-5,3.3c-2,1.3-3.8,2.9-5.3,4.7l-5.1,6.1s-.1.2-.2.2l-11.4,11.4c-.8.8-1.5,1.6-2.2,2.5l-3.7,4.8c-.9,1.1-1.6,2.3-2.2,3.5l-2.7,5.3c-.7,1.4-1.3,3-1.8,4.5l-1.2,4.3c-.6,1.9-.9,3.9-.9,5.9v4c-.2,2.5,0,4.9.7,7.3.9,3.4,2.6,6.5,4.8,9.2l1.1,1.3c2.1,2.5,5.1,3.8,8.1,3.8s4.8-.8,6.7-2.5c4.4-3.7,5-10.4,1.3-14.8l-1.1-1.3c-.3-.4-.5-.8-.7-1.3,0-.3-.1-.7-.1-1v-4c.1-.3.2-.5.3-.8l1.2-4.3c0-.2.1-.4.2-.6l2.7-5.3c0-.2.2-.3.3-.5l3.7-4.8c0-.1.2-.2.3-.3l11.4-11.4c.5-.5,1-1.1,1.5-1.6l5-6c.2-.2.5-.5.7-.6l5.1-3.3s.1,0,.2-.1l8.2-5.7,7.9-5.2s.1,0,.2-.1l5.1-2.9,3.6,6.2h0c0,.1,1.7,2.9,1.7,2.9,1.6,2.6,4.2,4.4,7.2,4.9.6.1,1.1.1,1.7.1,2.4,0,4.8-.9,6.7-2.4l5.7-4.7c.1-.1.3-.2.4-.4l2.3-2.2c1.9-1.8,3.8-3.7,5.4-5.7l3-3.6c1.2-1.4,2.3-2.9,3.3-4.4l1.5-2.1c.9-1.3,1.8-2.5,2.8-3.6l2.5-2.9c2.5-2.9,3.3-6.9,2-10.5h.5,0Z" />
  </g>
</svg>