<?xml version="1.0" encoding="UTF-8"?>
<svg id="Card" xmlns="http://www.w3.org/2000/svg" version="1.1" viewBox="0 0 480.8 718">
  <defs>
    <style>
      .red,
      .green,
      .blue,
      .yellow,
      .black,
      .white {
        stroke-width: 0px;
      }

      .red {
        fill: #ff002c;
      }

      .green {
        fill: #3ce53e;
      }

      .blue {
        fill: #5190fc;
      }


      .yellow {
        fill: #ffad00;
      }

      .black {
        fill: #111;
      }

      .white {
        fill: #fff;
      }
    </style>
  </defs>
  <path id="white_outline" data-name="white outline" class="white"
    d="M326.8,294.6c-.8-.4-1.6-.6-2.5-.7-5-.3-10.2-1-15.8-1.8-7.3-1-14.8-2.1-22.2-2.2.3-20.4-2.6-49.8-38.7-51.3-22.5-1.3-40.9,5-51.7,17.7-9,10.6-12.4,25-10.2,41.9-14.4.4-27.2,6.7-35.4,17.6-.5.7-.9,1.5-1.1,2.4-4.6,19.2-5.8,40-6.8,60-.6,10.3-1.1,21-2.2,31-.1.5-.1.9,0,1.4.8,7.3,2.6,16.4,9.4,21.6,3.2,2.5,7.1,3.8,11.7,3.8s2.5-.1,3.8-.3c4.1-.3,8.4-.4,13.1-.6,6.4-.3,12.9-.5,19-1,1.4,24,12.2,38.4,30.7,40.3,3.6.5,7.1.7,10.2.7,10.9,0,19.2-2.8,25.2-8.3,8.3-7.7,11.6-20.3,10.5-39.6.1-4.6.2-8.3,0-11.2,1.7.1,3.4.1,5,.1,23.9,0,40.8-6.1,50.4-18.1.5-.6.8-1.3,1.1-2,2.3-6.9,3.2-14.3,4-21.4.8-6.6,1.5-12.8,3.3-18.3,0-.1.1-.3.1-.4,8.1-32.7,4.4-53.8-10.9-61.3h0ZM205.8,264.7c8.1-9.6,22.7-14.2,41.1-13.1h.1c21.7.9,26.5,13.8,26.3,38.7-5.7.6-10.7,2.7-14.8,6.2-11.4,9.8-13.2,28.2-14.2,42.9-1.5,0-3,.2-4.5.4-2.2.2-4.8.5-7.9.6-.8,0-1.6,0-2.4.1-5.7.1-12.2.3-17.8,2.5-3.8,1.5-6.8,3.9-8.7,6.9-.8-7.9-1.1-16.4-1.3-20.6-.2-5.3-.4-8.3-.6-10.2-.1-1.9-1-13.9-1-14.3h0c0-.4-.1-.7-.1-1-3.9-16.6-1.9-30,5.8-39.1h0ZM177.5,422.1c-4.8.2-9.3.4-13.6.7-.2,0-.4,0-.6.1-4,.6-5.4-.5-5.9-.9-3-2.3-4-9-4.3-12,1-10.2,1.6-20.8,2.2-31,1-19,2.1-38.6,6.2-56.3,6-7.3,15.4-11.4,25.9-11.4h.2l.6,9c0,.2,0,.4.1.6.2,1.3.4,5.2.5,9,1.2,28.7,3.2,43.1,11.1,47.5-.3,4.2-.7,8.5-1.1,13-.9,10.2-1.9,20.8-1.5,30.7-6.3.4-13.1.7-19.8,1h0ZM254.2,457.2c-4.7,4.4-12.9,5.8-24.9,4.2h-.2c-18.8-1.8-19.9-25.7-18.9-39.8v-.8c-.5-9.2.5-19.5,1.4-29.4.9-10.2,1.9-20.8,1.5-30.8-.1-5.3,2.3-7,16.7-7.3.9,0,1.7,0,2.5-.1,3.5-.1,6.5-.4,8.8-.6,1.3-.1,2.7-.3,3.8-.3.2,1.1.5,3.5.6,8.1,0,.3,0,.7.1,1,.9,5.7,1.2,12.7,1.5,19.4.3,7.1.6,14.4,1.6,20.7.2,1,.6,2,1.2,2.8,4.7,6.4,8.3,8.4,10.5,9.7,0,0,.1,0,.1.1.4,2.5.2,9.6.1,12.8v.5c.9,15.2-1.2,24.9-6.4,29.8h0ZM325,352.3c-2.1,6.7-3,13.7-3.8,20.6-.8,6.3-1.5,12.3-3.1,17.7-8.7,9.9-26,13.9-51.6,11.8h-.5c-1.2-.8-2.7-1.9-4.8-4.5-.7-5.3-1-11.5-1.2-17.6-.3-7-.6-14.2-1.6-20.5-.1-5.5-.4-9.8-1.6-13,0-.2.1-.4.1-.7l.2-2.8c.8-12.7,1.8-30.1,9.9-37.1,3-2.6,7-3.6,12.1-3.1h1.3c8.2-.9,17.5.5,26.4,1.7,5.1.7,10.3,1.5,15.4,1.9,7.6,5.2,8.8,22,2.8,45.6h0Z" />
  <g id="colors">
    <path id="blue" class="blue"
      d="M229.5,341.4c.8,0,1.6,0,2.4-.1,3.1-.1,5.7-.4,7.9-.6,1.5-.1,3-.3,4.4-.4h.9v-.9c1.1-15.5,3.1-32.8,13.9-42.2,4-3.4,8.8-5.4,14.3-6h.9v-1c.2-24.4-4.1-38.7-27.3-39.7-18.7-1.1-33.6,3.7-41.9,13.5-7.9,9.3-10,23-6.2,39.8.1.3.1.5.1.9s.9,12.5,1,14.4c.3,1.9.4,4.9.6,10.1.2,4.1.5,12.7,1.3,20.6l.3,2.9,1.6-2.4c1.9-2.9,4.7-5.1,8.2-6.5,5.6-2.2,11.9-2.3,17.6-2.4h0Z" />
    <path id="red" class="red"
      d="M189.6,329.7c-.2-4-.3-7.8-.5-9.1,0-.2,0-.3-.1-.5l-.7-9.9h-1.1c-10.8,0-20.4,4.3-26.6,11.8v.2c-.1,0-.2.2-.2.2-4.1,17.8-5.2,37.5-6.2,56.5-.6,10.2-1.1,20.8-2.2,31v.2c.8,6.6,2.4,10.9,4.7,12.7.4.4,1.6,1.3,4.4,1.3s1.4,0,2.3-.2h.5c4.3-.3,8.8-.5,13.6-.7,6.3-.3,13.4-.6,19.7-1.1h.9v-1.1c-.4-9.9.5-20.4,1.5-30.6.4-4.6.8-8.8,1.1-13v-.6l-.6-.3c-7.4-4.3-9.3-18.5-10.5-46.8h0Z" />
    <path id="yellow" class="yellow"
      d="M261.6,427c.1-3.4.2-10.4-.2-13l-.2-.5-.4-.2c-2.1-1.2-5.6-3.2-10.2-9.4-.5-.7-.9-1.5-1-2.4-1-6.3-1.3-13.6-1.6-20.6-.3-6.8-.6-13.8-1.5-19.6-.1-.3-.1-.6-.1-.8,0-3.9-.2-6.7-.6-8.3l-.2-.8h-.8c-1.1,0-2.6.2-3.8.3-2.4.2-5.3.5-8.8.6-.8,0-1.6,0-2.5.1-14.3.3-17.8,2-17.7,8.4.5,9.9-.5,20.4-1.5,30.6-.9,10-1.9,20.2-1.4,29.5v.7c-1,14.4.2,38.9,19.8,40.8h.2c3.2.4,6.2.6,8.9.6,7.6,0,13.2-1.7,16.9-5.1,5.4-5.1,7.6-15,6.7-30.4v-.5h0Z" />
    <path id="green" class="green"
      d="M322.6,305.9h-.2c0-.1-.3-.1-.3-.1-5.1-.4-10.3-1.1-15.3-1.8-9-1.3-18.2-2.6-26.6-1.7h-1c-5.4-.5-9.6.6-12.9,3.4-8.4,7.2-9.5,24.9-10.2,37.8l-.2,2.8c0,.2,0,.4-.1.6v.3c-.1,0,0,.2,0,.2,1,2.8,1.5,6.4,1.6,12.6h0c1,6.4,1.3,13.6,1.6,20.5.2,6.1.5,12.4,1.2,17.7v.3l.2.2c2.2,2.8,3.8,3.9,5.1,4.7h.2c0,.1.7.1.7.1,4.4.4,8.5.5,12.4.5,19.2,0,32.6-4.3,40-12.7v-.2c.1,0,.2-.2.2-.2,1.6-5.4,2.4-11.4,3.1-17.8.8-6.8,1.6-13.8,3.7-20.4h0c6.2-24.4,5-41.4-3.2-46.8h0Z" />
    <path id="black_cards_outline" data-name="black cards outline" class="black"
      d="M350.6,314.8v-7.1l-1.6-6.3-3.6-6-4-3.9-5.1-3.8-6.3-3.3-5.1-1.3-5.6-.9-6.6-.6-6-.3-5.7-.6-3.3-.7v-7.2l-1.6-6.1-1.1-5.6-1.5-5.4-2.6-6.1-3.3-6-4.3-5.1-5.5-3.5-7.9-3.2-7.2-2.7-6.2-1.1-5.9-.4-5.3-.5h-8l-12.7,2.2-4.4.9-8.1.9-8.3,4.1-7.4,2.8-6,4.5-2.9,4.8-3.6,5.6-3.7,6.6-1,5.7-1.3,5.2-2.7,7.3v5.9c.1,0,.1,3.9.1,3.9l-5.2,1.3-5.8,1.8-6.6,2.6-5.3,3.8-4.4,5-3.8,5.2-3.5,5.3-3,5.9-2.2,7.6-1.1,7.2v14.8l-.4,10.1-2,12.2-1,12v14.1c.1,0-.2,9.6-.2,9.6l-.8,12.2,1.4,9.4,4.2,7.7,6.3,8.6,8.2,3.2,11,.8,15.6-.8,10.7-.5.5,4.7,3.1,7.6,3.9,7.3,5.4,6.4,6.1,5.9,7.4,4.2,8.7,2.5,9.3.6h8.4l11.3-.8,9-1.5,6.3-3.4,6.5-5.8,3.5-5.7,3.6-7.8,2.2-7.5,1.1-6.8.7-7.6v-7.8l-.3-4.8,6.1-.7,9.3-.9,7.8-1,6.8-3.3,6.5-1.3,7.2-3.8,5.9-4.6,4.4-6.3,3.1-7.9,2-7.2,1.7-8.6.9-8.6,1.2-5.8,1.8-7.1,1.5-10.4.8-8,.5-8.5v-9.4l-1-8.1h0ZM325.1,394.7c-8.6,10.8-24.2,16.2-46.5,16.2s-3,0-4.8-.1l-5.4-.2.3,5.4c.1,2.6.1,6,0,10.9v.4c1,17.7-1.8,29-8.9,35.7-5,4.7-12.1,7-21.7,7s-6.2-.2-9.6-.7h-.1c-20.1-2-25.3-20.5-26.2-35.6l-.3-5.1-5.1.4c-6.1.5-12.9.8-18.9,1-4.6.2-9,.4-13.1.6h-.4c-4.8.7-8.7-.1-11.8-2.5-5.3-4.1-6.8-11.9-7.5-18.2v-.3c1.1-10.2,1.6-20.9,2.2-31.3,1.1-19.8,2.2-40.3,6.7-59.1.1-.2.1-.4.3-.5,7.2-9.5,18.7-15.2,31.6-15.6l5.5-.2-.7-5.5c-2-15.5,1.1-28.6,9.1-38,9.8-11.5,26.7-17.2,47.7-16,30.5,1.3,34.2,24.1,33.9,46.2v5.1c-.1,0,5,0,5,0,7.1,0,14.4,1.1,21.5,2.1,5.6.8,11,1.6,16.2,1.9.2,0,.4.1.6.1h0c16.3,8,13.4,34.6,8.1,55.5-1.9,6-2.7,12.4-3.5,19.3s-1.7,14-3.8,20.4c-.2.4-.3.6-.4.7h0Z" />
  </g>
</svg>