<?xml version="1.0" encoding="UTF-8"?>
<svg id="Card" xmlns="http://www.w3.org/2000/svg" version="1.1" viewBox="0 0 480.8 718">
  <defs>
    <style>
      .black {
        fill: #111;
      }

      .black,
      .white {
        stroke-width: 0px;
      }

      .white {
        fill: #fff;
      }
    </style>
  </defs>
  <path id="background" class="white"
    d="M460.4,515.7c0-31.1.4-75.4-4.4-105.9-.9-30-4.5-65.7-5.4-95.6,2.5-64.7-8.3-136.3,1.2-200.6,4.6-20.4,3.5-53.4,4.7-74.3l-.9-5.8c-1-1.4-2.7-4.5-3.6-6-3.4-2.5-8.4-4.6-12.6-4.2-5.2-1.5-12.8-3.3-17.8-5.4-7.5-.2-22.7-1.4-30.1-2.1l-17.1-.7c-6.5-1.9-21.7-3-28.5-3.4-29.6-2.5-73.7-1.7-103.4-1.8-42.4,1-123.5-4.1-164.7,4.2-9.6-.3-20.4,5.5-29.9,5.7-4.2,4.3-11.7,5.2-17.4,6-4.9,3.9-5.9,4.4-8.5,10-4,7.1-3,23.3-3.1,31.3-.6,24.8,1.5,66,1.4,90.9l1.6,10.6c-.3,43.5-1,109.1-2.3,152.4-1.2,19.9-1.1,50.6-3.2,70.4-1.7,10-2.1,26-2.7,36.3-1.6,1.5-1.9,49.2-2.1,52.2-.2,5.9-.8,25.2-2.1,30.8v26.7c1.7,7,1.8,17.5,3.2,24.5,1.6,1.9,1.7,5.1,2,7.3.7,1.3,1.8,4.2,2.3,5.7l.5,6.9,1.3,4.8.4,32.7c-1.5,9.8-2,29.9-1.7,39.9.4,1.1,3.2,4.1,4.2,5,2.4,4.5,7.1,10,10.5,13.8,2.8,1.1,6,2.9,8,5.2,1.5,2,5,5.2,7.1,6.6,6.4,1.7,13.5,4.4,20.1,5.3l7.3,2.4,11.3.5,5.5,2.1,8.4,1.1c5.9,1.3,13.2,2.6,18.8,4.6l5.2,1.5h18.2c6-1.1,17.7-2.8,23.8-3.3,14.6-.7,37.6-.9,51.9,1.4,5.4.3,79,.2,81.4,1.9,2.6,1.2,9.3,1.6,12.1,1.8h52.7c3.5-.9,10.7-1.7,14.3-1.8,4.3-.6,13.9-2,18.3-2.5l16.2-.5,11.1-2.3,8.1-.7,3.9-1.2c4.2-1,10.7-1.1,14.7-3.1l5.1-1.9,2.9-3.1,2.2-4c1-4.7,1.4-15.4,1.8-20.2l.8-12.4,2.4-5.8.8-5.2c1.7-5,3.2-12.4,4.4-17.5l.9-19.2-.2-18c-.6-2.6-1.3-8.1-1.9-10.7l-2.3-3-.9-6.6c-1.9-4.6-2.6-11.8-4-16.5-.9-9.6-2.8-27.9-2.2-37.2h0Z" />
  <path id="border" class="black"
    d="M154.6,9.1c26.5,0,53.5.8,74.7.8s9.1,0,13.2-.1h4.7c10.1,0,21.5-.1,33.3-.1,22.8,0,46.9.3,65.4,1.9,6.8.5,22,1.6,28.5,3.4l17.1.7c7.4.6,22.6,1.8,30.1,2,5,2.2,12.5,4,17.8,5.4h.9c4,0,8.5,2,11.7,4.3.9,1.5,2.6,4.6,3.6,6l.9,5.8c-1.2,20.9-.1,53.9-4.7,74.3-9.5,64.4,1.3,136-1.2,200.6.9,30,4.5,65.7,5.4,95.6,4.8,30.5,4.4,74.8,4.4,105.9-.6,9.3,1.2,27.6,2,36.7,1.4,4.8,2.1,11.9,4,16.5l.9,6.6,2.3,3c.7,2.6,1.4,8.1,1.9,10.7l.2,18-.9,19.2c-1.2,5.1-2.7,12.5-4.4,17.5l-.8,5.2-2.4,5.8-.8,12.4c-.5,4.8-.8,15.5-1.8,20.2l-2.2,4-2.9,3.1-5.1,1.9c-3.9,2-10.5,2.1-14.7,3.1l-3.9,1.2-8.1.7-11.1,2.3-16.2.5c-4.4.5-14,1.9-18.3,2.5-3.6,0-10.8,1-14.3,1.8h-52.7c-2.8-.2-9.5-.7-12.1-1.8-2.4-1.7-76-1.6-81.4-1.9-8.6-1.4-20.5-1.9-31.8-1.9s-14.3.2-20.1.5c-6,.5-17.7,2.2-23.8,3.3h-18.2l-5.2-1.5c-5.7-2-13-3.3-18.8-4.6l-8.4-1.1-5.5-2.1-11.3-.5-7.3-2.4c-6.6-.9-13.7-3.7-20.1-5.3-2.1-1.4-5.6-4.6-7.1-6.6-2-2.2-5.2-4.1-8-5.2-3.4-3.8-8.1-9.2-10.5-13.8-.9-.8-3.8-3.8-4.2-5-.3-10,.3-30.1,1.7-39.9l-.4-32.7-1.3-4.8-.5-6.9c-.5-1.4-1.7-4.3-2.3-5.7-.4-2.2-.4-5.4-2-7.3-1.5-7-1.5-17.5-3.2-24.5v-26.7c1.3-5.6,1.9-24.9,2.1-30.8.3-3,.5-50.8,2.1-52.2.6-10.2,1-26.2,2.7-36.3,2.1-19.7,1.9-50.5,3.2-70.4,1.3-43.3,2-108.9,2.3-152.4l-1.4-10c.1-24.9-2-66.1-1.4-90.9.1-8-.9-24.2,3.1-31.3,2.6-5.6,3.7-6.1,8.5-10,5.6-.8,13.2-1.7,17.4-6,9.3-.3,19.7-5.8,29.1-5.8h.8c19.5-3.9,47.8-4.9,76.8-4.9M154.6,0h0c-35.8,0-60.5,1.5-77.6,4.9-6.1,0-11.9,1.6-17.5,3.2-4.4,1.2-8.5,2.4-11.9,2.5h-3.8c0,.1-2.6,2.8-2.6,2.8-1.7,1.8-7.5,2.6-11,3.1l-1.1.2-2.5.4-1.9,1.6c-.5.4-.9.7-1.3,1-4.5,3.5-6.6,5.4-9.7,11.9-4.1,7.5-4.3,18.5-4.1,31.1v4.3c-.3,14,.2,32.8.7,51.1.4,14.9.8,28.9.7,39.9h.1c0,1.1.2,2.1.3,3.1l.6,3.6.7,4.6c-.2,30.1-.9,103.3-2.3,151.3-.5,8.1-.8,17.6-1.1,27.8-.4,14.9-.9,30.3-2.1,41.8-1.2,8-1.7,19-2.2,28.8,0,2.4-.2,4.7-.3,6.7-.8,3.1-1.1,8.1-1.4,17.4-.3,8.6-.5,18.9-.6,26.4,0,4.2-.2,8.6-.2,9.5v1.7c-.5,15.5-1.2,24.8-1.8,27.7l-.7,2.5.3,1v26.4l.3,1.1c.8,3,1.2,7.5,1.6,11.7.4,4.3.8,8.7,1.6,12.4l.5,2.3,1,1.2c0,.5.2,1.2.3,1.7,0,.6.2,1.2.3,1.8v1.5l.8,1.3c.3.6.9,2.1,1.4,3.4l.4,5.6v.8c.1,0,.3.8.3.8l1,3.7.3,30.9c-1.5,10.8-2,30.8-1.7,40.8v1.3l.4,1.3c1,2.9,3.9,6.1,5.6,7.8,2.3,3.9,5.9,8.5,11,14.2l1.5,1.6,2,.8c2,.8,3.7,1.9,4.4,2.6,2.2,2.7,6.2,6.3,9,8.2l1.3.8,1.5.4c2,.5,4.2,1.2,6.4,1.9,4.5,1.4,9.1,2.8,13.8,3.5h.4l2.5.9,3.7,1.2,1.2.4h1.3l9.8.5,4.1,1.6,1,.4h1.1l8,1.1c.9.2,1.9.4,2.9.6,4.8,1,10.3,2.2,14.4,3.6h0c.2,0,.4,0,.6.2l.6.2,1.8.5,2.6.8,1.3.4h20.4l.8-.2c5.9-1.1,17.1-2.6,22.7-3.2,6.1-.3,13-.5,19.4-.5,12.7,0,23.2.6,30.3,1.8h1c1.6,0,6.9,0,17.7.2,16.5,0,54.5.4,61.3,1.3,3.1,1.2,7.4,1.7,13.4,2.2h.8c.4,0,.9.2,1.3.2h53.2l1.1-.3c2.6-.7,9.2-1.5,12.4-1.6h1l1.4-.3c4.4-.6,12.3-1.8,16.3-2.2,2.4,0,15.8-.5,15.8-.5h.8l.8-.2,10.6-2.2,7.6-.7h1l1-.4,3.5-1.1c1-.2,2.5-.4,4-.7,3.9-.5,8.2-1.2,12-3,1-.4,2.5-.9,4.5-1.7l1.9-.7,1.4-1.5,2.9-3.1.8-.9.6-1.1,2.2-4,.6-1.1.3-1.3c.9-3.9,1.3-10.2,1.6-15.7.1-2.2.3-4.2.4-5.5l.5-5h-.1c.1-2.3.3-4.7.4-6.2l1.8-4.4.4-1,.2-1.1.6-4.3c1.3-3.9,2.4-8.6,3.3-12.8.4-1.7.7-3.3,1.1-4.6h-.1c.2-.8.3-1.6.4-2.6v-2.2c.1,0,.4-6.6.4-6.6l.5-9.6v-.6l-.2-18v-1l-.2-.9c-.2-.9-.5-2.5-.7-4.1-.4-2.2-.7-4.5-1.1-6.3-.4-2-1.5-3.5-2.6-5l-.6-4.2-.2-1.1-.4-1c-.8-1.9-1.4-5.3-2-8.2-.4-2.2-.9-4.5-1.4-6.5-.1-1.4-.2-2.9-.4-4.6-.8-9.1-2-23-1.5-29.9v-5.7c.1-30.5.2-72.1-4.4-101.7-.5-15-1.6-31.5-2.7-47.5s-2.2-32.5-2.7-47.3c1-25.8-.1-53-1.2-79.3-1.6-40.2-3.3-81.7,2.2-119.8,3.4-15.2,3.8-36.2,4.2-54.7.2-7.6.3-14.8.6-20.8l.6-10.9-2.6.3-.6-.9c-.5-.7-1.6-2.7-2.3-3.9-.3-.6-.6-1.1-.9-1.5l-1-1.6-1.5-1.1c-5.1-3.8-11.4-6-16.9-6.1-.9-.2-1.8-.5-2.7-.7-4.4-1.2-9.4-2.5-12.6-3.9l-1.6-.7h-1.8c-7.2-.3-22-1.5-29.6-2.1h-3l-5.9-.3-7.2-.2c-6.8-1.7-18.5-2.7-29.1-3.5-19.4-1.7-44.3-1.9-66.1-1.9h-38.2c-3.8.1-8.1.1-13,.1-9.9,0-21.2-.2-33.1-.4-13.7,0-27.7-.2-41.8-.2h0Z" />
  <path id="color_background" data-name="color background" class="black"
    d="M443.3,560.9l-1.7-13.9-1.2-12.3c0-.7-.2-1.5-.3-2.2l-1.8-9.6-1.7-8.1c-.2-.6-.3-1.2-.5-1.8l-1.5-5.2c-.2-.9-.5-1.7-.6-2.6l-1.4-8.3-1.1-6c-.1-.5-.1-1-.2-1.5l-1.1-8.8v-1.8l-.7-16.1-1.3-17.2-1-11.3c-.1-1.3-.4-2.6-.7-3.9l-.5-1.8c-.5-2-.8-4-.8-6v-21.4l-1.6-32.4v-26.5l4.3-86.2h0l.6-15.5v-.6l-.5-23c0-.4,0-.8-.1-1.3l-1.5-11.3v-19.8c-.1,0-.1-7.8-.1-7.8,0-.5,0-1.1.1-1.6l.9-6.5c.1-.5.1-1,.1-1.5v-8.1l-.4-8.3c0-.8-.2-1.5-.4-2.3l-1-3.8c-.1-.3-.2-.6-.3-.9l-1.2-3.4c-.1-.3-.2-.6-.4-.9-.6-1.3-2.4-5.1-2.4-5.2v-5.4c0-.3,0-.6.1-.9l.7-6.3v-1.3l-.4-24.3c0-1.2-.2-2.3-.6-3.4l-.2-.7c-.2-.5-.4-.9-.6-1.4l-1.5-3c-.4-.7-.8-1.4-1.3-2l-1.6-2c-.3-.4-.7-.8-1.1-1.2l-2.8-2.7c-.3-.2-.5-.5-.8-.7l-3.8-3-2.9-2.3c-.6-.5-1.3-.9-2-1.2l-2.9-1.4c-.9-.4-1.7-1-2.4-1.6l-1.9-1.7c-.2-.2-.4-.4-.6-.5l-4.5-3.4c-.2-.2-.5-.4-.8-.5l-5.1-3.3c-.2,0-.5-.3-.7-.4l-5.4-2.9-7.3-3.8c-.4-.2-.8-.4-1.2-.5l-5-1.9c-.2,0-.4,0-.6-.2l-7.9-2.5-7.2-2c-.4,0-.8-.2-1.1-.2l-7.8-1.3c-.2,0-.5,0-.7,0l-9.5-.9-16.7-.8-25.6-.4-40.1.4h-1.1l-8.6,1h-1.2l-37.2.2h-1.1l-13.5-1.2h-.8l-7.2-1.2h-.6l-6.9-1.5c-.4,0-.8-.2-1.2-.2l-8.8-.9c-.4,0-.8,0-1.2-.2l-7.5-1.6-6.6-1.9c-.2,0-.5,0-.7,0l-8.2-1.2h-2.2l-4.7.3c-.7,0-1.4.2-2.1.3l-7.8,2c-.4,0-.7.2-1.1.2l-5.8.9c-.4,0-.8,0-1.2.2l-6.4,1.7-5.5,1.6c-.7.2-1.5.4-2.2.4l-9.1.8c-.8,0-1.7.2-2.5.5l-5.3,1.7-1.5.6-3.9,1.9c-1.2.6-2.2,1.3-3.1,2.2l-2.4,2.5-3.6,3.6c-.4.4-.8.8-1.1,1.2l-2.8,3.6-.6.9-2.7,4.3c-.4.6-.7,1.2-1,1.9l-1.3,3.4c-.3.9-.5,1.8-.7,2.7l-1,9.1c0,.6,0,1.2,0,1.7l1.9,43.8v.6l-.7,50.1v.8l-3,34.7-3.3,23.7c0,.3,0,.6,0,.9l-1.5,28-.6,24.6-.2,32.3.2,17.3-1.7,53-1.6,60.1v2.7c0,.9-.2,1.9-.4,2.8l-1.2,7.2-1.6,8.2c-.2.7-.3,1.4-.5,2l-2.8,9.8c-.3.9-.5,1.9-.6,2.8l-1.3,8.7c0,.9-.2,1.8-.2,2.7l-.7,19.1v1.3l.5,27,1.4,18.8c0,.4,0,.8,0,1.2l1.7,14.1c.2,1.8.7,3.6,1.3,5.3l2.2,5.9,3.7,9,2.9,6.5c.6,1.3,1.3,2.5,2.1,3.7l3.3,4.7c.3.5.7.9,1,1.3l.6.7c2,2.5,3.5,5.3,4.3,8.4.3,1.1.7,2.2,1.2,3.3l.3.8c1,2.2,2.3,4.2,3.9,6l.9,1.1c.4.5.9,1,1.4,1.5l3.3,3.2c.7.7,1.4,1.3,2.1,1.8l2.6,1.9c1.6,1.2,3.3,2.2,5.1,2.9l5.4,2.2c.5.2,1.1.4,1.6.6l10.3,3.4,12.2,3.6,12.2,4.3c1.5.5,3.1.9,4.8,1.1l11.1,1.4h1.7l21.6,1.1c.7,0,1.4,0,2.1.2l16.4,2.3c1,0,2.1.2,3.1.2l98.4.5c1.1,0,2.1,0,3.1.2l8.9,1.2c1.1,0,2.1.2,3.2.2h30.6l28-.4h1.2l13.3-.9h1.4l9.9-1.3,9.1-1.7,7.4-1.6c1.5-.3,2.9-.7,4.3-1.3l4.6-2,6.8-3.3c1.7-.9,3.3-1.9,4.8-3.1l3-2.5c1.1-.9,2.1-1.9,3-3l1.1-1.3c1-1.3,1.9-2.6,2.7-4.1l1.2-2.2c.4-.6.7-1.3,1-2l1.9-4.6c.2-.6.4-1.1.6-1.7l1.6-4.9,1-3.6c.4-1.5,1-3.1,1.8-4.5l.3-.6c.6-1.1,1.1-2.3,1.5-3.5l1.2-3.7c.8-2.4,1.1-5,1.1-7.6v-6.2c-.1-1-.1-1.9,0-2.9l.9-8c.1-.5.1-.9.2-1.4l1.4-8.6c.2-.8.3-1.7.3-2.5l.7-12.6c0-1.3,0-2.7-.1-4.1h0Z" />
  <path id="cutout" class="white"
    d="M426.4,249.5c0-.3-.1-.6-.2-.9l-1.1-3.6c0-.4-.3-.7-.4-1.1l-.8-2c-.3-.7-.7-1.4-1.1-2l-3-4.3-3.6-5.2c-.2-.3-.4-.6-.6-.8l-3.3-4c-.3-.3-.6-.6-.9-.9l-4.5-4.2c-.2-.2-.4-.4-.6-.6l-5-4.1-7.7-5.8c-.2-.2-.3-.3-.5-.4l-4.4-2.9c-.3-.2-.5-.4-.8-.5l-7.6-4.2c-.2-.2-.5-.3-.7-.4l-6.7-3.1c-.3,0-.5-.2-.8-.3l-7.6-2.8-6.6-2.3c-.3-.1-.6-.2-.9-.3l-5.1-1.3c-.2,0-.4,0-.6-.2l-4.2-1.4c-.8-.3-1.5-.4-2.3-.5l-7.6-.8-8.3-1c-.5-.1-1-.1-1.5-.1l-34.8.7h-1.1l-12.8,1.6-12.1,1.5h-.7l-5.3,1c-.2,0-.5.1-.7.1l-5.8.7h-.7l-10.8.6c-1.3,0-2.6.4-3.8.9l-1.2.5c-1,.5-2.1.8-3.2.9l-10.7,1.2-14.6,2.1c-1.4,0-2.6.6-3.8,1.2l-2.5,1.4-3.6,1.8c-.4.3-.9.5-1.3.8l-2.5,1.7c-.4.3-.8.5-1.2.7l-4.5,2.3c-.4.2-.7.5-1.1.7l-4.3,2.9c-.4.2-.9.5-1.3.7l-5.3,2.6c-.2,0-.4.2-.6.3l-5.5,2.4c-.4.2-.8.4-1.2.6l-7.3,4.2c-.2.2-.5.3-.7.4l-6.7,3.2c-.5.2-.9.4-1.3.7l-5.3,3.5c-.4.3-.8.5-1.2.7l-7,3.4c-.3.2-.5.3-.8.4l-4.1,1.6c-.6.2-1.2.5-1.8.9l-3.4,2.1c-.3.2-.6.3-.9.5l-2.2,1.1c-.2.2-.5.3-.8.4-1.7.6-3.1,1.7-4.3,3l-.4.5c-.2.3-.5.6-.7.8l-4.1,3.9c-.2.2-.4.3-.6.5l-6.8,5.6-7.2,5.9-7.3,6.2c-.3.2-.5.4-.7.6l-6.4,6.4c-.3.2-.5.4-.7.7l-5.3,6.4c0,.2-.3.4-.4.5l-5.1,5.4s-.3.3-.4.4l-4.8,4.6c-.3.2-.5.4-.7.6l-5.1,4.2-4,3.2c-.7.6-1.3,1.2-1.9,2l-3.1,4.2c-.4.5-.7,1.1-1,1.6l-3.6,7c-.3.6-.6,1.4-.8,2.1l-1.1,3.9c-.3.9-.4,1.9-.4,2.9v6.6c0,1.8-.4,3.7-1.3,5.3l-4.5,5.5-2.3,108.1,5.6,13.7c.6,1.5,1.4,3,2.3,4.4l5,7.3,7.2,11.4,3.4,5.2c1.1,1.6,2.4,3.1,3.8,4.5l6.2,5.6c.5.4,1,.9,1.5,1.2l3.1,2.3c.7.5,1.3,1,2.1,1.4l5.2,3.1,8.8,5.4c.9.5,1.8,1,2.8,1.5l7.2,3.2c1.1.5,2.3.9,3.5,1.2l5.1,1.3c1.7.5,3.4.7,5.2.8l9.4.3,21.3.7,29.1.4h29.9c.6,0,1.3,0,1.9-.2l9.6-.8c.9,0,1.7-.2,2.5-.4l7.6-1.5c1.5-.3,3-.8,4.4-1.3l6.4-2.7c.6-.2,1.2-.5,1.8-.7l4.3-1.4c1.4-.5,2.9-.8,4.3-1l5.9-.7c1,0,2-.3,3-.6l5.5-1.4,6.2-1.9c1.4-.4,2.8-1,4-1.6l5.5-2.8c.8-.4,1.5-.8,2.2-1.3l5.8-3.9c.6-.4,1.2-.8,1.7-1.3l6.7-5.5,7.5-5.5c.5-.4,1.1-.8,1.7-1.1l6.4-3.9,9.8-5.7c.6-.4,1.2-.7,1.9-1l9.3-4.4,5.5-2.6c.9-.4,1.8-.9,2.7-1.5l5-3.2c.7-.5,1.4-1,2-1.5l4.6-3.7c.8-.6,1.5-1.3,2.2-2.1l3.7-3.9c.3-.4.7-.7,1-1l5.1-4.7c1-.9,1.8-1.8,2.6-2.9l4.7-6.1c.5-.6.9-1.3,1.4-2l9.7-15.7c.5-.8.9-1.6,1.3-2.4l4.4-9.3,5.6-12.4,5.7-12.3,5.7-11.7,4.4-9.6,4.7-11,3.6-9.5c.2-.5.4-.9.5-1.4l4.3-9.6,2.4-76.7-1.9-7.5v.4h0Z" />
</svg>