<?xml version="1.0" encoding="UTF-8"?>
<svg id="Card" xmlns="http://www.w3.org/2000/svg" version="1.1" viewBox="0 0 480.8 718">
  <defs>
    <style>
      .white {
        fill: #fff;
        stroke-width: 0px;
      }
    </style>
  </defs>
  <path id="l0" class="white"
    d="M339.1,587c1.2,0,2.5.2,3.7.5l3.8,1c2.3.6,4.5,1.8,6.2,3.5l2,1.9c1.3,1.3,2.4,2.7,3.2,4.4l1.8,3.9c.6,1.3,1,2.7,1.2,4.1l.8,5.3c.1.4.1.8.1,1.2l.4,7.1c.1,1.1,0,2.1-.2,3.2l-.8,4.7c0,.3-.1.6-.2.9l-1.3,5.6c-.2.8-.5,1.7-.8,2.5l-2,4.7c-.4,1-.9,1.9-1.6,2.8l-2.1,2.9c-1.2,1.6-2.6,3-4.3,4l-2.9,1.7c-1.8,1.1-3.8,1.7-5.8,1.9l-3.3.3h-5c-4.4.2-8.7-1.8-11.5-5.2-1.1-1.3-1.9-2.8-2.4-4.4l-1.3-3.7c-.1-.3-.2-.7-.3-1l-1.3-4.8c-.1-.6-.3-1.2-.4-1.8l-1-7.2v-.2l-.8-7.4c-.1-1.4-.1-2.9.2-4.3l1.4-7c.1-.8.4-1.5.6-2.2l1.4-3.8c.6-1.7,1.5-3.2,2.6-4.5l3-3.4c.7-.8,1.6-1.6,2.5-2.3l2.5-1.8c1.8-1.3,3.9-2.2,6-2.5l3.5-.6h2.4,0ZM335.5,643h.2l3.3-.3c.4,0,.7-.2,1-.3l2.9-1.7c.3-.2.5-.4.7-.7l2.1-2.9c.1,0,.2-.3.3-.5l2-4.7c.1,0,.1-.3.1-.4l1.3-5.7.8-4.7v-.5l-.4-7.1v-.2l-.8-5.3c0-.2-.1-.5-.2-.7l-1.8-3.9c-.1-.3-.3-.5-.5-.7l-2-1.9c-.3-.3-.6-.5-1-.6l-3.8-1h-1l-3.5.6c-.4,0-.7.2-1,.4l-2.5,1.8c-.1,0-.3.2-.4.4l-3,3.4c-.2.2-.3.5-.5.8l-1.4,3.8s-.1.2-.1.4l-1.4,7c0,.2-.1.5,0,.7l.8,7.3,1,7.1s0,.2.1.3l1.3,4.8v.2l1.3,3.7c.1.3.2.5.4.7.5.6,1.2.9,1.9.9l3.8-.5h0Z" />
  <path id="u0" class="white"
    d="M140.1,127.4c-1.2,0-2.5-.2-3.7-.5l-3.8-1c-2.3-.6-4.5-1.8-6.2-3.5l-2-1.9c-1.3-1.3-2.4-2.7-3.2-4.4l-1.8-3.9c-.6-1.3-1-2.7-1.2-4.1l-.8-5.3v-1.2l-.4-7.1c0-1.1,0-2.1.2-3.2l.8-4.7c0-.3,0-.6.2-.9l1.3-5.6c.2-.8.5-1.7.8-2.5l2-4.7c.4-1,.9-1.9,1.6-2.8l2.1-2.9c1.2-1.6,2.6-3,4.3-4l2.9-1.7c1.8-1.1,3.8-1.7,5.8-1.9l3.3-.3h5c4.4-.2,8.7,1.8,11.5,5.2,1.1,1.3,1.9,2.8,2.4,4.4l1.3,3.7c.1.3.2.7.3,1l1.3,4.8c.1.6.3,1.2.4,1.8l1,7.2v.2l.8,7.4c.1,1.4.1,2.9-.2,4.3l-1.4,7c-.1.8-.4,1.5-.6,2.2l-1.4,3.8c-.6,1.7-1.5,3.2-2.6,4.5l-3,3.4c-.7.8-1.6,1.6-2.5,2.3l-2.5,1.8c-1.8,1.3-3.9,2.2-6,2.5l-3.4.6h-2.6ZM143.7,71.4h-.2l-3.3.3c-.4,0-.7.2-1,.3l-2.9,1.7c-.3.2-.5.4-.7.7l-2.1,2.9c-.1,0-.2.3-.3.5l-2,4.7c-.1,0-.1.3-.1.4l-1.3,5.7-.8,4.7v.5l.4,7.1v.2l.8,5.3c0,.2.1.5.2.7l1.8,3.9c.1.3.3.5.5.7l2,1.9c.3.3.6.5,1,.6l3.8,1h1l3.4-.6c.4,0,.7-.2,1-.4l2.5-1.8c.1,0,.3-.2.4-.4l3-3.4c.2-.2.3-.5.4-.8l1.4-3.8s.1-.2.1-.4l1.4-6.9c.1-.2.1-.5,0-.7l-.8-7.3-.9-7.1s0-.2-.1-.3l-1.3-4.8s0,0-.1-.2l-1.3-3.7c-.1-.3-.2-.5-.4-.7-.5-.6-1.2-.9-1.9-.9l-3.6.3h0Z" />
</svg>