<?xml version="1.0" encoding="UTF-8"?>
<svg id="Card" xmlns="http://www.w3.org/2000/svg" version="1.1" viewBox="0 0 480.8 718">
  <defs>
    <style>
      .white {
        fill: #fff;
        stroke-width: 0px;
      }
    </style>
  </defs>
  <path id="l1" class="white"
    d="M324.8,587.3c3.2,0,5.9,2.5,6,5.7v3c.1,0,.1.4.1.4l-.2,10.1.6,11.4v.2l.3,14.2v3.9c.1,0,11.2-10.8,11.2-10.8l9.2-9.2c2.3-2.3,6.1-2.3,8.5,0s2.3,6.1,0,8.5l-9.3,9.3-20.8,20.3c-1.7,1.7-4.2,2.2-6.4,1.3-2.2-.9-3.7-3-3.8-5.3l-.6-17.5h0l-.3-14.2-.6-11.5v-.5l.3-10.1v-2.8c-.2-3.3,2.3-6.1,5.6-6.2,0-.2.1-.2.2-.2h0Z" />
  <path id="u1" class="white"
    d="M154.4,127.1c-3.2,0-5.9-2.5-6-5.7v-3c-.1,0-.1-.4-.1-.4l.2-10.1-.6-11.4v-.2l-.3-14.2v-3.9c-.1,0-11.2,10.8-11.2,10.8l-9.2,9.2c-2.3,2.3-6.1,2.3-8.5,0s-2.3-6.1,0-8.5l9.3-9.3,20.8-20.3c1.7-1.7,4.2-2.2,6.4-1.3s3.7,3,3.8,5.3l.6,17.5h0l.3,14.2.6,11.5v.5l-.3,10.1v2.8c.2,3.3-2.3,6.1-5.6,6.2,0,.2-.1.2-.2.2h0Z" />
</svg>