<?xml version="1.0" encoding="UTF-8"?>
<svg id="Card" xmlns="http://www.w3.org/2000/svg" version="1.1" viewBox="0 0 480.8 718">
  <defs>
    <style>
      .white {
        fill: #fff;
        stroke-width: 0px;
      }
    </style>
  </defs>
  <path id="l2" class="white"
    d="M322.8,598.9l3.5.9h.2l3.9.9,4.2,1.2-2.6,4.1c-.3.5-.5,1-.7,1.5l-2.4,7.6c-.1.3-.1.5-.2.8l-1,6.5v.4l-.6,7.2v6.4c0,.4,0,.8.1,1.1l.9,4.8c.1.6.3,1.1.6,1.7l1.7,3.3c.5.9,1.1,1.6,2,2.2l3.3,2.2c1,.7,2.2,1,3.4,1h2.9c.6,0,1.2,0,1.7-.3l4.3-1.3c.2,0,.4,0,.6-.2l3.6-1.6c3-1.3,4.5-4.8,3.1-7.9s-4.8-4.5-7.9-3.2l-3.4,1.4-3.1,1h-.1l-.5-.3-.6-1.1-.6-3.4v-5l.6-6.7.9-5.9,2-6.4,2.4-3.8,1.8-1.7,2.8-.8h2.4c3.2,0,5.8-2.5,6-5.7s-2.2-6-5.4-6.3l-7.1-.7-5.8-1.8-6.1-1.8h-.4l-4-.9-3.4-.9c-.5,0-1-.2-1.5-.2-2.7,0-5.1,1.8-5.8,4.5-.9,3.1,1,6.4,4.3,7.3h0Z" />
  <path id="u2" class="white"
    d="M156.4,115.5l-3.5-.9h-.2l-3.8-.9-4.2-1.2,2.6-4.1c.3-.5.5-.9.7-1.5l2.4-7.6c.1-.3.1-.5.2-.8l1-6.5s0-.3.1-.4l.6-7.2v-6.4c0-.4,0-.8-.1-1.1l-.9-4.8c-.1-.6-.3-1.1-.6-1.7l-1.7-3.3c-.5-.9-1.1-1.6-1.9-2.2l-3.3-2.2c-1-.7-2.2-1-3.4-1h-2.9c-.6,0-1.2,0-1.7.3l-4.3,1.3c-.2,0-.4,0-.6.2l-3.6,1.6c-3.1,1.3-4.5,4.8-3.1,7.9,1.3,3.1,4.8,4.5,7.9,3.2l3.4-1.4,3.1-.9h.1l.5.3.6,1.1.6,3.4v5l-.6,6.7-.9,5.9-2,6.4-2.4,3.8-1.8,1.7-2.8.8h-2.4c-3.2,0-5.8,2.5-6,5.7s2.2,5.9,5.4,6.3l7.1.7,5.8,1.8,6.1,1.8h.4l3.9.9,3.4.9c.5,0,1,.2,1.5.2,2.7,0,5.1-1.8,5.8-4.5.7-3.3-1.2-6.5-4.5-7.4h0Z" />
</svg>