<?xml version="1.0" encoding="UTF-8"?>
<svg id="Card" xmlns="http://www.w3.org/2000/svg" version="1.1" viewBox="0 0 480.8 718">
  <defs>
    <style>
      .white {
        fill: #fff;
        stroke-width: 0px;
      }
    </style>
  </defs>
  <path id="l3" class="white"
    d="M339.1,584.7c.5,0,1,0,1.4.2l6.9,1.7c1.3.3,2.5,1.1,3.3,2.1l4.6,5.9c2,2.6,1.6,6.4-1,8.4s-6.4,1.6-8.4-1l-3.3-4.2-4-1-6.6.4-5,1.7-2.7,2.5-1.6,3.3-.3,4.6,1.3,4.7,1.3,1.4,4.5.7c2.5.4,4.5,2.3,5,4.9.5,2.5-.7,5-2.9,6.3l-4.1,2.3-1.3,2.7.3,3.8,2.4,3.7,3.5,3.4,2.3.8,6.1-.4,4-1.3,4-3.2,1.6-4c1.2-3.1,4.7-4.5,7.8-3.3s4.5,4.7,3.3,7.8l-2.2,5.5c-.4,1-1,1.8-1.9,2.5l-6.1,4.8c-.6.5-1.2.8-1.9,1l-5.7,1.8c-.5.2-1,.2-1.4.3l-8.1.5c-.8,0-1.6,0-2.4-.3l-4.7-1.7c-.8-.3-1.5-.8-2.1-1.3l-5-4.8c-.3-.3-.6-.7-.9-1.1l-3.5-5.6c-.5-.8-.8-1.8-.9-2.7l-.5-6.9c-.1-1.1.1-2.1.6-3.1l2.2-4.4-2.8-2.9c-.7-.7-1.2-1.6-1.5-2.6l-2-7.2c-.2-.6-.2-1.3-.2-1.9l.4-6.8c0-.8.2-1.6.6-2.3l2.6-5.3c.3-.7.8-1.2,1.3-1.7l4.4-4.2c.6-.6,1.4-1,2.2-1.3l7-2.3c.5-.2,1-.3,1.5-.3l8.4-.5h.2Z" />
  <path id="u3" class="white"
    d="M140.1,129.7c-.5,0-1-.1-1.4-.2l-6.9-1.7c-1.3-.3-2.5-1.1-3.3-2.1l-4.6-5.9c-2-2.6-1.6-6.4,1.1-8.4,2.6-2,6.4-1.6,8.4,1.1l3.3,4.2,4,1,6.6-.4,5.1-1.7,2.7-2.5,1.6-3.3.3-4.6-1.3-4.7-1.3-1.4-4.6-.7c-2.5-.4-4.5-2.3-5-4.9-.4-2.5.7-5,2.9-6.3l4.1-2.3,1.3-2.7-.3-3.8-2.4-3.7-3.5-3.4-2.3-.8-6.1.4-4,1.3-4,3.2-1.6,4c-1.2,3.1-4.7,4.6-7.8,3.3-3.1-1.2-4.6-4.7-3.3-7.8l2.2-5.5c.4-1,1-1.8,1.9-2.5l6.1-4.8c.6-.5,1.2-.8,1.9-1l5.7-1.8c.5-.2.9-.2,1.4-.3l8.1-.5c.8,0,1.6,0,2.4.3l4.7,1.7c.8.3,1.5.8,2.1,1.3l5,4.8c.3.3.6.7.9,1.1l3.5,5.6c.5.8.8,1.8.9,2.7l.5,6.9c.1,1.1-.1,2.1-.6,3.1l-2.2,4.4,2.8,2.9c.7.7,1.2,1.6,1.5,2.6l2,7.2c.2.6.2,1.3.2,1.9l-.4,6.8c-.1.8-.2,1.6-.6,2.3l-2.6,5.3c-.3.7-.8,1.2-1.3,1.7l-4.4,4.2c-.6.6-1.4,1.1-2.2,1.3l-7,2.3c-.5.2-1,.3-1.5.3l-8.4.5h-.3,0Z" />
</svg>