<?xml version="1.0" encoding="UTF-8"?>
<svg id="Card" xmlns="http://www.w3.org/2000/svg" version="1.1" viewBox="0 0 480.8 718">
  <defs>
    <style>
      .white {
        fill: #fff;
        stroke-width: 0px;
      }
    </style>
  </defs>
  <path id="l4" class="white"
    d="M323.1,621c1.3.2,2.9.4,4.6.6l-.7,6.2c-.4,3.6,2.2,6.8,5.8,7.2,3.6.4,6.8-2.2,7.2-5.8l.7-6.1c1.1,0,2.2.2,3.3.3l-1.5,9.2-4.1,12.6c-1.1,3.4.7,7.1,4.1,8.2s7.1-.7,8.2-4.2l4.3-13.1c.1-.3.2-.7.2-1l2.6-16.6c.3-1.8-.2-3.6-1.3-5.1-1.1-1.4-2.8-2.3-4.6-2.4-2.6-.2-6.3-.5-10.3-1v-8.2c.1,0,.6-6.7.6-6.7.2-3.6-2.5-6.7-6-6.9h-.5c-3.4,0-6.2,2.6-6.5,6l-.5,7v7.3c-1.4-.2-2.6-.3-3.7-.5h-.9c-3.2,0-6,2.3-6.4,5.6-.6,3.7,1.9,7,5.4,7.5h0Z" />
  <path id="u4" class="white"
    d="M156.1,93.4c-1.3-.2-2.9-.4-4.6-.6l.7-6.2c.4-3.6-2.2-6.8-5.8-7.2-3.6-.4-6.8,2.2-7.2,5.8l-.7,6.1c-1.1,0-2.2-.2-3.3-.3l1.5-9.2,4.1-12.6c1.1-3.4-.7-7.1-4.1-8.2-3.4-1.1-7.1.7-8.2,4.1l-4.3,13.1c0,.3-.2.7-.2,1l-2.6,16.6c-.3,1.8.2,3.6,1.3,5.1,1.1,1.4,2.8,2.3,4.6,2.4,2.6.2,6.3.5,10.3,1v8.2c-.1,0-.6,6.7-.6,6.7-.2,3.6,2.4,6.7,6,6.9h.5c3.4,0,6.2-2.6,6.5-6l.5-6.9v-7.3c1.5.2,2.7.3,3.8.5h.9c3.2,0,6-2.3,6.4-5.6.5-3.7-1.9-7-5.5-7.5h0Z" />
</svg>