<?xml version="1.0" encoding="UTF-8"?>
<svg id="Card" xmlns="http://www.w3.org/2000/svg" version="1.1" viewBox="0 0 480.8 718">
  <defs>
    <style>
      .white {
        fill: #fff;
        stroke-width: 0px;
      }
    </style>
  </defs>
  <path id="l5" class="white"
    d="M335.8,584.8h4.5c5.5.2,10.8,2.4,14.8,6.2l2.6,2.5c2.4,2.3,2.5,6.1.2,8.5s-6.1,2.5-8.5.2l-2.6-2.5c-1.9-1.8-4.3-2.7-6.8-2.8h-4.3l-1.8.3c-3.2.5-6.1,2-8.4,4.2h-.1s-.1.2-.1.3l-.4.9c-1.3,3-1.8,6.3-1.3,9.5h0l.7,2c.7,1.9,2,3.4,3.8,4.3h.3l7.1.2h.1l13.6.7c1.7,0,3.3.9,4.3,2.2s1.5,3,1.3,4.7l-.4,3.1c-.6,4.1-1.8,8-3.6,11.8l-2.8,5.5c-2.1,4.3-6.5,7-11.3,7.1h-15.6c-3.3,0-6-2.6-6-5.9s2.6-6,6-6h15.6c.3,0,.5-.3.6-.5l2.8-5.5c.8-1.5,1.4-3.1,1.8-4.7l-6.7-.3-7.1-.2c-1.8,0-3.7-.5-5.3-1.3-4.6-2.3-8-6.2-9.8-11l-.7-1.9c-.3-.8-.5-1.6-.6-2.5-.8-5.5,0-11,2.2-16l.4-.9c.6-1.5,1.6-2.8,2.7-3.9h.1c4.1-4.1,9.2-6.7,14.9-7.6l1.8-.3c.7-.3,1.3-.4,2-.4h0Z" />
  <path id="u5" class="white"
    d="M143.4,129.6h-4.5c-5.5-.2-10.8-2.4-14.8-6.2l-2.6-2.5c-2.4-2.3-2.5-6.1-.2-8.5s6.1-2.5,8.5-.2l2.6,2.5c1.9,1.8,4.3,2.7,6.8,2.8h4.3l1.8-.3c3.2-.5,6.1-1.9,8.4-4.2h.1c.1,0,.1-.2.1-.3l.4-.9c1.3-3,1.8-6.3,1.3-9.5h0l-.7-2c-.7-1.9-2-3.4-3.8-4.3h-.3l-7.1-.2h-.1l-13.6-.7c-1.7,0-3.3-.9-4.3-2.2s-1.6-3-1.3-4.7l.4-3.1c.6-4.1,1.8-8.1,3.6-11.8l2.8-5.5c2.1-4.3,6.5-7,11.3-7.1h15.6c3.3,0,6,2.6,6,5.9s-2.6,6-6,6h-15.6c-.3,0-.5.3-.6.5l-2.8,5.5c-.8,1.5-1.4,3.1-1.8,4.7l6.7.3,7.1.2c1.8,0,3.7.5,5.3,1.3,4.6,2.3,8,6.2,9.8,11l.7,1.9c.3.8.5,1.6.6,2.5.8,5.5,0,11-2.2,16.1l-.4,1.1c-.6,1.5-1.6,2.8-2.7,3.9h-.1c-4.1,4.1-9.2,6.7-14.9,7.6l-1.8.3c-.7,0-1.3.1-2,.1h0Z" />
</svg>