<?xml version="1.0" encoding="UTF-8"?>
<svg id="Card" xmlns="http://www.w3.org/2000/svg" version="1.1" viewBox="0 0 480.8 718">
  <defs>
    <style>
      .white {
        fill: #fff;
        stroke-width: 0px;
      }
    </style>
  </defs>
  <path id="l6" class="white"
    d="M336.8,587.6c1.2,0,2.4,0,3.6.3l2,.3c3.3.6,6.4,2.1,8.9,4.5l2.7,2.6c2.4,2.2,4.2,5.1,5.3,8.1l.7,2.1c1,2.8,1.3,5.6,1.1,8.5l-.6,7.2c-.1,1.3-.3,2.5-.7,3.7l-2.1,7.2c-1,3.6-2.7,6.9-5,9.9-3,4.1-7.1,7.4-11.7,9.6l-5,2.3c-3.2,1.5-7.1,0-8.6-3.1-1.5-3.2-.1-7.1,3.1-8.7l5-2.3c2.7-1.3,5.1-3.2,6.9-5.6,1.3-1.8,2.3-3.7,2.9-5.8l2.1-7.2c0-.2.1-.3.1-.5-.3,0-.6.2-.9.2l-7.1,1.5c-1.1.2-2.3.3-3.4.3h-4.7c-1.6,0-3.1-.4-4.6-1l-.5-.2c-3.9-1.4-7-4.5-8.5-8.4-.9-2.2-1.2-4.7-.9-7.1l.4-3.2c.4-2.9,1.6-5.6,3.5-7.8l1.7-1.9c1.6-1.8,3.6-3.2,5.9-4l1.2-.4c2.3-.7,4.8-1.1,7.2-1.1h0ZM346.8,607.1c-.4-.9-1-1.7-1.7-2.4l-2.7-2.6c-.6-.6-1.3-.9-2.1-1.1l-2-.3c-1.4-.2-2.8,0-4.1.4l-1.2.4c-.2,0-.5.2-.6.4l-1.7,1.9c-.2.2-.3.5-.4.8l-.4,3.2c0,.2,0,.5.1.7.2.4.5.7.9.9l.5.2h5.6l7.1-1.5h.2l2.5-1.1h0Z" />
  <path id="u6" class="white"
    d="M142.4,126.8c-1.2,0-2.4,0-3.6-.3l-2-.3c-3.3-.6-6.4-2.1-8.9-4.4l-2.7-2.6c-2.4-2.2-4.2-5.1-5.3-8.1l-.7-2.1c-1-2.8-1.3-5.6-1.1-8.5l.6-7.2c0-1.3.3-2.5.7-3.7l2.1-7.2c1.1-3.6,2.7-6.9,4.9-9.9,3.1-4.1,7.1-7.4,11.7-9.6l5-2.3c3.2-1.5,7.1,0,8.6,3.1,1.5,3.2.1,7.1-3.1,8.7l-5,2.3c-2.7,1.3-5.1,3.2-6.9,5.6-1.3,1.8-2.3,3.7-2.9,5.8l-2.1,7.2c-.1.2-.1.3-.1.5.3,0,.6-.2.9-.2l7.1-1.5c1.1-.2,2.3-.3,3.4-.3h4.9c1.6,0,3.1.2,4.6.8l.5.2c3.9,1.4,7,4.5,8.6,8.4.9,2.2,1.2,4.7.9,7.1l-.4,3.2c-.4,2.9-1.6,5.6-3.6,7.8l-1.7,1.9c-1.6,1.8-3.6,3.2-5.9,4l-1.2.4c-2.4.8-4.9,1.2-7.3,1.2h0ZM132.4,107.3c.4.9,1,1.7,1.7,2.4l2.7,2.6c.6.6,1.3.9,2.1,1.1l2,.3c1.4.2,2.8,0,4.1-.4l1.2-.4c.2,0,.4-.2.6-.4l1.7-1.9c.2-.2.3-.5.4-.8l.4-3.2c0-.2,0-.5-.1-.7-.2-.4-.5-.7-.9-.9l-.5-.2h-5.6l-7.1,1.5h-.2l-2.5,1.1h0Z" />
</svg>