<?xml version="1.0" encoding="UTF-8"?>
<svg id="Card" xmlns="http://www.w3.org/2000/svg" version="1.1" viewBox="0 0 480.8 718">
  <defs>
    <style>
      .white {
        fill: #fff;
        stroke-width: 0px;
      }
    </style>
  </defs>
  <path id="l7" class="white"
    d="M319,625.5h3l-8,18.7c-.7,1.8-.6,3.8.4,5.4s2.6,2.7,4.5,2.9l19.6,2.1h1.1l17.4-1.3c3.3-.2,5.8-3.1,5.5-6.4s-3.1-5.8-6.4-5.5l-16.9,1.3-11-1.2,6.9-16.3,12.1-.2c3.3,0,6-2.8,5.9-6.1s-2.7-5.9-6-5.9h-5.6l13.7-21.4c1.8-2.8,1-6.5-1.9-8.3-1-.6-2.1-.9-3.2-.9-2,0-3.9,1-5.1,2.8l-17.7,27.9c-.1,0-.1.2-.2.3l-8.4.2c-3.3,0-6,2.8-5.9,6.1s2.9,5.9,6.2,5.8h0Z" />
  <path id="u7" class="white"
    d="M160.1,88.9h-3l8-18.7c.7-1.8.6-3.8-.4-5.4s-2.6-2.7-4.5-2.9l-19.6-2.2h-1.1l-17.4,1.3c-3.3.2-5.8,3.1-5.5,6.4.2,3.3,3.1,5.8,6.4,5.5l16.8-1.3,11,1.2-6.9,16.3-12.1.3c-3.3,0-5.9,2.8-5.9,6.1s2.7,5.9,6,5.9h5.6l-13.7,21.4c-1.8,2.8-.9,6.5,1.9,8.3,1,.6,2.1.9,3.2.9,2,0,3.9-1,5.1-2.8l17.7-27.9c.1,0,.1-.2.2-.3l8.4-.2c3.3,0,5.9-2.8,5.9-6.1s-2.8-5.9-6.1-5.8h0Z" />
</svg>