<?xml version="1.0" encoding="UTF-8"?>
<svg id="Card" xmlns="http://www.w3.org/2000/svg" version="1.1" viewBox="0 0 480.8 718">
  <defs>
    <style>
      .white {
        fill: #fff;
        stroke-width: 0px;
      }
    </style>
  </defs>
  <path id="l8" class="white"
    d="M337,586.4h1.4l1.9.2c.6,0,1.1,0,1.7.3l2.9.6c1.4.3,2.8.8,4,1.5l1.3.7c1,.5,1.9,1.2,2.7,2l1,1c.9.8,1.6,1.7,2.2,2.6l.2.2c1,1.6,1.8,3.3,2.1,5.1l.2.9c.2,1.1.3,2.2.3,3.3v1.4c0,1.4-.3,2.8-.7,4.2l-.4,1c-.6,2-1.7,3.7-3.1,5.2l1,.7c1.1.8,2.1,1.7,3,2.8l.8.9c.8,1,1.5,2.1,2,3.2l.6,1.3c.8,1.8,1.2,3.7,1.3,5.6v1.7c0,1.1-.1,2.2-.3,3.2l-.4,2c-.2,1.2-.6,2.3-1.1,3.4l-.3.6c-.9,1.8-2.1,3.5-3.7,4.8l-1.1,1c-.8.7-1.7,1.3-2.7,1.8l-1.5.8c-.9.5-1.9.8-2.8,1.1l-1.9.5c-.7.2-1.3.3-2,.4l-2.1.3h-5.4l-2.3-.2c-1.8,0-3.4-.6-5-1.3l-1.5-.7c-1.1-.5-2.2-1.2-3.1-2l-1.1-.9c-1.7-1.4-3.1-3.2-4-5.2l-.2-.5c-.5-1-.8-2.1-1-3.1l-.4-1.8c-.3-1.5-.4-2.9-.2-4.4l.3-2.7c.1-.8.2-1.5.4-2.2l.3-1.3c.7-2.5,2-4.8,3.9-6.7l.9-.9c-.6-.4-1.2-.8-1.8-1.3l-.4-.4c-1.2-1-2.2-2.3-3.1-3.6l-.5-.9c-1-1.7-1.6-3.5-1.9-5.5l-.2-1.7c-.1-1.1-.2-2.2-.1-3.4v-1.5c.3-1.8.8-3.6,1.6-5.2s2.5-3.7,4.3-5l.2-.2c.6-.5,1.3-.9,2-1.2l1.2-.6c1.3-.7,2.6-1.1,4.1-1.4l1.6-.3c.6,0,1.2-.2,1.8-.2h2.3c.3-.2.5-.2.8-.2h0v.2h0ZM340.6,611.4l1.4-.6c.1,0,.2,0,.4-.2l1.8-1.5c0,0,.1,0,.2-.2l.9-1c.1-.2.3-.3.3-.6l.4-1s.1-.3.1-.4v-1.8l-.2-.9c0-.2-.1-.4-.2-.5l-.2-.2c-.1,0-.1-.2-.2-.3l-1-1c-.1,0-.2-.2-.3-.2l-1.3-.7c-.1,0-.3,0-.4-.2l-2.9-.6h-.2l-1.9-.2h-2.7l-1.6.3c-.1,0-.3,0-.4.2l-1.2.6h-.2l-.2.2c-.2,0-.4.3-.5.5s-.1.4-.2.5v1.5c-.1,0-.1.4-.1.4l.2,1.7c0,.2.1.4.2.6l.5.9c.1.2.2.3.3.4l.4.4c.1,0,.3.2.5.3l2.5.8c.6.2,1.1.4,1.6.7l2.9,1.4h.2l1.1.4h0v.3h0ZM341.6,639.9h.2l2.1-.3h.2l1.9-.5h.3l1.5-.8c.1,0,.2,0,.3-.2l1.1-1c.2,0,.3-.3.4-.5l.3-.6s.1-.2.1-.4l.4-1.9v-2c0-.2,0-.4-.1-.6l-.6-1.3c-.1,0-.1-.2-.2-.3l-.8-.9c-.1,0-.2-.2-.3-.3l-2.3-1.6c-.1,0-.3-.2-.5-.2l-3-.8-1.9-.6-.7.2h-.2l-3,1.2c-.1,0-.2,0-.3.2l-2.2,1.6h-.2l-.9.9c-.2.2-.3.4-.4.7l-.3,1.3v.2l-.3,2.7v.5l.4,1.8s.1.2.1.3l.2.5c.1.2.2.4.4.5l1.1.9c.1,0,.2.2.3.2l1.5.7h.5l2.4.2h2.5v.2h0Z" />
  <path id="u8" class="white"
    d="M142.1,128h-1.4l-1.9-.2c-.6,0-1.1,0-1.7-.3l-2.9-.6c-1.4-.3-2.8-.8-4-1.5l-1.3-.7c-1-.6-1.9-1.2-2.7-2l-1.1-1c-.9-.8-1.6-1.7-2.2-2.6l-.2-.2c-1.1-1.6-1.8-3.3-2.1-5.1l-.2-.9c-.2-1.1-.3-2.2-.3-3.3v-1.4c0-1.4.3-2.8.7-4.2l.4-1.1c.6-2,1.7-3.7,3.1-5.2l-1-.7c-1.1-.8-2.1-1.7-3-2.8l-.8-.9c-.8-1-1.5-2.1-2-3.2l-.6-1.3c-.8-1.8-1.2-3.7-1.3-5.6v-1.7c0-1.1,0-2.2.3-3.2l.4-1.9c.2-1.2.6-2.3,1.2-3.4l.3-.6c.9-1.8,2.1-3.4,3.7-4.8l1.1-1c.8-.7,1.7-1.3,2.7-1.8l1.5-.8c.9-.5,1.9-.8,2.8-1.1l1.9-.5c.7-.2,1.3-.3,2-.4l2.1-.3h5.3l2.3.2c1.8,0,3.4.6,5,1.3l1.6.7c1.1.5,2.2,1.2,3.1,2l1.1.9c1.7,1.4,3.1,3.2,4,5.2l.2.5c.4,1,.8,2.1,1,3.1l.4,1.8c.3,1.4.4,2.9.2,4.4l-.3,2.7c-.1.8-.2,1.5-.4,2.2l-.3,1.3c-.7,2.5-2,4.8-3.9,6.7l-.9.9c.6.4,1.2.8,1.8,1.3l.4.4c1.2,1,2.2,2.3,3.1,3.6l.6.9c1,1.7,1.6,3.5,1.9,5.5l.2,1.7c.1,1.1.2,2.2.1,3.4v1.5c-.3,1.8-.8,3.6-1.7,5.2-1,2-2.5,3.7-4.3,5l-.2.2c-.6.5-1.3.9-2,1.2l-1.2.6c-1.3.7-2.6,1.1-4.1,1.4l-1.6.3c-.6,0-1.2.2-1.8.2h-2.3c-.3.2-.5.2-.8.2h0v-.2h0ZM138.5,103l-1.4.6c-.1,0-.2,0-.4.2l-1.8,1.5s-.1,0-.2.2l-.9.9c-.1.2-.3.3-.3.6l-.4,1c-.1,0-.1.3-.1.4v1.8l.2.9c0,.2.1.4.2.5l.2.2c.1,0,.1.2.2.3l1.1,1c.1,0,.2.2.3.2l1.3.7c.1,0,.3,0,.4.2l2.9.6h.2l1.9.2h2.7l1.6-.3c.1,0,.3,0,.4-.2l1.2-.6h.2l.2-.2c.2,0,.4-.3.5-.5s.1-.4.2-.6v-1.6c.1,0,.1-.4.1-.4l-.2-1.7c0-.2-.1-.4-.2-.6l-.6-.9c-.1-.2-.2-.3-.3-.4l-.4-.4c-.1,0-.3-.2-.5-.3l-2.5-.8c-.6-.2-1.1-.4-1.6-.7l-2.9-1.4h-1.3v-.4h0ZM137.5,74.5h-.2l-2.1.3h-.2l-1.9.5h-.3l-1.5.8c-.1,0-.2,0-.3.2l-1.1,1c-.2,0-.3.3-.4.5l-.3.6c-.1,0-.1.2-.1.4l-.4,1.9v2c0,.2.1.4.1.6l.6,1.3c.1,0,.1.2.2.3l.8.9c.1,0,.2.2.3.3l2.3,1.6c.1,0,.3.2.5.2l3,.8,1.9.6.7-.2h.2l3-1.2c.1,0,.2,0,.3-.2l2.2-1.6h.2l.9-.9c.2-.2.3-.4.4-.7l.3-1.3v-.2l.3-2.7v-.5l-.4-1.8s-.1-.2-.1-.3l-.2-.5c-.1-.2-.2-.4-.4-.6l-1.1-.9c-.1,0-.2-.2-.3-.2l-1.6-.7h-.5l-2.4-.2h-2.4Z" />
</svg>