<?xml version="1.0" encoding="UTF-8"?>
<svg id="Card" xmlns="http://www.w3.org/2000/svg" version="1.1" viewBox="0 0 480.8 718">
  <defs>
    <style>
      .white {
        fill: #fff;
        stroke-width: 0px;
      }
    </style>
  </defs>
  <path id="l9" class="white"
    d="M336.8,584.2h.6l9.6.9c.9,0,1.7.4,2.5.8l7.7,4.6c2.9,1.7,3.8,5.4,2.1,8.2s-5.4,3.8-8.2,2.1l-6.5-3.9-7.4-.7-6.2,1.4-4,3.2-1.2,4.9-1.6,7,.5,7.4,1.8-1.3c.9-.7,1.9-1,3-1.1l10-.9h1.2l8.6.9c1.8.2,3.4,1.2,4.4,2.7l3.8,5.7c.9,1.3,1.2,2.9.9,4.5l-2,9.9c-.1.6-.3,1.2-.6,1.8l-4.6,8.2c-.8,1.5-2.3,2.6-4,3l-10.3,2.2h-8.3c-1.6,0-3.2-.7-4.4-1.9l-4.4-4.7c-1.5-1.6-2-3.7-1.4-5.6-2.1-.8-3.7-2.7-4-5l-1.7-17v-.2l-.5-8.7c0-.6,0-1.2.1-1.7l1.8-8,1.7-7c.3-1.3,1-2.4,2.1-3.2l6.6-5.3c.7-.6,1.5-1,2.4-1.2l8.5-2h1.4ZM345.2,629.4l-5.2-.5-7.8.7-3.5,2.6-2.5,7.3c.9.3,1.7.8,2.3,1.5l2.7,2.8h3.8l7-1.5,2.8-5,1.3-6.6-.9-1.3h0Z" />
  <path id="u9" class="white"
    d="M142.4,130.2h-.6l-9.6-.9c-.9-.1-1.7-.4-2.5-.8l-7.7-4.6c-2.9-1.7-3.8-5.4-2.1-8.2,1.7-2.8,5.4-3.8,8.2-2.1l6.5,3.9,7.4.7,6.2-1.4,4-3.2,1.2-4.9,1.6-7-.4-7.4-1.8,1.3c-.9.7-1.9,1-3,1.1l-10,.9h-1.2l-8.7-.9c-1.8-.2-3.4-1.2-4.4-2.7l-3.8-5.7c-.9-1.3-1.2-2.9-.9-4.5l2-9.9c0-.6.3-1.2.6-1.8l4.6-8.2c.8-1.5,2.3-2.6,4-3l10.3-2.2h8.3c1.6,0,3.2.7,4.4,1.9l4.4,4.7c1.5,1.6,1.9,3.7,1.4,5.6,2.1.8,3.7,2.7,3.9,5.1l1.7,17v.2l.5,8.6c0,.6,0,1.2-.1,1.7l-1.8,8-1.7,7c-.3,1.3-1,2.4-2.1,3.2l-6.6,5.3c-.7.6-1.5,1-2.4,1.2l-8.5,2c-.4.1-.9.1-1.3.1h0ZM134,85l5.2.6,7.8-.7,3.5-2.6,2.5-7.3c-.9-.3-1.7-.8-2.3-1.5l-2.7-2.8h-3.8l-7,1.5-2.8,5-1.3,6.6.9,1.2h0Z" />
</svg>