<?xml version="1.0" encoding="UTF-8"?>
<svg id="Card" xmlns="http://www.w3.org/2000/svg" version="1.1" viewBox="0 0 480.8 718">
  <defs>
    <style>
      .white {
        stroke-width: 0px;
      }

      .white {
        fill: #fff;
      }
    </style>
  </defs>
  <path id="lower_plus" data-name="lower plus" class="white"
    d="M359.1,620c.1,3.3,2.9,5.9,6.2,5.8l8.4-.3-.5,4.7c-.4,3.3,2,6.3,5.3,6.7s6.3-2,6.7-5.3l.7-6.2,7.3.2c3.3,0,6.1-2.5,6.2-5.8s-2.5-6.1-5.8-6.2l-6.7-.2.2-5.6c.1-3.3-2.4-6.1-5.7-6.3h-.3c-3.2,0-5.9,2.5-6,5.7l-.3,6.1-10,.4c-3.3.2-5.8,3-5.7,6.3h0Z" />
  <path id="upper_plus" data-name="upper plus" class="white"
    d="M118.7,94.4c0-3.3-2.9-5.9-6.2-5.8l-8.4.3.6-4.7c.4-3.3-2-6.3-5.3-6.7-3.3-.4-6.3,2-6.7,5.3l-.7,6.2-7.3-.2c-3.3,0-6.1,2.5-6.2,5.8s2.5,6.1,5.8,6.2l6.7.2-.2,5.6c-.2,3.3,2.4,6.1,5.7,6.3h.3c3.2,0,5.8-2.5,6-5.7l.3-6.1,10-.4c3.2-.2,5.7-3,5.6-6.3h0Z" />
</svg>