<?xml version="1.0" encoding="UTF-8"?>
<svg id="Card" xmlns="http://www.w3.org/2000/svg" version="1.1" viewBox="0 0 480.9 718">
  <defs>
    <style>
      .white {
        fill: #fff;
      }

      .white,
      .color {
        stroke-width: 0px;
      }

      .color {
        fill: #ff002c;
      }
    </style>
  </defs>
  <g id="lcy">
    <path id="lcy2" class="white"
      d="M361.4,607.5c-3.4-1.8-7.6-.5-9.5,2.9l-1.4,2.6c-.6,1.2-1.5,2.3-2.5,3.2l-1.2,1.1c-.7.6-1.5,1.2-2.3,1.6l-1.7,1c-.2,0-.5.2-.7.3l-2.1.5c-.7.2-1.3.3-2,.3h-1.2c-.9,0-1.8,0-2.7-.4l-1.5-.4c-.3,0-.6-.2-.9-.5l-2.5-2.1-.4-.5c-.7-1-1.1-2.1-1.1-3.3v-3.6c2.5,2.2,6.4,2.3,9,.2,3-2.4,3.4-6.8,1-9.8l-9-11h0c-.2-.2-.3-.4-.5-.5h0c-.2-.2-.5-.4-.7-.6h-.1c-.2,0-.4-.3-.6-.4h-.2c-.5-.3-1-.5-1.6-.6h-2.9c-.3,0-.6,0-.9.2h-.1c-.2,0-.5.2-.7.3h-.4l-14.4,8.6c-3.3,2-4.4,6.3-2.4,9.6,1.3,2.2,3.6,3.4,6,3.4s2.5-.3,3.6-1l1.2-.7v6c0,4.2,1.4,8.3,3.8,11.6l.9,1.2c.3.5.7.9,1.1,1.2l3.1,2.6c1.8,1.5,3.9,2.6,6.1,3.2l1.5.4c2.1.6,4.3.9,6.4.9h1.2c1.9,0,3.7-.2,5.5-.7l2.1-.5c1.5-.4,2.9-1,4.3-1.8l1.7-1c1.6-.9,3.1-2,4.5-3.3l1.2-1.1c2.2-2,4.1-4.4,5.5-7l1.4-2.6c1.8-3.4.5-7.7-2.9-9.5h0v-.3.3h0Z" />
    <path id="lcy1" class="white"
      d="M375.8,579.5c-2-3.3-6.3-4.4-9.6-2.4l-1.2.7v-6c0-4.2-1.4-8.3-3.8-11.6l-.9-1.2c-.3-.5-.7-.9-1.1-1.2l-3.1-2.6c-1.8-1.5-3.9-2.6-6.1-3.2l-1.5-.4c-2.1-.6-4.3-.9-6.4-.9h-1.2c-1.9,0-3.7.2-5.5.7l-2.1.5c-1.5.4-2.9,1-4.3,1.8l-1.7,1c-1.6.9-3.1,2-4.5,3.3l-1.2,1.1c-2.2,2-4.1,4.4-5.5,7l-1.4,2.6c-1.8,3.4-.5,7.7,2.9,9.5s7.6.5,9.5-2.9l1.4-2.6c.6-1.2,1.5-2.3,2.5-3.2l1.2-1.1c.7-.6,1.5-1.2,2.3-1.6l1.7-1c.2,0,.5-.2.7-.3l2.1-.5c.7-.2,1.3-.3,2-.3h1.2c.9,0,1.8,0,2.7.4l1.5.4c.3,0,.6.2.9.5l2.5,2.1.4.5c.7,1,1.1,2.1,1.1,3.3v3.6c-2.5-2.2-6.4-2.3-9-.2-3,2.4-3.4,6.8-1,9.8l9,11h0c.2.2.4.4.5.6,0,0,.2,0,.2.2.1,0,.3.2.4.3.1,0,.2,0,.3.2.1,0,.3.2.4.3.1,0,.2,0,.3.2.1,0,.3,0,.4.2h.3c.2,0,.3,0,.5.2h3.6c.2,0,.4,0,.5-.2h.4c.1,0,.3,0,.4-.2.1,0,.3-.2.4-.2h.2l14.4-8.6c3.3-2,4.4-6.3,2.4-9.6h0Z" />
  </g>
  <g id="ucy">
    <path id="ucy2" class="white"
      d="M124.9,162.7c1.8,1.5,3.9,2.6,6.1,3.2l1.5.4c2.1.6,4.3.9,6.4.9h1.2c1.9,0,3.7-.2,5.5-.7l2.1-.6c1.5-.4,2.9-1,4.3-1.8l1.7-1c1.6-.9,3.1-2,4.5-3.3l1.2-1.1c2.2-2,4.1-4.4,5.5-7l1.4-2.6c1.8-3.4.5-7.6-2.9-9.5-3.4-1.8-7.6-.5-9.5,2.9l-1.4,2.6c-.6,1.2-1.5,2.3-2.5,3.2l-1.2,1.1c-.7.6-1.5,1.2-2.3,1.6l-1.7,1c-.2.1-.5.2-.7.3l-2.1.6c-.7.2-1.3.3-2,.3h-1.2c-.9,0-1.8-.1-2.7-.4l-1.5-.4c-.3,0-.6-.2-.9-.5l-2.5-2.1-.4-.5c-.7-1-1.1-2.1-1.1-3.3v-3.6c2.5,2.2,6.4,2.4,9,.1,3-2.4,3.4-6.9,1-9.9l-9-11h0c-.2-.2-.3-.4-.5-.6h0c-.2-.3-.4-.5-.7-.6h-.1c-.2,0-.4-.3-.6-.4s-.1,0-.2,0c-.3,0-.5-.2-.8-.3h0c-.3,0-.5-.2-.8-.2h-3c-.3,0-.6,0-.9.2h0c-.2,0-.5.2-.7.3h-.4l-14.4,8.6c-3.3,2-4.4,6.3-2.4,9.6,1.3,2.2,3.6,3.4,6,3.4s2.5-.3,3.6-1l1.2-.7v6c0,4.2,1.4,8.3,3.8,11.6l.9,1.2c.3.4.7.9,1.2,1.2l3.1,2.6h0v.2h0Z" />
    <path id="ucy1" class="white"
      d="M119.6,110.3c3.4,1.8,7.7.5,9.5-2.9l1.4-2.6c.6-1.2,1.5-2.3,2.5-3.2l1.2-1.1c.7-.6,1.5-1.2,2.3-1.6l1.7-1c.2,0,.5-.2.7-.3l2.1-.6c.7-.2,1.3-.3,2-.3h1.2c.9,0,1.8,0,2.7.4l1.5.4c.3,0,.6.2.9.5l2.5,2.1.4.5c.7.9,1.1,2.1,1.1,3.3v3.6c-2.5-2.2-6.4-2.3-9-.2-3,2.4-3.4,6.8-1,9.8l8.9,11h0l.6.6c.2.2.2.1.2.2.1.1.3.2.4.3.1,0,.2.1.3.2.1,0,.3.2.4.3.1,0,.2.1.3.2.1,0,.3.1.4.2.1,0,.2,0,.3.1.2,0,.3.1.5.2h.3c.2,0,.4,0,.6.1h2.8c.2,0,.4,0,.5-.1.1,0,.3,0,.4-.1.1,0,.3-.1.4-.2.1,0,.3-.1.4-.2h.2l14.4-8.6c3.3-2,4.4-6.3,2.4-9.6s-6.3-4.4-9.6-2.4l-1.2.7v-6c0-4.2-1.4-8.3-3.8-11.6l-.9-1.2c-.3-.4-.7-.9-1.1-1.2l-3.1-2.6c-1.8-1.5-3.9-2.6-6.1-3.2l-1.5-.4c-2.1-.6-4.3-.9-6.4-.9h-1.2c-1.9,0-3.7.2-5.5.7l-2.1.6c-1.5.4-2.9,1-4.3,1.8l-1.7,1c-1.6.9-3.1,2-4.5,3.3l-1.2,1.1c-2.2,2-4.1,4.4-5.5,7l-1.4,2.6c-1.8,3.4-.5,7.7,2.9,9.5h0l-.2-.2h0Z" />
  </g>
  <g id="cy">
    <path id="arrow" class="color"
      d="M257.2,431.4l-6.4,2.4-5,1.4-5.7.6-5-.6-10.1-2.7-1.2-.5c1.7-3.4,1.8-7.5-.1-11.2-2.5-4.8-7.9-7.4-13.1-6.4-.8.1-1.6.4-2.4.7l-6,2.4c-.1,0-.2.1-.4.2l-4.9,2.1c-1,.5-2,1-2.9,1.8l-.8.7c-2.9,2.3-4.5,5.8-4.5,9.5v2.7c0,.7,0,1.3.2,2l1,6.4c.1.8.4,1.6.6,2.4l3.9,10.2c1.6,4.2,5.6,6.8,9.8,6.8s2.5-.2,3.7-.7c4.4-1.7,7-6,6.8-10.4l2.4,1c.6.2,1.2.5,1.8.6l11.3,3c.5.1,1.1.2,1.6.3l6.7.8c1,.1,1.9.1,2.9,0l7.4-.8c.7,0,1.4-.2,2-.4l6-1.7c.3,0,.5-.2.8-.3h.1l6.5-2.4c4.9-1.8,8-6.9,6.9-11.9-1.3-6.5-8-10.1-14-7.8h0v-.2h.1Z" />
    <path id="arrow-2" data-name="arrow" class="color"
      d="M198.5,319.2h.2c3.5-1.1,6.4-3.6,7.9-7l1.6-3.7c.2-.5.4-.9.5-1.4l1.8-6.2c.1-.5.3-1,.3-1.5l.9-6c.1-.6.1-1.3.1-1.9v-1.6c0-2.1-.5-4.2-1.6-6l-.8-1.5c-.9-1.5-2-2.8-3.4-3.9l-3.4-2.5c-.8-.6-1.7-1.1-2.6-1.5l-5.1-2.1c-.1,0-.2-.1-.4-.1l-5.2-2c-1.3-.5-2.6-.7-4-.8h-1c-4.6-.2-8.9,2.7-10.4,7.4-.6,1.9-.6,4,0,6l.8,3c.1.5.3.9.4,1.3l1,2.7c-.3.2-.5.3-.8.5l-6,4.1c-.3.2-.6.4-.9.7l-3.6,3c-.3.3-.6.5-.9.8l-7.4,7.4-3,2.9c-.8.8-1.5,1.6-2,2.6l-2.9,4.9c-.4.6-.6,1.2-.9,1.9l-1.5,4c-.3.8-.5,1.7-.7,2.6l-.5,3.5c-.8,5.5,2.6,10.8,7.9,12,.8.2,1.6.3,2.4.3,5.1,0,9.6-3.8,10.4-9l.4-2.9.9-2.4,1.9-3.2,2.2-2.1h0l7.2-7.3,3-2.5,1.3-.9c.2.6.4,1.2.8,1.8l.3.6c2.7,5.2,8.7,7.9,14.4,6.2h0l.4-.2h0Z" />
    <path id="arrow-3" data-name="arrow" class="color"
      d="M291.6,343.9c-1.8,3.5-1.6,7.6,0,11.1l1.7,3.4c.7,1.4,1.6,2.6,2.7,3.6l6,5.6c.6.6,1.3,1.1,2.1,1.6l7.2,4.4c2,1.2,4.2,1.8,6.4,1.8s6.1-1.1,8.5-3.4l5-4.7.8-.8,6.2-7.1c.5-.6,1-1.2,1.4-1.9l3.7-6.3c1.1-1.9,1.5-3.9,1.4-5.9.1-2.3-.5-4.7-2-6.8-3.2-4.4-9.4-5.5-14.1-2.8l-2.1,1.2-.6-1.7-1.5-5.3v-.2l-1.7-5.5c-.1-.3-.2-.6-.3-.9l-2.2-5.4c0-.2-.1-.3-.2-.5l-2.2-4.7c-.2-.5-.5-.9-.8-1.4l-2.8-4.3c-.4-.6-.8-1.1-1.2-1.6l-4-4.5c-.6-.7-1.4-1.4-2.2-1.9l-5.1-3.5c-4.3-3-10.3-2.6-13.9,1.2-4.5,4.8-3.5,12.2,1.7,15.8l4.6,3.2,2.9,3.2,2,3.2,1.8,3.9,2,4.8,1.5,5,.3,1.1h-1.5c-4.8-.2-9.2,2.4-11.4,6.8h0v.2h0Z" />
    <path id="person" class="color"
      d="M285.5,281.4c0-.6,0-1.2-.1-1.9l-.5-3c0-.2,0-.4-.1-.5l-.8-3.6c-.1-.5-.2-.9-.4-1.4l-1-3h0c-.2-.6-.5-1.3-.8-1.8l-.9-1.7c-.6-1.1-1.3-2-2.1-2.9l-1.9-1.9c-.5-.6-1.1-1.1-1.8-1.5l-2.4-1.7c0-.2.1-.5.1-.7l.5-3.3c.3-1.7.2-3.5-.3-5.2l-.9-3.5c-.8-3-2.6-5.5-5.2-7.2l-2.6-1.7c-2.3-1.5-5.1-2.2-7.8-1.9l-3.9.4c-2.5.2-4.9,1.2-6.9,2.9l-3.3,2.8c-2.2,1.9-3.6,4.4-4.1,7.2l-.6,3.2c-.3,1.8-.2,3.6.2,5.4l.8,2.8c0,.2.1.4.2.6-1.1.8-2.1,1.7-2.9,2.8l-2.5,3.4c-.8,1.1-1.4,2.4-1.8,3.7l-1.3,4.4c-.2.6-.3,1.2-.4,1.7l-.9,5.9c-.2,1.3-.2,2.6,0,3.9l.7,4.1c.5,2.8,1.9,5.3,3.9,7.1l1.3,1.2c.5.5,1.1.9,1.6,1.2l1.4.9c1.4.9,3,1.5,4.7,1.8l3.2.5c.6.1,1.2.1,1.9.1h20.7c.9,0,1.7,0,2.5-.3l1.7-.4c.9-.2,1.7-.5,2.6-.9l1.3-.6c1-.5,2-1.1,2.9-1.8l.5-.4c1.2-1,2.2-2.2,2.9-3.6l.6-1.1c.2-.5.5-1,.7-1.5l.4-1.2c.5-1.4.7-2.8.7-4.2v-3.7h.2,0Z" />
    <path id="person-2" data-name="person" class="color"
      d="M307.7,449.6c.6.1,1.2.1,1.9.1h20.7c.9,0,1.7,0,2.5-.3l1.8-.4c.9-.2,1.7-.5,2.5-.8l1.3-.6c1-.5,2-1.1,2.9-1.8l.5-.4c1.2-1,2.2-2.2,2.9-3.6l.6-1.1c.3-.5.5-1,.7-1.5l.4-1.2c.5-1.4.7-2.8.7-4.2v-3.7c0-.6,0-1.3-.1-1.9l-.5-3c0-.2,0-.4-.1-.5l-.8-3.7c-.1-.5-.2-.9-.4-1.4l-1-3h0c-.2-.6-.4-1.2-.7-1.7h0c0-.1-.9-1.8-.9-1.8-.6-1.1-1.3-2-2.1-2.9l-1.9-1.9c-.5-.6-1.2-1.1-1.8-1.5l-2.4-1.7c0-.2.1-.5.1-.7l.5-3.3c.3-1.8.2-3.5-.3-5.2l-.9-3.5c-.8-3-2.6-5.5-5.2-7.2l-2.6-1.7c-2.3-1.5-5.1-2.2-7.8-1.9l-3.9.4c-2.5.2-4.9,1.2-6.9,2.9l-3.3,2.8c-2.2,1.9-3.6,4.4-4.1,7.2l-.6,3.2c-.3,1.8-.2,3.6.2,5.4l.8,2.8c0,.2.1.4.2.6-1.1.8-2.1,1.7-2.9,2.8l-2.5,3.4c-.8,1.1-1.5,2.4-1.9,3.7l-1.3,4.4c-.2.6-.3,1.2-.4,1.8l-.9,5.9c-.2,1.3-.2,2.6,0,3.9l.7,4.1c.5,2.8,1.9,5.3,4,7.2l1.3,1.1c.5.5,1.1.9,1.6,1.2l1.4.9c1.4.9,3,1.5,4.6,1.7l3.3.5h0Z" />
    <path id="person-3" data-name="person" class="color"
      d="M177.2,404.8c0-.2,0-.4-.1-.5l-.8-3.6c-.1-.5-.2-1-.4-1.5l-1-3h0c-.2-.6-.5-1.2-.8-1.8l-.9-1.7c-.6-1.1-1.3-2-2.1-2.9l-1.9-2c-.5-.5-1.1-1-1.8-1.5l-2.4-1.7c0-.2.1-.5.1-.7l.5-3.3c.3-1.7.2-3.5-.3-5.2l-.9-3.5c-.8-2.9-2.6-5.5-5.2-7.1l-2.6-1.7c-2.3-1.5-5.1-2.2-7.8-1.9l-3.9.4c-2.6.2-4.9,1.2-6.9,2.9l-3.3,2.8c-2.2,1.9-3.6,4.4-4.1,7.2l-.6,3.2c-.3,1.8-.2,3.6.2,5.4l.8,2.8c0,.2.1.4.2.6-1.1.8-2.1,1.7-2.9,2.8l-2.5,3.4c-.8,1.1-1.4,2.4-1.8,3.7l-1.4,4.5c-.2.6-.3,1.1-.4,1.7l-.9,5.9c-.2,1.3-.2,2.6,0,3.9l.7,4.1c.5,2.8,1.9,5.3,3.9,7.1l1.3,1.2c.5.5,1.1.9,1.6,1.2l1.4.9c1.4.9,3,1.5,4.7,1.8l3.2.5c.6.1,1.2.1,1.9.1h20.7c.9,0,1.7,0,2.5-.3l1.7-.4c.9-.2,1.8-.5,2.6-.9l1.3-.6c1-.5,2-1.1,2.9-1.8l.5-.4c1.2-1,2.2-2.2,2.9-3.6l.6-1c.3-.5.5-1,.7-1.6l.4-1.2c.5-1.4.7-2.8.7-4.2v-3.7c0-.6,0-1.2-.1-1.9l-.5-3h.3Z" />
  </g>
</svg>