<?xml version="1.0" encoding="UTF-8"?>
<svg id="Card" xmlns="http://www.w3.org/2000/svg" version="1.1" viewBox="0 0 480.9 718">
  <defs>
    <style>
      .white {
        fill: #fff;
      }

      .white,
      .color {
        stroke-width: 0px;
      }

      .color {
        fill: #ff002c;
      }
    </style>
  </defs>
  <g id="lrd">
    <path class="white"
      d="M404.4,578.5l-1.9-1.5c-2.8-2.1-5.7-4-8.9-5.5l-6.5-3.1-10.5-5.4-8.1-4.3c-1.1-.6-2.2-1.1-3.4-1.6l-4.5-2c-.9-.4-1.8-.6-2.8-.6s-2,.2-2.9.6l-3.4,1.5c-2.6,1.1-5.1,2.5-7.5,4l-4.9,3.1-8.3,5.1-6.1,3.9c-1.2.7-2.3,1.5-3.4,2.4l-8.6,6.6c-1.9,1.4-2.9,3.7-2.7,6l.2,2.5v20.9c0,1.6,0,3.3.2,4.9l.7,6.6c.2,2.1,1.3,3.9,3,5.1l6.1,4.1h.2l7.8,4.9c.8.5,1.6,1,2.4,1.5l8.1,4.5c1.5.8,3.1,1.6,4.7,2.3l5.9,2.5c1.4.6,2.8,1.3,4.1,2l5.4,3.2c2.5,1.5,5.6,1.2,7.8-.5l7.5-5.9c1.8-1.4,3.4-2.9,5-4.5l3.6-3.7c.9-1,1.9-1.9,3-2.8l5-4.1c1.1-.9,2.3-1.8,3.6-2.6l7.4-4.7c2-1.2,3.2-3.3,3.3-5.7l.6-18.3,1.2-15.6c.2-2.3-.8-4.6-2.7-6.1h0l.3.2h0ZM391.9,599.2v.3l-.5,14.8-4.3,2.7c-1.7,1.1-3.4,2.3-5,3.6l-5,4.1c-1.5,1.2-2.9,2.5-4.2,3.8l-3.6,3.7c-1.1,1.2-2.3,2.2-3.6,3.2l-3.8,3-1.3-.8c-1.8-1.1-3.8-2-5.7-2.9l-5.9-2.5c-1.1-.5-2.3-1-3.4-1.6l-8.1-4.5c-.6-.3-1.2-.7-1.8-1l-7.7-4.9-3.3-2.2-.3-3.3c-.1-1.2-.2-2.3-.2-3.5v-20.5l5.7-4.3c.8-.6,1.6-1.2,2.4-1.7l6-3.8,8.3-5.2,5-3.2c1.7-1.1,3.5-2.1,5.4-2.9l.9-.4,1.7.7c.8.4,1.6.8,2.4,1.2l8.2,4.4,10.7,5.5h.2l6.6,3.1c1.8.9,3.6,1.9,5.3,3.1l-.9,12h-.2Z" />
    <path class="white"
      d="M370.3,615.9c-2.5-1.9-6.1-1.3-8,1.2l-.9,1.2-1.3,1.5-.9.7-1.2.6-.9.2h-.9v-.6c-.1,0-.4-2.3-.4-2.3v-2.1l.4-1.2,1-1.2,1.9-1.6,3.3-2.1c.4-.3.8-.6,1.2-.9l1.1-.9c1.5-1.3,2.7-3,3.3-5l.2-.5c.3-1,.5-2,.5-3v-.7c0-1.4-.2-2.8-.7-4.2l-.2-.5c-.7-1.8-1.8-3.4-3.3-4.6l-.8-.6c-.5-.4-1-.8-1.6-1.1l-1.2-.7c-.8-.4-1.6-.8-2.4-1l-.7-.2c-.5,0-1-.2-1.5-.2-2.5,0-4.8,1.7-5.5,4.2-.8,3,1,6.2,4,7h.5l1.1.7.7.5v1c-.1,0-1,.8-1,.8l-3.3,2.1c-.4.3-.9.6-1.2.9l-2,1.7c-.4.3-.8.7-1.1,1.1l-1.1,1.3c-.9,1-1.5,2.1-2,3.4l-.5,1.4c-.5,1.3-.7,2.7-.7,4.1v2.2c0,.3,0,.6.1,1l.3,2.3c0,.5.1,1,.3,1.5l.2.8c.3,1.3.9,2.5,1.7,3.6,1.2,1.6,2.8,2.9,4.7,3.7h.2c1.1.5,2.2.8,3.4.9h3.4l1.1-.2c.2,0,.5,0,.7-.2l1.1-.3c.3,0,.6-.2.9-.3l1-.5c.2,0,.5-.2.7-.4l.6-.3c.6-.3,1.2-.7,1.7-1.2l.9-.8c.4-.3.7-.7,1.1-1l1.4-1.5c.2-.3.5-.5.7-.8l.9-1.2c1.9-2.5,1.3-6.1-1.2-8h0l.2.3h0Z" />
    <path class="white"
      d="M357.2,583.5c3.1,0,5.7-2.5,5.7-5.7v-.2c0-3.2-2.5-5.7-5.7-5.7s-5.7,2.5-5.7,5.7v.2c0,3.2,2.5,5.7,5.7,5.7Z" />
  </g>
  <g id="urd">
    <path class="white"
      d="M89,146.2l1.9,1.5c2.8,2.1,5.7,4,8.9,5.5l6.5,3.1,10.5,5.4,8.1,4.3c1.1.6,2.2,1.1,3.4,1.6l4.5,1.9c.9.4,1.8.6,2.8.6s2-.2,2.9-.6l3.4-1.5c2.6-1.1,5.1-2.4,7.5-4l4.9-3.1,8.3-5.1,6.1-3.9c1.2-.7,2.3-1.5,3.4-2.4l8.6-6.6c1.9-1.4,2.9-3.7,2.7-6l-.2-2.5v-20.9c0-1.6,0-3.3-.2-4.9l-.7-6.6c-.2-2.1-1.3-3.9-3-5.1l-6.1-4.1h-.2l-7.8-4.9c-.8-.5-1.6-1-2.4-1.4l-8.1-4.5c-1.5-.8-3.1-1.6-4.7-2.3l-5.9-2.5c-1.4-.6-2.8-1.3-4.1-2.1l-5.4-3.2c-2.5-1.4-5.6-1.2-7.8.5l-7.5,5.9c-1.8,1.4-3.4,2.9-5,4.5l-3.6,3.7c-.9,1-1.9,1.9-3,2.8l-5,4.1c-1.1.9-2.3,1.8-3.6,2.6l-7.4,4.7c-2,1.2-3.2,3.3-3.3,5.7l-.6,18.3-1.2,15.6c-.2,2.3.8,4.6,2.7,6.1h-.3v-.2ZM101.4,125.5v-.3l.5-14.8,4.3-2.7c1.7-1.1,3.4-2.3,5-3.6l5-4.1c1.5-1.2,2.9-2.5,4.2-3.8l3.6-3.7c1.1-1.2,2.3-2.2,3.6-3.2l3.8-3,1.3.8c1.8,1.1,3.8,2,5.7,2.9l5.9,2.5c1.1.5,2.3,1,3.4,1.6l8.1,4.5c.6.3,1.2.7,1.8,1l7.7,4.9,3.3,2.2.3,3.3c.1,1.2.2,2.3.2,3.5v20.5l-5.7,4.4c-.8.6-1.6,1.2-2.4,1.7l-6,3.8-8.3,5.1-5,3.2c-1.7,1.1-3.5,2.1-5.4,2.9l-.9.4-1.7-.7c-.8-.4-1.6-.8-2.4-1.2l-8.2-4.4-10.7-5.4h-.2l-6.6-3.1c-1.8-.9-3.6-1.9-5.3-3.1l.9-11.9h0l.2-.2h0Z" />
    <path class="white"
      d="M123.1,108.8c2.5,1.9,6.1,1.3,8-1.2l.9-1.2,1.3-1.4.9-.7,1.2-.6.9-.2h.9v.6c.1,0,.4,2.3.4,2.3v2.1l-.4,1.2-1,1.2-1.9,1.6-3.3,2.1c-.4.3-.8.6-1.2.9l-1.1.9c-1.5,1.3-2.7,3-3.3,4.9l-.2.5c-.3,1-.5,2-.5,3v.7c0,1.4.2,2.9.7,4.2l.2.5c.7,1.8,1.8,3.4,3.3,4.6l.8.6c.5.4,1,.8,1.6,1.1l1.2.7c.8.4,1.6.8,2.4,1l.7.2c.5.1,1,.2,1.5.2,2.5,0,4.8-1.7,5.5-4.2.8-3-1-6.2-4-7h-.6l-1.1-.7-.7-.6v-1c.1,0,1-.8,1-.8l3.3-2.1c.4-.3.9-.6,1.2-.9l1.9-1.7c.4-.3.8-.7,1.1-1.1l1.1-1.3c.9-1,1.5-2.1,2-3.4l.5-1.4c.5-1.3.7-2.7.7-4.1v-2.2c0-.3,0-.6-.1-1l-.3-2.3c0-.5-.1-1-.3-1.5l-.2-.8c-.3-1.3-.9-2.5-1.7-3.6-1.2-1.6-2.8-2.9-4.7-3.7h-.2c-1.1-.5-2.2-.8-3.4-.9h-3.4l-1.1.2c-.2,0-.5,0-.7.2l-1.1.3c-.3,0-.6.2-.9.3l-1,.5c-.2,0-.5.2-.7.4l-.6.3c-.6.3-1.2.7-1.7,1.2l-.9.8c-.4.3-.7.7-1.1,1l-1.4,1.5c-.2.3-.5.6-.7.8l-.9,1.2c-1.9,2.5-1.3,6.1,1.2,8h0v-.2h0Z" />
    <path class="white"
      d="M136.2,141.2c-3.1,0-5.7,2.6-5.7,5.7v.2c0,3.1,2.6,5.7,5.7,5.7s5.7-2.6,5.7-5.7v-.2c0-3.1-2.6-5.7-5.7-5.7Z" />
  </g>
  <g id="rd">
    <path id="arrow" class="color"
      d="M227.6,465.5l-7.1,1.5-8.6,1.4c-.6.1-1.2.2-1.8.2l-4.7.4c-1.5.1-3,.1-4.6,0-2-.2-3.9-.6-5.8-1.2l-5.1-1.7c-.8-.3-1.6-.6-2.4-.9l-7.4-3.3h-.2l-7.6-3.2c-1.6-.7-3.1-1.5-4.6-2.5l-4.2-2.9c-.6-.4-1.2-.9-1.8-1.4l-10.1-8.4c-.6-.5-1.1-1-1.6-1.5l-6.9-6.8c-.9-.9-1.7-1.8-2.4-2.8l-3.2-4.2c-1.1-1.5-2-3-2.8-4.7l-6.6-14.4c3.4,1.2,7.4.2,9.8-2.9,3-3.8,2.4-9.3-1.5-12.4l-6.7-5.3c-2.5-2-5.2-3.5-8.2-4.7l-9.5-3.7c-3.1-1.2-6.5-1-9.4.6s-4.9,4.4-5.6,7.6l-.7,3.4c-.4,1.8-.6,3.6-.8,5.5l-1.2,12.5c-.5,4.8,3.1,9.1,7.9,9.6h.9c3.5,0,6.6-2.1,8-5.2l1,2,6.7,14.6c1.3,2.8,2.9,5.4,4.7,7.9l3.2,4.2c1.2,1.7,2.6,3.2,4.1,4.7l6.9,6.8c.9.9,1.8,1.7,2.8,2.5l10.1,8.4c1,.8,2,1.6,3,2.3l4.2,2.9c2.4,1.7,5,3.1,7.8,4.3l7.5,3.2,7.3,3.3c1.3.6,2.6,1.1,4,1.6l5.1,1.7c3.2,1.1,6.5,1.8,9.9,2.1,1.3.1,2.6.2,3.8.2s2.6,0,3.9-.2l4.7-.4c1,0,2.1-.2,3.1-.4l8.7-1.4h.4l7.3-1.5c4.8-1,7.8-5.7,6.8-10.4s-5.7-7.8-10.4-6.8h0v-.2h0Z" />
    <path id="arrow-2" data-name="arrow" class="color"
      d="M381.3,322.4l-.3-4v-7h0v-.8l-.4-4.4c-.3-3.5-2.6-6.4-5.9-7.6-3.3-1.1-6.9-.2-9.3,2.3l-1.5,1.6-1.9-4.4-3.6-8.1c-1.6-3.7-3.5-7.2-5.7-10.6l-2.7-4.1c-1.8-2.8-3.9-5.5-6.1-8.1l-2.8-3.2c-2.7-3.1-5.7-6-8.9-8.6l-3.1-2.6c-3.1-2.6-6.5-4.9-9.9-6.9l-7.2-4.2c-1.8-1-3.6-2-5.4-2.8l-4.9-2.3c-4.1-2-8.5-3.6-12.9-4.7-4.6-1.2-9.3-2-14.1-2.3l-3.2-.2c-4.2-.3-8.4-.2-12.5.2h-.7c-3.9.5-7.8,1.2-11.5,2.2l-3.8,1c-4.7,1.2-7.5,6.1-6.2,10.8,1.2,4.7,6.1,7.5,10.8,6.2l3.8-1c2.9-.8,5.8-1.3,8.8-1.6h.7c3.2-.4,6.4-.5,9.6-.3l3.2.2c3.6.2,7.2.8,10.7,1.8,3.4.9,6.7,2.1,9.9,3.6l4.9,2.3c1.4.7,2.8,1.4,4.1,2.2l7.2,4.2c2.7,1.5,5.2,3.3,7.6,5.3l3.1,2.6c2.4,2,4.7,4.2,6.8,6.6l2.7,3.2c1.7,2,3.3,4,4.7,6.2l2.7,4.1c1.7,2.6,3.1,5.3,4.4,8.1l3.6,8.1.4.8-4.2.4c-3.7.4-6.7,2.9-7.8,6.4-1,3.5.2,7.3,3.1,9.6l3.1,2.5c.3.2.6.5,1,.7l3.8,2.4h.2c0,.1,7.1,4.2,7.1,4.2h0l4.9,2.8c.8.4,1.6.8,2.5,1l3.4.9c.8.2,1.7.3,2.5.4h2.9c.9,0,1.8-.1,2.6-.3l1.2-.3c2.4-.6,4.5-2.1,6-4.1l.5-.7c.9-1.2,1.5-2.6,1.8-4l.2-.9c.1-.7.2-1.4.2-2.2v-2.5h-.2Z" />
    <path id="cube" class="color"
      d="M326.2,349.1l-.5-10.5-.4-12c0-2.5-1.2-4.8-3.1-6.4l-2.5-2.2c-.4-.4-.9-.7-1.4-1l-10-5.6-11.3-7.6s-.1,0-.2-.1l-11.4-7.2c-.5-.3-1.1-.6-1.7-.8l-12.5-4.6-13.1-8.3-12.2-8.1c-3-2-7-1.9-9.9.2l-7.7,5.5s-.1.1-.2.1l-7.7,5.8-6.7,4.6-7.8,4.9-8.4,4.1c-.3.1-.6.3-.9.5l-12.7,8.1-9.2,3.5h-.1l-7.9,3.1c-.2,0-.4.2-.6.3l-8.1,4c-1.3.6-2.4,1.5-3.2,2.7l-4.9,6.8c-1,1.4-1.6,3-1.7,4.7l-.9,14.1v16.1l-.2,32.7c0,.6,0,1.2.2,1.7l1.2,6.3c.3,1.8,1.2,3.4,2.5,4.6l5.9,5.8c.5.5,1.2,1,1.8,1.4l10.6,6,12,7.8c.4.2.8.5,1.2.6l14.4,6.5,12.4,7.8,10.3,6.9c1,.7,2.2,1.1,3.4,1.4l9.4,1.7c.8.1,1.6.2,2.4.1h1.1c.5,0,1.1,0,1.6-.1l13.9-2.5c1.2-.2,2.4-.7,3.5-1.5l7.1-5,8.6-5.4,8.7-3.5c.1,0,.2,0,.3-.1l10.1-4.5c.4-.2.8-.4,1.2-.7l8.8-5.7c.1,0,.2-.2.4-.2l8.8-6.4,12.7-6.3c3-1.5,4.9-4.6,4.9-8v-12.1c0-.2-.1-.5-.1-.8l-.8-8.7,1-9.6h0c0-.1,1.1-12.2,1.1-12.2v-1.8l-1.2-11h-.3ZM226.3,396.6l-1.4,12.8v.6l-.6,13v1.2l.9,10.5-6.2-4.2s-.1-.1-.2-.1l-13-8.2c-.3-.2-.7-.4-1.1-.6l-14.4-6.5-11.6-7.6c-.2-.1-.3-.2-.5-.3l-9.9-5.6-3.1-3.1-.5-2.7.2-31.9v-15.7l12.1,5.9c.3.1.6.3.9.4l12.3,4.5,11.7,7.8c.3.2.7.4,1,.6l11.2,5.4h.2l12,5.5.2,7.7-.2,10.7h0ZM233.4,362.1l-11.7-5.4-10.6-5.1-12.1-8c-.6-.4-1.2-.7-1.9-.9l-12.9-4.7-12.2-6,1.5-.7,7.5-3,10-3.8c.6-.2,1.1-.5,1.6-.8l13-8.3,8.4-4.1c.3-.1.5-.3.8-.4l8.3-5.2c.1,0,.2-.1.3-.2l7-4.8c.1,0,.2-.1.3-.2l7.8-5.8,2.7-1.9,7.3,4.8h.1l13.9,8.9c.5.3,1.1.6,1.7.8l12.5,4.6,10.5,6.7,11.5,7.7c.2.1.4.2.6.4l3.2,1.8-10.7,5.9-11.1,4.4s-.2,0-.2.1l-10.4,4.5s-.2,0-.2.1l-10.9,5.1s-.1,0-.2.1l-11.8,5.9c-.1,0-.2.1-.4.2l-13.3,7.5h0v-.2h0ZM308.9,372.3l-1.1,10.4v1.7l.9,9.2v6.2l-2.6,1.3c.2-.4.4-.7.6-1.1,1.4-3.6-.3-7.6-3.9-9l-.5-.2c-3.6-1.4-7.6.3-9,3.9s.3,7.6,3.9,9l.5.2c.7.3,1.3.4,2,.5-.2.1-.5.3-.7.4l-9.2,6.7-8,5.2-9.4,4.2-9.3,3.7c-.5.2-.9.4-1.4.7l-9.4,5.9c-.1,0-.3.2-.4.3l-5.8,4-3,.6-.2-1.5-1-11.5.6-12.2,1.4-12.9v-.8l.2-11.4v-.5l-.3-9.1,11.3-6.3,11.5-5.8,10.6-5,10.1-4.4,11.5-4.5c.4-.1.7-.3,1-.5l8.4-4.7.2,5v.5l1.2,10.3-1,11.2h0l.3.3h0Z" />
    <path id="dot" class="color"
      d="M257,391.3c2.8,0,5.4-1.6,6.5-4.4,1.4-3.6-.3-7.6-3.9-9l-.5-.2c-3.6-1.4-7.6.3-9,3.9s.3,7.6,3.9,9l.4.2c.8.3,1.7.5,2.6.5Z" />
    <path id="dot-2" data-name="dot" class="color"
      d="M212.4,381.1l-.4-.2c-3.6-1.4-7.6.3-9,3.9s.3,7.6,3.9,9l.4.2c.9.3,1.7.5,2.6.5,2.8,0,5.4-1.6,6.4-4.4,1.4-3.6-.3-7.6-3.9-9Z" />
    <path id="dot-3" data-name="dot" class="color"
      d="M180,386.2l-.4-.2c-3.6-1.4-7.6.3-9,3.9s.3,7.6,3.9,9l.4.2c.8.3,1.7.5,2.6.5,2.8,0,5.4-1.6,6.4-4.4,1.4-3.6-.3-7.6-3.9-9Z" />
    <path id="dot-4" data-name="dot" class="color"
      d="M203.8,326.3l-.4-.2c-3.6-1.4-7.6.3-9,3.9s.3,7.6,3.9,9l.4.2c.9.3,1.7.5,2.6.5,2.8,0,5.4-1.6,6.4-4.4,1.4-3.6-.3-7.6-3.9-9h0Z" />
    <path id="dot-5" data-name="dot" class="color"
      d="M237.9,336.8l-.4-.2c-3.6-1.4-7.6.3-9,3.9s.3,7.6,3.9,9l.4.2c.9.3,1.7.5,2.6.5,2.8,0,5.4-1.6,6.4-4.4,1.4-3.6-.3-7.6-3.9-9h0Z" />
    <path id="dot-6" data-name="dot" class="color"
      d="M241,304.3l-.4-.2c-3.6-1.4-7.6.3-9,3.9s.3,7.6,3.9,9l.4.2c.9.3,1.7.5,2.6.5,2.8,0,5.4-1.6,6.4-4.4,1.4-3.6-.3-7.6-3.9-9h0Z" />
    <path id="dot-7" data-name="dot" class="color"
      d="M263,332.7l.5.2c.8.3,1.7.5,2.6.5,2.8,0,5.4-1.6,6.5-4.4,1.4-3.6-.3-7.6-3.9-9l-.5-.2c-3.6-1.4-7.6.3-9,3.9s.3,7.6,3.9,9h-.1Z" />
    <path id="dot-8" data-name="dot" class="color"
      d="M297,358.2l-.5-.2c-3.6-1.4-7.6.3-9,3.9s.3,7.6,3.9,9l.5.2c.9.3,1.7.5,2.6.5,2.8,0,5.4-1.6,6.5-4.4,1.4-3.6-.3-7.6-3.9-9h-.1Z" />
    <path id="dot-9" data-name="dot" class="color"
      d="M281.5,382.9l-.5-.2c-3.6-1.4-7.6.3-9,3.9s.3,7.6,3.9,9l.5.2c.8.3,1.7.5,2.6.5,2.8,0,5.4-1.6,6.5-4.4,1.4-3.6-.3-7.6-3.9-9h-.1Z" />
    <path id="dot-10" data-name="dot" class="color"
      d="M264.3,406.8l-.5-.2c-3.6-1.4-7.6.3-9,3.9s.3,7.6,3.9,9l.5.2c.8.3,1.7.5,2.6.5,2.8,0,5.4-1.6,6.5-4.4,1.4-3.6-.3-7.6-3.9-9h-.1Z" />
  </g>
</svg>