<?xml version="1.0" encoding="UTF-8"?>
<svg id="Card" xmlns="http://www.w3.org/2000/svg" version="1.1" viewBox="0 0 480.8 718">
  <defs>
    <style>
      .red,
      .green,
      .blue,
      .yellow,
      .black,
      .white {
        stroke-width: 0px;
      }

      .red {
        fill: #ff002c;
      }

      .green {
        fill: #3ce53e;
      }

      .blue {
        fill: #5190fc;
      }


      .yellow {
        fill: #ffad00;
      }

      .black {
        fill: #111;
      }

      .white {
        fill: #fff;
      }
    </style>
  </defs>
  <path id="cutout" class="white"
    d="M426.4,249.5c0-.3-.1-.6-.2-.9l-1.1-3.6c0-.4-.3-.7-.4-1.1l-.8-2c-.3-.7-.7-1.4-1.1-2l-3-4.3-3.6-5.2c-.2-.3-.4-.6-.6-.8l-3.3-4c-.3-.3-.6-.6-.9-.9l-4.5-4.2c-.2-.2-.4-.4-.6-.6l-5-4.1-7.7-5.8c-.2-.2-.3-.3-.5-.4l-4.4-2.9c-.3-.2-.5-.4-.8-.5l-7.6-4.2c-.2-.2-.5-.3-.7-.4l-6.7-3.1c-.3,0-.5-.2-.8-.3l-7.6-2.8-6.6-2.3c-.3-.1-.6-.2-.9-.3l-5.1-1.3c-.2,0-.4,0-.6-.2l-4.2-1.4c-.8-.3-1.5-.4-2.3-.5l-7.6-.8-8.3-1c-.5-.1-1-.1-1.5-.1l-34.8.7h-1.1l-12.8,1.6-12.1,1.5h-.7l-5.3,1c-.2,0-.5.1-.7.1l-5.8.7h-.7l-10.8.6c-1.3,0-2.6.4-3.8.9l-1.2.5c-1,.5-2.1.8-3.2.9l-10.7,1.2-14.6,2.1c-1.4,0-2.6.6-3.8,1.2l-2.5,1.4-3.6,1.8c-.4.3-.9.5-1.3.8l-2.5,1.7c-.4.3-.8.5-1.2.7l-4.5,2.3c-.4.2-.7.5-1.1.7l-4.3,2.9c-.4.2-.9.5-1.3.7l-5.3,2.6c-.2,0-.4.2-.6.3l-5.5,2.4c-.4.2-.8.4-1.2.6l-7.3,4.2c-.2.2-.5.3-.7.4l-6.7,3.2c-.5.2-.9.4-1.3.7l-5.3,3.5c-.4.3-.8.5-1.2.7l-7,3.4c-.3.2-.5.3-.8.4l-4.1,1.6c-.6.2-1.2.5-1.8.9l-3.4,2.1c-.3.2-.6.3-.9.5l-2.2,1.1c-.2.2-.5.3-.8.4-1.7.6-3.1,1.7-4.3,3l-.4.5c-.2.3-.5.6-.7.8l-4.1,3.9c-.2.2-.4.3-.6.5l-6.8,5.6-7.2,5.9-7.3,6.2c-.3.2-.5.4-.7.6l-6.4,6.4c-.3.2-.5.4-.7.7l-5.3,6.4c0,.2-.3.4-.4.5l-5.1,5.4c0,0-.3.3-.4.4l-4.8,4.6c-.3.2-.5.4-.7.6l-5.1,4.2-4,3.2c-.7.6-1.3,1.2-1.9,2l-3.1,4.2c-.4.5-.7,1.1-1,1.6l-3.6,7c-.3.6-.6,1.4-.8,2.1l-1.1,3.9c-.3.9-.4,1.9-.4,2.9v6.6c0,1.8-.4,3.7-1.3,5.3l-4.5,5.5-2.3,108.1,5.6,13.7c.6,1.5,1.4,3,2.3,4.4l5,7.3,7.2,11.4,3.4,5.2c1.1,1.6,2.4,3.1,3.8,4.5l6.2,5.6c.5.4,1,.9,1.5,1.2l3.1,2.3c.7.5,1.3,1,2.1,1.4l5.2,3.1,8.8,5.4c.9.5,1.8,1,2.8,1.5l7.2,3.2c1.1.5,2.3.9,3.5,1.2l5.1,1.3c1.7.5,3.4.7,5.2.8l9.4.3,21.3.7,29.1.4h29.9c.6,0,1.3,0,1.9-.2l9.6-.8c.9,0,1.7-.2,2.5-.4l7.6-1.5c1.5-.3,3-.8,4.4-1.3l6.4-2.7c.6-.2,1.2-.5,1.8-.7l4.3-1.4c1.4-.5,2.9-.8,4.3-1l5.9-.7c1,0,2-.3,3-.6l5.5-1.4,6.2-1.9c1.4-.4,2.8-1,4-1.6l5.5-2.8c.8-.4,1.5-.8,2.2-1.3l5.8-3.9c.6-.4,1.2-.8,1.7-1.3l6.7-5.5,7.5-5.5c.5-.4,1.1-.8,1.7-1.1l6.4-3.9,9.8-5.7c.6-.4,1.2-.7,1.9-1l9.3-4.4,5.5-2.6c.9-.4,1.8-.9,2.7-1.5l5-3.2c.7-.5,1.4-1,2-1.5l4.6-3.7c.8-.6,1.5-1.3,2.2-2.1l3.7-3.9c.3-.4.7-.7,1-1l5.1-4.7c1-.9,1.8-1.8,2.6-2.9l4.7-6.1c.5-.6.9-1.3,1.4-2l9.7-15.7c.5-.8.9-1.6,1.3-2.4l4.4-9.3,5.6-12.4,5.7-12.3,5.7-11.7,4.4-9.6,4.7-11,3.6-9.5c.2-.5.4-.9.5-1.4l4.3-9.6,2.4-76.7-1.9-7.5v.4Z" />
  <path id="white_outline" data-name="white outline" class="white"
    d="M326.8,294.6c-.8-.4-1.6-.6-2.5-.7-5-.3-10.2-1-15.8-1.8-7.3-1-14.8-2.1-22.2-2.2.3-20.4-2.6-49.8-38.7-51.3-22.5-1.3-40.9,5-51.7,17.7-9,10.6-12.4,25-10.2,41.9-14.4.4-27.2,6.7-35.4,17.6-.5.7-.9,1.5-1.1,2.4-4.6,19.2-5.8,40-6.8,60-.6,10.3-1.1,21-2.2,31-.1.5-.1.9,0,1.4.8,7.3,2.6,16.4,9.4,21.6,3.2,2.5,7.1,3.8,11.7,3.8s2.5-.1,3.8-.3c4.1-.3,8.4-.4,13.1-.6,6.4-.3,12.9-.5,19-1,1.4,24,12.2,38.4,30.7,40.3,3.6.5,7.1.7,10.2.7,10.9,0,19.2-2.8,25.2-8.3,8.3-7.7,11.6-20.3,10.5-39.6.1-4.6.2-8.3,0-11.2,1.7.1,3.4.1,5,.1,23.9,0,40.8-6.1,50.4-18.1.5-.6.8-1.3,1.1-2,2.3-6.9,3.2-14.3,4-21.4.8-6.6,1.5-12.8,3.3-18.3,0-.1.1-.3.1-.4,8.1-32.7,4.4-53.8-10.9-61.3h0ZM205.8,264.7c8.1-9.6,22.7-14.2,41.1-13.1h.1c21.7.9,26.5,13.8,26.3,38.7-5.7.6-10.7,2.7-14.8,6.2-11.4,9.8-13.2,28.2-14.2,42.9-1.5,0-3,.2-4.5.4-2.2.2-4.8.5-7.9.6-.8,0-1.6,0-2.4.1-5.7.1-12.2.3-17.8,2.5-3.8,1.5-6.8,3.9-8.7,6.9-.8-7.9-1.1-16.4-1.3-20.6-.2-5.3-.4-8.3-.6-10.2-.1-1.9-1-13.9-1-14.3h0c0-.4-.1-.7-.1-1-3.9-16.6-1.9-30,5.8-39.1h0ZM177.5,422.1c-4.8.2-9.3.4-13.6.7-.2,0-.4,0-.6.1-4,.6-5.4-.5-5.9-.9-3-2.3-4-9-4.3-12,1-10.2,1.6-20.8,2.2-31,1-19,2.1-38.6,6.2-56.3,6-7.3,15.4-11.4,25.9-11.4h.2l.6,9c0,.2,0,.4.1.6.2,1.3.4,5.2.5,9,1.2,28.7,3.2,43.1,11.1,47.5-.3,4.2-.7,8.5-1.1,13-.9,10.2-1.9,20.8-1.5,30.7-6.3.4-13.1.7-19.8,1h0ZM254.2,457.2c-4.7,4.4-12.9,5.8-24.9,4.2h-.2c-18.8-1.8-19.9-25.7-18.9-39.8v-.8c-.5-9.2.5-19.5,1.4-29.4.9-10.2,1.9-20.8,1.5-30.8-.1-5.3,2.3-7,16.7-7.3.9,0,1.7,0,2.5-.1,3.5-.1,6.5-.4,8.8-.6,1.3-.1,2.7-.3,3.8-.3.2,1.1.5,3.5.6,8.1,0,.3,0,.7.1,1,.9,5.7,1.2,12.7,1.5,19.4.3,7.1.6,14.4,1.6,20.7.2,1,.6,2,1.2,2.8,4.7,6.4,8.3,8.4,10.5,9.7,0,0,.1,0,.1.1.4,2.5.2,9.6.1,12.8v.5c.9,15.2-1.2,24.9-6.4,29.8h0ZM325,352.3c-2.1,6.7-3,13.7-3.8,20.6-.8,6.3-1.5,12.3-3.1,17.7-8.7,9.9-26,13.9-51.6,11.8h-.5c-1.2-.8-2.7-1.9-4.8-4.5-.7-5.3-1-11.5-1.2-17.6-.3-7-.6-14.2-1.6-20.5-.1-5.5-.4-9.8-1.6-13,0-.2.1-.4.1-.7l.2-2.8c.8-12.7,1.8-30.1,9.9-37.1,3-2.6,7-3.6,12.1-3.1h1.3c8.2-.9,17.5.5,26.4,1.7,5.1.7,10.3,1.5,15.4,1.9,7.6,5.2,8.8,22,2.8,45.6h0Z" />
  <g id="colors">
    <path id="blue" class="blue"
      d="M229.5,341.4c.8,0,1.6,0,2.4-.1,3.1-.1,5.7-.4,7.9-.6,1.5-.1,3-.3,4.4-.4h.9v-.9c1.1-15.5,3.1-32.8,13.9-42.2,4-3.4,8.8-5.4,14.3-6h.9v-1c.2-24.4-4.1-38.7-27.3-39.7-18.7-1.1-33.6,3.7-41.9,13.5-7.9,9.3-10,23-6.2,39.8.1.3.1.5.1.9s.9,12.5,1,14.4c.3,1.9.4,4.9.6,10.1.2,4.1.5,12.7,1.3,20.6l.3,2.9,1.6-2.4c1.9-2.9,4.7-5.1,8.2-6.5,5.6-2.2,11.9-2.3,17.6-2.4h0Z" />
    <path id="red" class="red"
      d="M189.6,329.7c-.2-4-.3-7.8-.5-9.1,0-.2,0-.3-.1-.5l-.7-9.9h-1.1c-10.8,0-20.4,4.3-26.6,11.8v.2c-.1,0-.2.2-.2.2-4.1,17.8-5.2,37.5-6.2,56.5-.6,10.2-1.1,20.8-2.2,31v.2c.8,6.6,2.4,10.9,4.7,12.7.4.4,1.6,1.3,4.4,1.3s1.4,0,2.3-.2h.5c4.3-.3,8.8-.5,13.6-.7,6.3-.3,13.4-.6,19.7-1.1h.9v-1.1c-.4-9.9.5-20.4,1.5-30.6.4-4.6.8-8.8,1.1-13v-.6l-.6-.3c-7.4-4.3-9.3-18.5-10.5-46.8h0Z" />
    <path id="yellow" class="yellow"
      d="M261.6,427c.1-3.4.2-10.4-.2-13l-.2-.5-.4-.2c-2.1-1.2-5.6-3.2-10.2-9.4-.5-.7-.9-1.5-1-2.4-1-6.3-1.3-13.6-1.6-20.6-.3-6.8-.6-13.8-1.5-19.6-.1-.3-.1-.6-.1-.8,0-3.9-.2-6.7-.6-8.3l-.2-.8h-.8c-1.1,0-2.6.2-3.8.3-2.4.2-5.3.5-8.8.6-.8,0-1.6,0-2.5.1-14.3.3-17.8,2-17.7,8.4.5,9.9-.5,20.4-1.5,30.6-.9,10-1.9,20.2-1.4,29.5v.7c-1,14.4.2,38.9,19.8,40.8h.2c3.2.4,6.2.6,8.9.6,7.6,0,13.2-1.7,16.9-5.1,5.4-5.1,7.6-15,6.7-30.4v-.5h0Z" />
    <path id="green" class="green"
      d="M322.6,305.9h-.2c0-.1-.3-.1-.3-.1-5.1-.4-10.3-1.1-15.3-1.8-9-1.3-18.2-2.6-26.6-1.7h-1c-5.4-.5-9.6.6-12.9,3.4-8.4,7.2-9.5,24.9-10.2,37.8l-.2,2.8c0,.2,0,.4-.1.6v.3c-.1,0,0,.2,0,.2,1,2.8,1.5,6.4,1.6,12.6h0c1,6.4,1.3,13.6,1.6,20.5.2,6.1.5,12.4,1.2,17.7v.3l.2.2c2.2,2.8,3.8,3.9,5.1,4.7h.2c0,.1.7.1.7.1,4.4.4,8.5.5,12.4.5,19.2,0,32.6-4.3,40-12.7v-.2c.1,0,.2-.2.2-.2,1.6-5.4,2.4-11.4,3.1-17.8.8-6.8,1.6-13.8,3.7-20.4h0c6.2-24.4,5-41.4-3.2-46.8h0Z" />
    <path id="black_cards_outline" data-name="black cards outline" class="black"
      d="M350.6,314.8v-7.1l-1.6-6.3-3.6-6-4-3.9-5.1-3.8-6.3-3.3-5.1-1.3-5.6-.9-6.6-.6-6-.3-5.7-.6-3.3-.7v-7.2l-1.6-6.1-1.1-5.6-1.5-5.4-2.6-6.1-3.3-6-4.3-5.1-5.5-3.5-7.9-3.2-7.2-2.7-6.2-1.1-5.9-.4-5.3-.5h-8l-12.7,2.2-4.4.9-8.1.9-8.3,4.1-7.4,2.8-6,4.5-2.9,4.8-3.6,5.6-3.7,6.6-1,5.7-1.3,5.2-2.7,7.3v5.9c.1,0,.1,3.9.1,3.9l-5.2,1.3-5.8,1.8-6.6,2.6-5.3,3.8-4.4,5-3.8,5.2-3.5,5.3-3,5.9-2.2,7.6-1.1,7.2v14.8l-.4,10.1-2,12.2-1,12v14.1c.1,0-.2,9.6-.2,9.6l-.8,12.2,1.4,9.4,4.2,7.7,6.3,8.6,8.2,3.2,11,.8,15.6-.8,10.7-.5.5,4.7,3.1,7.6,3.9,7.3,5.4,6.4,6.1,5.9,7.4,4.2,8.7,2.5,9.3.6h8.4l11.3-.8,9-1.5,6.3-3.4,6.5-5.8,3.5-5.7,3.6-7.8,2.2-7.5,1.1-6.8.7-7.6v-7.8l-.3-4.8,6.1-.7,9.3-.9,7.8-1,6.8-3.3,6.5-1.3,7.2-3.8,5.9-4.6,4.4-6.3,3.1-7.9,2-7.2,1.7-8.6.9-8.6,1.2-5.8,1.8-7.1,1.5-10.4.8-8,.5-8.5v-9.4l-1-8.1h0ZM325.1,394.7c-8.6,10.8-24.2,16.2-46.5,16.2s-3,0-4.8-.1l-5.4-.2.3,5.4c.1,2.6.1,6,0,10.9v.4c1,17.7-1.8,29-8.9,35.7-5,4.7-12.1,7-21.7,7s-6.2-.2-9.6-.7h-.1c-20.1-2-25.3-20.5-26.2-35.6l-.3-5.1-5.1.4c-6.1.5-12.9.8-18.9,1-4.6.2-9,.4-13.1.6h-.4c-4.8.7-8.7-.1-11.8-2.5-5.3-4.1-6.8-11.9-7.5-18.2v-.3c1.1-10.2,1.6-20.9,2.2-31.3,1.1-19.8,2.2-40.3,6.7-59.1.1-.2.1-.4.3-.5,7.2-9.5,18.7-15.2,31.6-15.6l5.5-.2-.7-5.5c-2-15.5,1.1-28.6,9.1-38,9.8-11.5,26.7-17.2,47.7-16,30.5,1.3,34.2,24.1,33.9,46.2v5.1c-.1,0,5,0,5,0,7.1,0,14.4,1.1,21.5,2.1,5.6.8,11,1.6,16.2,1.9.2,0,.4.1.6.1h0c16.3,8,13.4,34.6,8.1,55.5-1.9,6-2.7,12.4-3.5,19.3s-1.7,14-3.8,20.4c-.2.4-.3.6-.4.7h0Z" />
  </g>
  <g id="lrd">
    <polygon id="lower_blue" data-name="lower blue" class="blue"
      points="358.7 657.9 391.5 633.7 357.1 621.4 324 639.7 358.7 657.9" />
    <polygon id="lower_red" data-name="lower red" class="red"
      points="320.9 636.5 357.1 618 357.1 586.2 333.1 589.5 315.4 601 320.9 636.5" />
    <polygon id="lower_green" data-name="lower green" class="green"
      points="391.5 627.3 360.8 619 360.8 587.2 376.1 587.2 393.4 598.2 391.5 627.3" />
    <path id="lower_cube" data-name="lower cube" class="white"
      d="M308.5,602.3l3.7,38.5c.2,2.1,1.4,3.9,3.3,4.8l16.7,8.5s.2,0,.3,0l23.7,10.7c1.9.9,4.1.7,5.9-.5l17.2-11.6c.1,0,.3-.2.4-.3l19.9-16c1.5-1.2,2.4-3.2,2.2-5.1l-2.1-33c-.1-2-1.2-3.8-3-4.8l-21.7-12.7c-.3-.2-.7-.3-1-.5l-14.3-5.1c-.6-.2-1.3-.3-2-.3s-1.3,0-1.9.3l-23.8,7.9c-.5.2-1,.4-1.5.7l-19.1,12.7c-1.9,1.2-2.9,3.4-2.7,5.6h-.2ZM372.1,642.9l-14.2,9.6-20.5-9.2-6.4-3.3,26.1-12.7,25.9,6.8-11,8.8h.1ZM387.7,602.4l1.3,20.7-26.3-6.9.7-26.6,5.8,2,18.5,10.8h0ZM336.3,594.4l15-5-.7,27.5-27.2,13.2-2.5-25.5,15.4-10.3h0Z" />
    <path id="lower_questiondot" data-name="lower questiondot" class="white"
      d="M356.4,597.8c3.1,0,5.7-2.6,5.7-5.7v-.2c0-3.1-2.6-5.7-5.7-5.7s-5.7,2.6-5.7,5.7v.2c0,3.1,2.6,5.7,5.7,5.7Z" />
    <path id="lower_questionmark" data-name="lower questionmark" class="white"
      d="M369.5,630.2c-2.5-1.9-6.1-1.3-8,1.2l-.9,1.2-1.3,1.4-.9.7-1.2.6-.9.2h-.9v-.6c-.1,0-.4-2.3-.4-2.3v-2.1c-.1,0,.3-1.2.3-1.2l1-1.2,1.9-1.6,3.3-2.1c.4-.3.8-.6,1.2-.9l1.1-.9c1.5-1.3,2.7-3,3.3-4.9l.2-.5c.3-1,.5-2,.5-3v-.7c0-1.4-.2-2.9-.7-4.2l-.2-.5c-.7-1.8-1.8-3.4-3.3-4.6l-.8-.6c-.5-.4-1-.8-1.6-1.1l-1.2-.7c-.8-.4-1.6-.8-2.4-1l-.7-.2c-.5,0-1-.2-1.5-.2-2.5,0-4.8,1.7-5.5,4.2-.8,3,1,6.2,4,7h.6l1.1.7.7.6v.2c.1,0,.1.5.1.5v.3c-.1,0-1,.8-1,.8l-3.3,2.1c-.4.3-.9.6-1.2.9l-1.9,1.7c-.4.3-.8.7-1.1,1.1l-1.1,1.3c-.9,1-1.5,2.1-2,3.4l-.5,1.4c-.5,1.3-.7,2.7-.7,4.1v2.2c.1.3.1.6.2,1l.3,2.3c.1.5.1,1,.3,1.5l.2.8c.3,1.3.9,2.5,1.7,3.6,1.2,1.6,2.8,2.9,4.7,3.7h.2c1.1.5,2.2.8,3.4.9h1c.8.2,1.6,0,2.4,0l1.1-.2c.2,0,.5,0,.7-.2l1.1-.3c.3,0,.6-.2.9-.3l1-.5c.2,0,.5-.2.7-.4l.6-.3c.6-.3,1.2-.7,1.7-1.2l.9-.8c.4-.3.7-.7,1.1-1l1.4-1.5c.2-.3.5-.6.7-.8l.9-1.2c1.8-2.4,1.3-6-1.3-7.8h0Z" />
    <path id="lower_questionmark_outline" data-name="lower questionmark outline" class="black"
      d="M374.3,633.4c-.4-2.2-1.5-4-3.3-5.3-3.6-2.7-8.7-1.9-11.5,1.7l-.8,1.1-1.1,1.2h-.1v-1.6c.1,0,.7-.7.7-.7l1.6-1.3,3.2-2,1.1-.8,1.5-1.2c1.9-1.7,3.3-3.7,4-5.9l.2-.6c.4-1.4.6-2.6.6-3.7v-.7c0-1.3-.1-3.2-.9-5.1l-.2-.5c-.9-2.3-2.3-4.2-4.1-5.7l-.7-.5c-.5-.4-1.2-.9-2-1.3l-1.1-.7h-.1c-.2-.2-.5-.3-.7-.4,2.5-1.4,4.2-4.1,4.2-7.1v-.2c0-4.5-3.8-8.2-8.2-8.2s-8.2,3.8-8.2,8.2v.2c0,2.7,1.4,5.2,3.5,6.7-2,1-3.6,2.9-4.2,5.2-1.1,4.1,1,8.2,4.8,9.8l-1.5,1h-.2c-.1.2-.2.3-.4.4-.3.2-.7.5-1.1.8l-1.8,1.6c-.5.4-1,.9-1.5,1.5l-1,1.2c-1,1.2-1.8,2.5-2.5,4.2l-.5,1.3c-.6,1.5-.9,3.2-.9,5v2.3c.1.3.1.8.2,1.4l.3,2.2v.5c0,.4.1.9.3,1.4v.6c.5,1.6,1.2,3.1,2.3,4.5,1.5,2,3.4,3.5,5.6,4.5l.4.2c1.5.5,2.8.8,4,.9h.9c.4,0,.7.2,1,.2.7,0,1.4,0,2-.2l1.1-.2c.5,0,.9-.2,1.2-.3l.9-.2,1-.3,1.4-.7c.2,0,.5-.2.9-.5l.4-.2c.9-.4,1.6-1,2.3-1.6l.8-.7c.3-.2.5-.5.7-.7l.3-.3,1.7-1.8.2-.3s.3-.3.4-.4l1.1-1.5c1.3-1.7,1.8-3.9,1.5-6h0l.3-.4ZM353.2,591.9c0-1.7,1.5-3.2,3.2-3.2s3.2,1.5,3.2,3.2v.2c0,1.7-1.5,3.2-3.2,3.2s-3.2-1.5-3.2-3.2v-.2ZM368.8,636.5l-.8,1.1c-.2.2-.5.5-.8.9l-1.2,1.2c-.2.2-.5.4-.6.6l-.3.3-1.1.9h-.1c-.3.4-.6.6-1,.8l-1,.5h-.1c0,0-.1.2-.2.2l-.8.4-1.7.5-1.5.3c-.6,0-1.2.2-1.8,0h-1c-.8-.2-1.6-.4-2.6-.7h-.2c-1.4-.7-2.7-1.7-3.6-3-.6-.9-1.1-1.8-1.3-2.7l-.2-.8v-.3c-.1,0-.1-.3-.2-.4v-.6l-.3-2.2v-2.9c-.1-1.2,0-2.2.4-3.2l.5-1.3c.4-1.1.9-1.9,1.6-2.7l1.1-1.3h0c.2-.3.4-.5.6-.7l2.1-1.8h0c.1-.2.3-.3.4-.4.1,0,.3-.2.4-.3l3.2-2,1.7-1.5.4-1.3v-1.5l-.6-1.2-1.3-1.1-1.7-.9-.9-.2c-1.6-.5-2.6-2.2-2.1-3.9.4-1.4,1.7-2.4,3.1-2.4s.6,0,.9,0l.7.2c.5,0,1.1.4,1.8.8l1.1.7h.1c.4.3.7.6,1.2.9l.7.5c1.1.9,2,2.1,2.5,3.6l.2.5c.3.9.5,2.1.5,3.3v.7c0,.6-.1,1.3-.4,2.2l-.2.6c-.4,1.4-1.3,2.7-2.5,3.7l-1.1.9-1.1.8-3.2,2-2.2,1.8-1.6,1.9-.7,2.1v2.6c.1,0,.4,2.5.4,2.5l.5,2.5,3.1.3,1.6-.4,1.5-.7,1.3-1,1.6-1.7,1.1-1.4c1.1-1.4,3.1-1.8,4.5-.7h0c.7.5,1.1,1.2,1.2,2.1.1.8,0,1.6-.5,2.2h.5Z" />
  </g>
  <g id="urd">
    <polygon id="upper_blue" data-name="upper blue" class="blue"
      points="122.1 60.1 89.3 84.3 123.7 96.6 156.8 78.3 122.1 60.1" />
    <polygon id="upper_red" data-name="upper red" class="red"
      points="159.9 81.5 123.7 100 123.7 131.8 147.7 128.5 165.4 117 159.9 81.5" />
    <polygon id="upper_green" data-name="upper green" class="green"
      points="89.3 90.7 120 99 120 130.8 104.7 130.8 87.4 119.8 89.3 90.7" />
    <path id="upper_cube" data-name="upper cube" class="white"
      d="M172.3,115.7l-3.7-38.5c-.2-2.1-1.4-3.9-3.3-4.8l-16.7-8.5s-.2,0-.3,0l-23.7-10.7c-1.9-.9-4.2-.7-5.9.5l-17.2,11.6c0,0-.3.2-.4.3l-19.9,16c-1.5,1.2-2.4,3.2-2.2,5.1l2.1,33c0,2,1.2,3.8,3,4.8l21.7,12.7c.3.2.7.4,1,.5l14.3,5.1c.7.2,1.3.4,2,.4s1.3-.1,1.9-.3l23.8-7.9c.5-.2,1-.4,1.4-.7l19.1-12.7c1.9-1.2,2.9-3.4,2.7-5.6h0l.3-.2ZM108.7,75.1l14.2-9.6,20.5,9.2,6.4,3.3-26.1,12.7-25.9-6.8,11-8.8h0ZM93.1,115.6l-1.3-20.7,26.3,6.9-.7,26.6-5.8-2.1-18.5-10.8h0ZM144.5,123.6l-15,5,.7-27.5,27.2-13.2,2.4,25.5-15.4,10.3h.1Z" />
    <path id="upper_questiondot" data-name="upper questiondot" class="white"
      d="M124.4,120.2c-3.1,0-5.7,2.6-5.7,5.7v.2c0,3.1,2.6,5.7,5.7,5.7s5.7-2.6,5.7-5.7v-.2c0-3.1-2.6-5.7-5.7-5.7Z" />
    <path id="upper_questionmark" data-name="upper questionmark" class="white"
      d="M111.3,87.8c2.5,1.9,6.1,1.3,8-1.2l.9-1.2,1.3-1.4.9-.7,1.2-.6.9-.2h.9v.6l.3,2.3v2.1l-.3,1.2-1,1.2-1.9,1.6-3.3,2.1c-.4.3-.8.6-1.2.9l-1.1.9c-1.5,1.3-2.7,3-3.3,4.9l-.2.5c-.3,1-.5,2-.5,3v.7c0,1.4.2,2.9.7,4.2l.2.5c.7,1.8,1.8,3.4,3.3,4.6l.8.6c.5.4,1,.8,1.6,1.1l1.2.7c.8.4,1.6.8,2.4,1l.7.2c.5,0,1,.2,1.5.2,2.5,0,4.8-1.7,5.5-4.2.8-3-1-6.2-4-7h-.6l-1.1-.7-.7-.6v-1l1-.8,3.3-2.1c.4-.3.9-.6,1.2-.9l1.9-1.7c.4-.3.8-.7,1.1-1.1l1.1-1.3c.9-1,1.5-2.1,2-3.4l.5-1.4c.5-1.3.7-2.7.7-4.1v-2.2c-.1-.3-.1-.6-.2-1l-.3-2.3c-.1-.5-.1-1-.3-1.5l-.2-.8c-.3-1.3-.9-2.5-1.7-3.6-1.2-1.6-2.8-2.9-4.7-3.7h-.2c-1.1-.5-2.2-.8-3.4-.9h-1c-.8-.2-1.6,0-2.4,0l-1.1.2c-.2,0-.5,0-.7.2l-1.1.3c-.3,0-.6.2-.9.3l-1,.5c-.2,0-.5.2-.7.4l-.6.3c-.6.3-1.2.7-1.7,1.2l-.9.8c-.4.3-.7.7-1.1,1l-1.4,1.5c-.2.3-.5.6-.7.8l-.9,1.2c-1.8,2.4-1.3,6,1.3,7.8h0Z" />
    <path id="upper_questionmark_outline" data-name="upper questionmark outline" class="black"
      d="M139.6,85.1c0-.3,0-.8-.1-1.4l-.3-2.2v-.5c0-.4-.1-.9-.3-1.4l-.2-.6c-.4-1.6-1.1-3.1-2.1-4.5-1.5-2-3.4-3.5-5.6-4.5l-.4-.2c-1.5-.5-2.8-.8-4-.9h-.9c-1.1-.2-2.1,0-3,0l-1.1.2c-.5,0-.9.2-1.2.3l-.9.2-1,.3-1.4.7c-.2,0-.5.2-.9.5l-.3.2c-.9.4-1.7,1-2.3,1.6l-.8.7c-.3.2-.5.5-.7.7l-.3.3-1.7,1.8-.2.3-.4.4-1.1,1.5c-1.3,1.7-1.8,3.9-1.5,6.1s1.5,4,3.3,5.3c1.7,1.3,3.9,1.8,6.1,1.5s4.1-1.5,5.4-3.2l.8-1.1,1.1-1.2h0v1.6l-.7.7-1.6,1.3-3.2,2-1.4,1-1.2,1c-1.9,1.7-3.3,3.7-4,5.9l-.2.6c-.4,1.4-.6,2.6-.6,3.7v.7c0,1.3.2,3.2.9,5.1l.2.5c.9,2.3,2.3,4.2,4.1,5.7l.7.6c.6.4,1.2.9,2,1.3l1.1.7h.2c.2.2.5.3.7.4-2.5,1.4-4.2,4.1-4.2,7.1v.2c0,4.4,3.8,8.2,8.2,8.2s8.2-3.8,8.2-8.2v-.2c0-2.7-1.4-5.2-3.5-6.7,2-1,3.6-2.9,4.2-5.2.6-2.1.3-4.3-.8-6.2-.9-1.6-2.3-2.9-4-3.5l1.6-1h.2c.1-.2.2-.3.4-.3.3-.2.7-.5,1.1-.8l1.8-1.6c.5-.4,1.1-.9,1.5-1.5l1-1.2c1-1.2,1.8-2.5,2.5-4.2l.5-1.3c.6-1.5.9-3.2.9-5v-2.3h-.7ZM127.6,126.1c0,1.7-1.5,3.2-3.2,3.2s-3.2-1.5-3.2-3.2v-.2c0-1.7,1.5-3.2,3.2-3.2s3.2,1.5,3.2,3.2c0,0,0,.2,0,.2ZM134.1,90.6l-.5,1.3c-.4,1.1-.9,1.9-1.6,2.7l-1.1,1.3h0c-.2.3-.4.6-.6.7l-2.1,1.8h0c-.1.2-.3.3-.4.4,0,0-.3.2-.4.3l-3.2,2.1-1.7,1.5-.4,1.3v1.5l.6,1.2,1.3,1.1,1.7.9.9.2c.8.2,1.4.8,1.8,1.5.4.8.6,1.6.3,2.4-.4,1.4-1.7,2.4-3.1,2.4s-.6,0-.9,0l-.7-.2c-.5,0-1.1-.4-1.8-.8l-1.1-.7h0c-.4-.3-.7-.6-1.2-.9l-.7-.6c-1.1-.9-2-2.1-2.5-3.6l-.2-.5c-.3-.9-.5-2.1-.5-3.3v-.7c0-.6,0-1.3.4-2.2l.2-.6c.4-1.4,1.3-2.7,2.5-3.7l1.1-.9,1.1-.8,3.2-2.1,2.2-1.8,1.6-1.9.7-2.1v-2.6c-.1,0-.4-2.5-.4-2.5l-.5-2.5-3.1-.3-1.6.4-1.5.7-1.3,1-1.6,1.7-1.1,1.4c-.5.7-1.3,1.2-2.2,1.3-.8,0-1.7,0-2.3-.6h0c-.7-.5-1.1-1.2-1.2-2.1,0-.8,0-1.6.5-2.2l.8-1.1c.2-.2.5-.5.8-.9l1.2-1.2.6-.6.3-.3,1.1-.9h0c.3-.4.6-.6,1.1-.8l1-.5h0c0-.2.2-.2.2-.2l.8-.4,1.7-.5,1.5-.3c.6,0,1.2-.2,1.8,0h1c.8.2,1.6.4,2.6.7h.2c1.4.7,2.7,1.7,3.6,3,.6.9,1.1,1.8,1.3,2.7l.2.8v.3c.1,0,.2.3.2.4v.6l.3,2.2v2.9c.1,1.2,0,2.2-.4,3.2h-.6Z" />
  </g>
</svg>